<?xml version="1.0" encoding="utf-8" standalone="no"?>
<!DOCTYPE svg PUBLIC "-//W3C//DTD SVG 1.1//EN"
  "http://www.w3.org/Graphics/SVG/1.1/DTD/svg11.dtd">
<svg xmlns:xlink="http://www.w3.org/1999/xlink" width="637.603pt" height="519.3pt" viewBox="0 0 637.603 519.3" xmlns="http://www.w3.org/2000/svg" version="1.1">
 <metadata>
  <rdf:RDF xmlns:dc="http://purl.org/dc/elements/1.1/" xmlns:cc="http://creativecommons.org/ns#" xmlns:rdf="http://www.w3.org/1999/02/22-rdf-syntax-ns#">
   <cc:Work>
    <dc:type rdf:resource="http://purl.org/dc/dcmitype/StillImage"/>
    <dc:date>2022-11-02T16:15:58.225323</dc:date>
    <dc:format>image/svg+xml</dc:format>
    <dc:creator>
     <cc:Agent>
      <dc:title>Matplotlib v3.5.2, https://matplotlib.org/</dc:title>
     </cc:Agent>
    </dc:creator>
   </cc:Work>
  </rdf:RDF>
 </metadata>
 <defs>
  <style type="text/css">*{stroke-linejoin: round; stroke-linecap: butt}</style>
 </defs>
 <g id="figure_1">
  <g id="patch_1">
   <path d="M -0 519.3 
L 637.603 519.3 
L 637.603 0 
L -0 0 
L -0 519.3 
z
" style="fill: none"/>
  </g>
  <g id="axes_1">
   <g id="patch_2">
    <path d="M 329.79795 251.082 
C 330.771776 251.082 331.705847 250.695095 332.394446 250.006496 
C 333.083045 249.317897 333.46995 248.383826 333.46995 247.41 
C 333.46995 246.436174 333.083045 245.502103 332.394446 244.813504 
C 331.705847 244.124905 330.771776 243.738 329.79795 243.738 
C 328.824124 243.738 327.890053 244.124905 327.201454 244.813504 
C 326.512855 245.502103 326.12595 246.436174 326.12595 247.41 
C 326.12595 248.383826 326.512855 249.317897 327.201454 250.006496 
C 327.890053 250.695095 328.824124 251.082 329.79795 251.082 
L 329.79795 251.082 
z
" clip-path="url(#p94d8f1b809)" style="fill: none; stroke: #000000; stroke-width: 2; stroke-linejoin: miter"/>
   </g>
   <g id="patch_3">
    <path d="M 390.99795 503.532 
C 391.971776 503.532 392.905847 503.145095 393.594446 502.456496 
C 394.283045 501.767897 394.66995 500.833826 394.66995 499.86 
C 394.66995 498.886174 394.283045 497.952103 393.594446 497.263504 
C 392.905847 496.574905 391.971776 496.188 390.99795 496.188 
C 390.024124 496.188 389.090053 496.574905 388.401454 497.263504 
C 387.712855 497.952103 387.32595 498.886174 387.32595 499.86 
C 387.32595 500.833826 387.712855 501.767897 388.401454 502.456496 
C 389.090053 503.145095 390.024124 503.532 390.99795 503.532 
L 390.99795 503.532 
z
" clip-path="url(#p94d8f1b809)" style="fill: none; stroke: #000000; stroke-width: 2; stroke-linejoin: miter"/>
   </g>
   <g id="patch_4">
    <path d="M 565.26495 406.224 
C 566.238776 406.224 567.172847 405.837095 567.861446 405.148496 
C 568.550045 404.459897 568.93695 403.525826 568.93695 402.552 
C 568.93695 401.578174 568.550045 400.644103 567.861446 399.955504 
C 567.172847 399.266905 566.238776 398.88 565.26495 398.88 
C 564.291124 398.88 563.357053 399.266905 562.668454 399.955504 
C 561.979855 400.644103 561.59295 401.578174 561.59295 402.552 
C 561.59295 403.525826 561.979855 404.459897 562.668454 405.148496 
C 563.357053 405.837095 564.291124 406.224 565.26495 406.224 
L 565.26495 406.224 
z
" clip-path="url(#p94d8f1b809)" style="fill: none; stroke: #000000; stroke-width: 2; stroke-linejoin: miter"/>
   </g>
   <g id="line2d_1">
    <path d="M 280.07295 163.26 
L 341.27295 163.26 
L 341.27295 71.46 
L 280.07295 71.46 
L 280.07295 163.26 
" clip-path="url(#p94d8f1b809)" style="fill: none; stroke: #000000; stroke-width: 2; stroke-linecap: round"/>
   </g>
   <g id="line2d_2">
    <path d="M 280.07295 134.955 
L 290.78295 140.31 
L 280.07295 145.665 
" clip-path="url(#p94d8f1b809)" style="fill: none; stroke: #000000; stroke-width: 2; stroke-linecap: round"/>
   </g>
   <g id="line2d_3">
    <path d="M 310.67295 377.46 
L 371.87295 377.46 
L 371.87295 285.66 
L 310.67295 285.66 
L 310.67295 377.46 
" clip-path="url(#p94d8f1b809)" style="fill: none; stroke: #000000; stroke-width: 2; stroke-linecap: round"/>
   </g>
   <g id="line2d_4">
    <path d="M 310.67295 349.155 
L 321.38295 354.51 
L 310.67295 359.865 
" clip-path="url(#p94d8f1b809)" style="fill: none; stroke: #000000; stroke-width: 2; stroke-linecap: round"/>
   </g>
   <g id="line2d_5">
    <path d="M 280.07295 94.41 
L 272.42295 94.41 
L 264.77295 94.41 
" clip-path="url(#p94d8f1b809)" style="fill: none; stroke: #000000; stroke-width: 2; stroke-linecap: round"/>
   </g>
   <g id="line2d_6">
    <path d="M 264.77295 94.41 
L 264.77295 71.46 
L 264.77295 48.51 
" clip-path="url(#p94d8f1b809)" style="fill: none; stroke: #000000; stroke-width: 2; stroke-linecap: round"/>
   </g>
   <g id="line2d_7">
    <path d="M 264.77295 48.51 
L 165.32295 48.51 
L 65.87295 48.51 
" clip-path="url(#p94d8f1b809)" style="fill: none; stroke: #000000; stroke-width: 2; stroke-linecap: round"/>
   </g>
   <g id="line2d_8">
    <path d="M 65.87295 48.51 
L 50.57295 48.51 
L 35.27295 48.51 
" clip-path="url(#p94d8f1b809)" style="fill: none; stroke: #000000; stroke-width: 2; stroke-linecap: round"/>
   </g>
   <g id="line2d_9">
    <path d="M 35.27295 48.51 
L 50.57295 48.51 
L 58.22295 48.51 
" clip-path="url(#p94d8f1b809)" style="fill: none; stroke: #000000; stroke-width: 2; stroke-linecap: round"/>
   </g>
   <g id="patch_5">
    <path d="M 58.22295 46.215 
L 65.87295 48.51 
L 58.22295 50.805 
z
" clip-path="url(#p94d8f1b809)"/>
   </g>
   <g id="line2d_10">
    <path d="M 65.87295 48.51 
L 276.24795 48.51 
L 486.62295 48.51 
" clip-path="url(#p94d8f1b809)" style="fill: none; stroke: #000000; stroke-width: 2; stroke-linecap: round"/>
   </g>
   <g id="line2d_11">
    <path d="M 501.92295 132.66 
L 532.52295 102.06 
L 532.52295 40.86 
L 501.92295 10.26 
L 501.92295 132.66 
" clip-path="url(#p94d8f1b809)" style="fill: none; stroke: #000000; stroke-width: 2; stroke-linecap: round"/>
   </g>
   <g id="line2d_12">
    <path d="M 501.92295 48.51 
L 486.62295 48.51 
" clip-path="url(#p94d8f1b809)" style="fill: none; stroke: #000000; stroke-width: 2; stroke-linecap: round"/>
   </g>
   <g id="line2d_13">
    <path d="M 501.92295 94.41 
L 486.62295 94.41 
" clip-path="url(#p94d8f1b809)" style="fill: none; stroke: #000000; stroke-width: 2; stroke-linecap: round"/>
   </g>
   <g id="line2d_14">
    <path d="M 532.52295 71.46 
L 547.82295 71.46 
" clip-path="url(#p94d8f1b809)" style="fill: none; stroke: #000000; stroke-width: 2; stroke-linecap: round"/>
   </g>
   <g id="line2d_15">
    <path d="M 517.22295 117.36 
L 517.22295 132.66 
" clip-path="url(#p94d8f1b809)" style="fill: none; stroke: #000000; stroke-width: 2; stroke-linecap: round"/>
   </g>
   <g id="line2d_16">
    <path d="M 341.27295 94.41 
L 413.94795 94.41 
L 486.62295 94.41 
" clip-path="url(#p94d8f1b809)" style="fill: none; stroke: #000000; stroke-width: 2; stroke-linecap: round"/>
   </g>
   <g id="line2d_17">
    <path d="M 547.82295 71.46 
L 578.42295 71.46 
L 601.37295 71.46 
" clip-path="url(#p94d8f1b809)" style="fill: none; stroke: #000000; stroke-width: 2; stroke-linecap: round"/>
   </g>
   <g id="patch_6">
    <path d="M 601.37295 69.165 
L 609.02295 71.46 
L 601.37295 73.755 
z
" clip-path="url(#p94d8f1b809)"/>
   </g>
   <g id="line2d_18">
    <path d="M 527.93295 208.854 
L 544.981521 208.754082 
L 546.730093 208.454327 
L 548.478664 207.954735 
L 550.227236 207.255306 
L 551.975807 206.356041 
L 554.161521 204.950939 
L 556.347236 203.233592 
L 558.53295 201.204 
L 560.718664 198.862163 
L 562.904379 196.208082 
L 564.65295 193.86 
L 564.65295 193.86 
L 562.030093 190.412816 
L 559.844379 187.883633 
L 557.658664 185.666694 
L 555.47295 183.762 
L 553.287236 182.169551 
L 551.101521 180.889347 
L 549.35295 180.09 
L 547.604379 179.49049 
L 545.855807 179.090816 
L 544.107236 178.89098 
L 543.23295 178.866 
L 527.93295 178.866 
L 527.93295 178.866 
L 530.13615 181.314 
L 531.53151 183.15 
L 532.70655 184.986 
L 533.66127 186.822 
L 534.39567 188.658 
L 534.90975 190.494 
L 535.20351 192.33 
L 535.27695 194.166 
L 535.13007 196.002 
L 534.76287 197.838 
L 534.17535 199.674 
L 533.36751 201.51 
L 532.33935 203.346 
L 531.09087 205.182 
L 529.62207 207.018 
L 527.93295 208.854 
L 527.93295 208.854 
" clip-path="url(#p94d8f1b809)" style="fill: none; stroke: #000000; stroke-width: 2; stroke-linecap: round"/>
   </g>
   <g id="line2d_19">
    <path d="M 517.22295 201.51 
L 533.36751 201.51 
" clip-path="url(#p94d8f1b809)" style="fill: none; stroke: #000000; stroke-width: 2; stroke-linecap: round"/>
   </g>
   <g id="line2d_20">
    <path d="M 517.22295 186.21 
L 533.36751 186.21 
" clip-path="url(#p94d8f1b809)" style="fill: none; stroke: #000000; stroke-width: 2; stroke-linecap: round"/>
   </g>
   <g id="line2d_21">
    <path d="M 564.65295 193.86 
L 575.36295 193.86 
" clip-path="url(#p94d8f1b809)" style="fill: none; stroke: #000000; stroke-width: 2; stroke-linecap: round"/>
   </g>
   <g id="line2d_22">
    <path d="M 575.36295 193.86 
L 590.66295 193.86 
L 598.31295 193.86 
" clip-path="url(#p94d8f1b809)" style="fill: none; stroke: #000000; stroke-width: 2; stroke-linecap: round"/>
   </g>
   <g id="patch_7">
    <path d="M 598.31295 191.565 
L 605.96295 193.86 
L 598.31295 196.155 
z
" clip-path="url(#p94d8f1b809)"/>
   </g>
   <g id="line2d_23">
    <path d="M 517.22295 186.21 
L 287.72295 186.21 
L 58.22295 186.21 
" clip-path="url(#p94d8f1b809)" style="fill: none; stroke: #000000; stroke-width: 2; stroke-linecap: round"/>
   </g>
   <g id="line2d_24">
    <path d="M 58.22295 186.21 
L 42.92295 186.21 
L 27.62295 186.21 
" clip-path="url(#p94d8f1b809)" style="fill: none; stroke: #000000; stroke-width: 2; stroke-linecap: round"/>
   </g>
   <g id="line2d_25">
    <path d="M 27.62295 186.21 
L 42.92295 186.21 
L 50.57295 186.21 
" clip-path="url(#p94d8f1b809)" style="fill: none; stroke: #000000; stroke-width: 2; stroke-linecap: round"/>
   </g>
   <g id="patch_8">
    <path d="M 50.57295 183.915 
L 58.22295 186.21 
L 50.57295 188.505 
z
" clip-path="url(#p94d8f1b809)"/>
   </g>
   <g id="line2d_26">
    <path d="M 58.22295 186.21 
L 73.52295 186.21 
L 88.82295 186.21 
" clip-path="url(#p94d8f1b809)" style="fill: none; stroke: #000000; stroke-width: 2; stroke-linecap: round"/>
   </g>
   <g id="line2d_27">
    <path d="M 88.82295 186.21 
L 88.82295 255.06 
L 88.82295 323.91 
" clip-path="url(#p94d8f1b809)" style="fill: none; stroke: #000000; stroke-width: 2; stroke-linecap: round"/>
   </g>
   <g id="line2d_28">
    <path d="M 88.82295 323.91 
L 104.12295 323.91 
L 119.42295 323.91 
" clip-path="url(#p94d8f1b809)" style="fill: none; stroke: #000000; stroke-width: 2; stroke-linecap: round"/>
   </g>
   <g id="line2d_29">
    <path d="M 150.02295 339.21 
L 151.003224 339.178565 
L 151.979471 339.084387 
L 152.947677 338.927855 
L 153.903865 338.709611 
L 154.844106 338.430553 
L 155.764535 338.091826 
L 156.661371 337.694824 
L 157.530929 337.241176 
L 158.369634 336.732748 
L 159.174041 336.171628 
L 159.940844 335.560123 
L 160.666893 334.900745 
L 161.349203 334.196204 
L 161.984972 333.449394 
L 162.571585 332.663385 
L 163.106634 331.841406 
L 163.587919 330.986836 
L 164.013463 330.103185 
L 164.381517 329.194085 
L 164.690568 328.263272 
L 164.939347 327.31457 
L 165.126831 326.351878 
L 165.25225 325.379152 
L 165.315089 324.400389 
L 165.315089 323.419611 
L 165.25225 322.440848 
L 165.126831 321.468122 
L 164.939347 320.50543 
L 164.690568 319.556728 
L 164.381517 318.625915 
L 164.013463 317.716815 
L 163.587919 316.833164 
L 163.106634 315.978594 
L 162.571585 315.156615 
L 161.984972 314.370606 
L 161.349203 313.623796 
L 160.666893 312.919255 
L 159.940844 312.259877 
L 159.174041 311.648372 
L 158.369634 311.087252 
L 157.530929 310.578824 
L 156.661371 310.125176 
L 155.764535 309.728174 
L 154.844106 309.389447 
L 153.903865 309.110389 
L 152.947677 308.892145 
L 151.979471 308.735613 
L 151.003224 308.641435 
L 150.02295 308.61 
L 150.02295 308.61 
L 130.13295 308.61 
L 130.13295 323.91 
L 130.13295 339.21 
L 150.02295 339.21 
" clip-path="url(#p94d8f1b809)" style="fill: none; stroke: #000000; stroke-width: 2; stroke-linecap: round"/>
   </g>
   <g id="line2d_30">
    <path d="M 119.42295 334.008 
L 130.13295 334.008 
" clip-path="url(#p94d8f1b809)" style="fill: none; stroke: #000000; stroke-width: 2; stroke-linecap: round"/>
   </g>
   <g id="line2d_31">
    <path d="M 119.42295 323.91 
L 130.13295 323.91 
" clip-path="url(#p94d8f1b809)" style="fill: none; stroke: #000000; stroke-width: 2; stroke-linecap: round"/>
   </g>
   <g id="line2d_32">
    <path d="M 119.42295 313.812 
L 130.13295 313.812 
" clip-path="url(#p94d8f1b809)" style="fill: none; stroke: #000000; stroke-width: 2; stroke-linecap: round"/>
   </g>
   <g id="line2d_33">
    <path d="M 165.32295 323.91 
L 176.03295 323.91 
" clip-path="url(#p94d8f1b809)" style="fill: none; stroke: #000000; stroke-width: 2; stroke-linecap: round"/>
   </g>
   <g id="line2d_34">
    <path d="M 176.03295 323.91 
L 178.32795 323.91 
L 180.62295 323.91 
" clip-path="url(#p94d8f1b809)" style="fill: none; stroke: #000000; stroke-width: 2; stroke-linecap: round"/>
   </g>
   <g id="line2d_35">
    <path d="M 191.33295 346.554 
L 208.381521 346.454082 
L 210.130093 346.154327 
L 211.878664 345.654735 
L 213.627236 344.955306 
L 215.375807 344.056041 
L 217.561521 342.650939 
L 219.747236 340.933592 
L 221.93295 338.904 
L 224.118664 336.562163 
L 226.304379 333.908082 
L 228.05295 331.56 
L 228.05295 331.56 
L 225.430093 328.112816 
L 223.244379 325.583633 
L 221.058664 323.366694 
L 218.87295 321.462 
L 216.687236 319.869551 
L 214.501521 318.589347 
L 212.75295 317.79 
L 211.004379 317.19049 
L 209.255807 316.790816 
L 207.507236 316.59098 
L 206.63295 316.566 
L 191.33295 316.566 
L 191.33295 316.566 
L 193.53615 319.014 
L 194.93151 320.85 
L 196.10655 322.686 
L 197.06127 324.522 
L 197.79567 326.358 
L 198.30975 328.194 
L 198.60351 330.03 
L 198.67695 331.866 
L 198.53007 333.702 
L 198.16287 335.538 
L 197.57535 337.374 
L 196.76751 339.21 
L 195.73935 341.046 
L 194.49087 342.882 
L 193.02207 344.718 
L 191.33295 346.554 
L 191.33295 346.554 
" clip-path="url(#p94d8f1b809)" style="fill: none; stroke: #000000; stroke-width: 2; stroke-linecap: round"/>
   </g>
   <g id="line2d_36">
    <path d="M 180.62295 339.21 
L 196.76751 339.21 
" clip-path="url(#p94d8f1b809)" style="fill: none; stroke: #000000; stroke-width: 2; stroke-linecap: round"/>
   </g>
   <g id="line2d_37">
    <path d="M 180.62295 323.91 
L 196.76751 323.91 
" clip-path="url(#p94d8f1b809)" style="fill: none; stroke: #000000; stroke-width: 2; stroke-linecap: round"/>
   </g>
   <g id="line2d_38">
    <path d="M 228.05295 331.56 
L 238.76295 331.56 
" clip-path="url(#p94d8f1b809)" style="fill: none; stroke: #000000; stroke-width: 2; stroke-linecap: round"/>
   </g>
   <g id="line2d_39">
    <path d="M 238.76295 331.56 
L 274.71795 331.56 
L 310.67295 331.56 
" clip-path="url(#p94d8f1b809)" style="fill: none; stroke: #000000; stroke-width: 2; stroke-linecap: round"/>
   </g>
   <g id="line2d_40">
    <path d="M 176.03295 323.91 
L 176.03295 117.36 
L 280.07295 117.36 
" clip-path="url(#p94d8f1b809)" style="fill: none; stroke: #000000; stroke-width: 2; stroke-linecap: round"/>
   </g>
   <g id="line2d_41">
    <path d="M 517.22295 201.51 
L 517.22295 132.66 
L 517.22295 132.66 
" clip-path="url(#p94d8f1b809)" style="fill: none; stroke: #000000; stroke-width: 2; stroke-linecap: round"/>
   </g>
   <g id="line2d_42">
    <path d="M 371.87295 308.61 
L 387.17295 308.61 
L 402.47295 308.61 
" clip-path="url(#p94d8f1b809)" style="fill: none; stroke: #000000; stroke-width: 2; stroke-linecap: round"/>
   </g>
   <g id="line2d_43">
    <path d="M 402.47295 308.61 
L 517.22295 308.61 
L 517.22295 201.51 
" clip-path="url(#p94d8f1b809)" style="fill: none; stroke: #000000; stroke-width: 2; stroke-linecap: round"/>
   </g>
   <g id="line2d_44">
    <path d="M 402.47295 308.61 
L 402.47295 369.81 
L 402.47295 431.01 
" clip-path="url(#p94d8f1b809)" style="fill: none; stroke: #000000; stroke-width: 2; stroke-linecap: round"/>
   </g>
   <g id="line2d_45">
    <path d="M 402.47295 431.01 
L 387.17295 431.01 
L 371.87295 431.01 
" clip-path="url(#p94d8f1b809)" style="fill: none; stroke: #000000; stroke-width: 2; stroke-linecap: round"/>
   </g>
   <g id="line2d_46">
    <path d="M 341.27295 423.36 
L 340.292676 423.391435 
L 339.316429 423.485613 
L 338.348223 423.642145 
L 337.392035 423.860389 
L 336.451794 424.139447 
L 335.531365 424.478174 
L 334.634529 424.875176 
L 333.764971 425.328824 
L 332.926266 425.837252 
L 332.121859 426.398372 
L 331.355056 427.009877 
L 330.629007 427.669255 
L 329.946697 428.373796 
L 329.310928 429.120606 
L 328.724315 429.906615 
L 328.189266 430.728594 
L 327.707981 431.583164 
L 327.282437 432.466815 
L 326.914383 433.375915 
L 326.605332 434.306728 
L 326.356553 435.25543 
L 326.169069 436.218122 
L 326.04365 437.190848 
L 325.980811 438.169611 
L 325.980811 439.150389 
L 326.04365 440.129152 
L 326.169069 441.101878 
L 326.356553 442.06457 
L 326.605332 443.013272 
L 326.914383 443.944085 
L 327.282437 444.853185 
L 327.707981 445.736836 
L 328.189266 446.591406 
L 328.724315 447.413385 
L 329.310928 448.199394 
L 329.946697 448.946204 
L 330.629007 449.650745 
L 331.355056 450.310123 
L 332.121859 450.921628 
L 332.926266 451.482748 
L 333.764971 451.991176 
L 334.634529 452.444824 
L 335.531365 452.841826 
L 336.451794 453.180553 
L 337.392035 453.459611 
L 338.348223 453.677855 
L 339.316429 453.834387 
L 340.292676 453.928565 
L 341.27295 453.96 
L 341.27295 453.96 
L 361.16295 453.96 
L 361.16295 438.66 
L 361.16295 423.36 
L 341.27295 423.36 
" clip-path="url(#p94d8f1b809)" style="fill: none; stroke: #000000; stroke-width: 2; stroke-linecap: round"/>
   </g>
   <g id="line2d_47">
    <path d="M 371.87295 431.01 
L 361.16295 431.01 
" clip-path="url(#p94d8f1b809)" style="fill: none; stroke: #000000; stroke-width: 2; stroke-linecap: round"/>
   </g>
   <g id="line2d_48">
    <path d="M 371.87295 446.31 
L 361.16295 446.31 
" clip-path="url(#p94d8f1b809)" style="fill: none; stroke: #000000; stroke-width: 2; stroke-linecap: round"/>
   </g>
   <g id="line2d_49">
    <path d="M 325.97295 438.66 
L 315.26295 438.66 
" clip-path="url(#p94d8f1b809)" style="fill: none; stroke: #000000; stroke-width: 2; stroke-linecap: round"/>
   </g>
   <g id="line2d_50">
    <path d="M 315.26295 438.66 
L 180.62295 438.66 
L 180.62295 339.21 
" clip-path="url(#p94d8f1b809)" style="fill: none; stroke: #000000; stroke-width: 2; stroke-linecap: round"/>
   </g>
   <g id="line2d_51">
    <path d="M 402.47295 308.61 
L 402.47295 278.01 
L 402.47295 247.41 
" clip-path="url(#p94d8f1b809)" style="fill: none; stroke: #000000; stroke-width: 2; stroke-linecap: round"/>
   </g>
   <g id="line2d_52">
    <path d="M 402.47295 247.41 
L 379.52295 247.41 
L 356.57295 247.41 
" clip-path="url(#p94d8f1b809)" style="fill: none; stroke: #000000; stroke-width: 2; stroke-linecap: round"/>
   </g>
   <g id="line2d_53">
    <path d="M 356.57295 247.41 
L 356.41995 247.41 
M 326.12595 247.41 
L 325.97295 247.41 
" clip-path="url(#p94d8f1b809)" style="fill: none; stroke: #000000; stroke-width: 2; stroke-linecap: round"/>
   </g>
   <g id="line2d_54">
    <path d="M 356.41995 256.59 
L 333.46995 247.41 
L 356.41995 238.23 
L 356.41995 256.59 
" clip-path="url(#p94d8f1b809)" style="fill: none; stroke: #000000; stroke-width: 2; stroke-linecap: round"/>
   </g>
   <g id="line2d_55">
    <path d="M 325.97295 247.41 
L 312.20295 247.41 
L 298.43295 247.41 
" clip-path="url(#p94d8f1b809)" style="fill: none; stroke: #000000; stroke-width: 2; stroke-linecap: round"/>
   </g>
   <g id="line2d_56">
    <path d="M 298.43295 247.41 
L 298.43295 308.61 
L 310.67295 308.61 
" clip-path="url(#p94d8f1b809)" style="fill: none; stroke: #000000; stroke-width: 2; stroke-linecap: round"/>
   </g>
   <g id="line2d_57">
    <path d="M 298.43295 247.41 
L 197.45295 247.41 
L 96.47295 247.41 
" clip-path="url(#p94d8f1b809)" style="fill: none; stroke: #000000; stroke-width: 2; stroke-linecap: round"/>
   </g>
   <g id="line2d_58">
    <path d="M 96.47295 247.41 
L 81.17295 247.41 
L 65.87295 247.41 
" clip-path="url(#p94d8f1b809)" style="fill: none; stroke: #000000; stroke-width: 2; stroke-linecap: round"/>
   </g>
   <g id="line2d_59">
    <path d="M 65.87295 247.41 
L 46.74795 247.41 
L 35.27295 247.41 
" clip-path="url(#p94d8f1b809)" style="fill: none; stroke: #000000; stroke-width: 2; stroke-linecap: round"/>
   </g>
   <g id="patch_9">
    <path d="M 35.27295 249.705 
L 27.62295 247.41 
L 35.27295 245.115 
z
" clip-path="url(#p94d8f1b809)"/>
   </g>
   <g id="line2d_60">
    <path d="M 96.47295 247.41 
L 96.47295 313.812 
L 119.42295 313.812 
" clip-path="url(#p94d8f1b809)" style="fill: none; stroke: #000000; stroke-width: 2; stroke-linecap: round"/>
   </g>
   <g id="line2d_61">
    <path d="M 601.37295 499.86 
L 586.07295 499.86 
L 578.42295 499.86 
" clip-path="url(#p94d8f1b809)" style="fill: none; stroke: #000000; stroke-width: 2; stroke-linecap: round"/>
   </g>
   <g id="patch_10">
    <path d="M 601.37295 502.155 
C 601.981591 502.155 602.565386 501.913184 602.99576 501.48281 
C 603.426134 501.052436 603.66795 500.468641 603.66795 499.86 
C 603.66795 499.251359 603.426134 498.667564 602.99576 498.23719 
C 602.565386 497.806816 601.981591 497.565 601.37295 497.565 
C 600.764309 497.565 600.180514 497.806816 599.75014 498.23719 
C 599.319766 498.667564 599.07795 499.251359 599.07795 499.86 
C 599.07795 500.468641 599.319766 501.052436 599.75014 501.48281 
C 600.180514 501.913184 600.764309 502.155 601.37295 502.155 
z
" clip-path="url(#p94d8f1b809)" style="stroke: #000000; stroke-width: 2; stroke-linejoin: miter"/>
   </g>
   <g id="patch_11">
    <path d="M 578.42295 502.155 
L 570.77295 499.86 
L 578.42295 497.565 
z
" clip-path="url(#p94d8f1b809)"/>
   </g>
   <g id="line2d_62">
    <path d="M 570.77295 499.86 
L 509.57295 499.86 
L 448.37295 499.86 
" clip-path="url(#p94d8f1b809)" style="fill: none; stroke: #000000; stroke-width: 2; stroke-linecap: round"/>
   </g>
   <g id="line2d_63">
    <path d="M 448.37295 499.86 
L 433.07295 499.86 
L 417.77295 499.86 
" clip-path="url(#p94d8f1b809)" style="fill: none; stroke: #000000; stroke-width: 2; stroke-linecap: round"/>
   </g>
   <g id="line2d_64">
    <path d="M 417.77295 499.86 
L 417.61995 499.86 
M 387.32595 499.86 
L 387.17295 499.86 
" clip-path="url(#p94d8f1b809)" style="fill: none; stroke: #000000; stroke-width: 2; stroke-linecap: round"/>
   </g>
   <g id="line2d_65">
    <path d="M 417.61995 509.04 
L 394.66995 499.86 
L 417.61995 490.68 
L 417.61995 509.04 
" clip-path="url(#p94d8f1b809)" style="fill: none; stroke: #000000; stroke-width: 2; stroke-linecap: round"/>
   </g>
   <g id="line2d_66">
    <path d="M 387.17295 499.86 
L 237.99795 499.86 
L 88.82295 499.86 
" clip-path="url(#p94d8f1b809)" style="fill: none; stroke: #000000; stroke-width: 2; stroke-linecap: round"/>
   </g>
   <g id="line2d_67">
    <path d="M 88.82295 499.86 
L 88.82295 334.008 
L 119.42295 334.008 
" clip-path="url(#p94d8f1b809)" style="fill: none; stroke: #000000; stroke-width: 2; stroke-linecap: round"/>
   </g>
   <g id="line2d_68">
    <path d="M 448.37295 499.86 
L 448.37295 446.31 
L 371.87295 446.31 
" clip-path="url(#p94d8f1b809)" style="fill: none; stroke: #000000; stroke-width: 2; stroke-linecap: round"/>
   </g>
   <g id="line2d_69">
    <path d="M 575.36295 193.86 
L 575.36295 278.01 
L 575.36295 362.16 
" clip-path="url(#p94d8f1b809)" style="fill: none; stroke-dasharray: 2,3.3; stroke-dashoffset: 0; stroke: #000000; stroke-width: 2"/>
   </g>
   <g id="line2d_70">
    <path d="M 550.27095 362.16 
L 550.370868 379.208571 
L 550.670623 380.957143 
L 551.170215 382.705714 
L 551.869644 384.454286 
L 552.768909 386.202857 
L 554.174011 388.388571 
L 555.891358 390.574286 
L 557.92095 392.76 
L 560.262787 394.945714 
L 562.916868 397.131429 
L 565.26495 398.88 
L 565.26495 398.88 
L 568.712134 396.257143 
L 571.241317 394.071429 
L 573.458256 391.885714 
L 575.36295 389.7 
L 576.955399 387.514286 
L 578.235603 385.328571 
L 579.03495 383.58 
L 579.63446 381.831429 
L 580.034134 380.082857 
L 580.23397 378.334286 
L 580.25895 377.46 
L 580.25895 362.16 
L 580.25895 362.16 
L 577.81095 364.3632 
L 575.97495 365.75856 
L 574.13895 366.9336 
L 572.30295 367.88832 
L 570.46695 368.62272 
L 568.63095 369.1368 
L 566.79495 369.43056 
L 564.95895 369.504 
L 563.12295 369.35712 
L 561.28695 368.98992 
L 559.45095 368.4024 
L 557.61495 367.59456 
L 555.77895 366.5664 
L 553.94295 365.31792 
L 552.10695 363.84912 
L 550.27095 362.16 
L 550.27095 362.16 
" clip-path="url(#p94d8f1b809)" style="fill: none; stroke: #000000; stroke-width: 2; stroke-linecap: round"/>
   </g>
   <g id="line2d_71">
    <path d="M 555.16695 362.16 
L 555.16695 366.17472 
" clip-path="url(#p94d8f1b809)" style="fill: none; stroke: #000000; stroke-width: 2; stroke-linecap: round"/>
   </g>
   <g id="line2d_72">
    <path d="M 565.26495 362.16 
L 565.26495 369.50706 
" clip-path="url(#p94d8f1b809)" style="fill: none; stroke: #000000; stroke-width: 2; stroke-linecap: round"/>
   </g>
   <g id="line2d_73">
    <path d="M 575.36295 362.16 
L 575.36295 366.17472 
" clip-path="url(#p94d8f1b809)" style="fill: none; stroke: #000000; stroke-width: 2; stroke-linecap: round"/>
   </g>
   <g id="line2d_74">
    <path d="M 565.26495 406.224 
L 565.26495 409.59 
" clip-path="url(#p94d8f1b809)" style="fill: none; stroke: #000000; stroke-width: 2; stroke-linecap: round"/>
   </g>
   <g id="line2d_75">
    <path d="M 565.26495 409.59 
L 565.26495 424.89 
L 565.26495 440.19 
" clip-path="url(#p94d8f1b809)" style="fill: none; stroke: #000000; stroke-width: 2; stroke-linecap: round"/>
   </g>
   <g id="line2d_76">
    <path d="M 565.26495 440.19 
L 580.56495 440.19 
L 588.21495 440.19 
" clip-path="url(#p94d8f1b809)" style="fill: none; stroke: #000000; stroke-width: 2; stroke-linecap: round"/>
   </g>
   <g id="patch_12">
    <path d="M 588.21495 437.895 
L 595.86495 440.19 
L 588.21495 442.485 
z
" clip-path="url(#p94d8f1b809)"/>
   </g>
   <g id="line2d_77">
    <path d="M 565.26495 362.16 
L 565.26495 346.86 
L 565.26495 331.56 
" clip-path="url(#p94d8f1b809)" style="fill: none; stroke-dasharray: 2,3.3; stroke-dashoffset: 0; stroke: #000000; stroke-width: 2"/>
   </g>
   <g id="line2d_78">
    <path d="M 555.16695 362.16 
L 555.16695 346.86 
L 555.16695 331.56 
" clip-path="url(#p94d8f1b809)" style="fill: none; stroke-dasharray: 2,3.3; stroke-dashoffset: 0; stroke: #000000; stroke-width: 2"/>
   </g>
   <g id="text_1">
    <g clip-path="url(#p94d8f1b809)">
     <!-- D -->
     <g transform="translate(284.66295 97.031406)scale(0.095 -0.095)">
      <defs>
       <path id="DejaVuSans-44" d="M 1259 4147 
L 1259 519 
L 2022 519 
Q 2988 519 3436 956 
Q 3884 1394 3884 2338 
Q 3884 3275 3436 3711 
Q 2988 4147 2022 4147 
L 1259 4147 
z
M 628 4666 
L 1925 4666 
Q 3281 4666 3915 4102 
Q 4550 3538 4550 2338 
Q 4550 1131 3912 565 
Q 3275 0 1925 0 
L 628 0 
L 628 4666 
z
" transform="scale(0.015625)"/>
      </defs>
      <use xlink:href="#DejaVuSans-44"/>
     </g>
    </g>
   </g>
   <g id="text_2">
    <g clip-path="url(#p94d8f1b809)">
     <!-- En -->
     <g transform="translate(284.66295 119.981406)scale(0.095 -0.095)">
      <defs>
       <path id="DejaVuSans-45" d="M 628 4666 
L 3578 4666 
L 3578 4134 
L 1259 4134 
L 1259 2753 
L 3481 2753 
L 3481 2222 
L 1259 2222 
L 1259 531 
L 3634 531 
L 3634 0 
L 628 0 
L 628 4666 
z
" transform="scale(0.015625)"/>
       <path id="DejaVuSans-6e" d="M 3513 2113 
L 3513 0 
L 2938 0 
L 2938 2094 
Q 2938 2591 2744 2837 
Q 2550 3084 2163 3084 
Q 1697 3084 1428 2787 
Q 1159 2491 1159 1978 
L 1159 0 
L 581 0 
L 581 3500 
L 1159 3500 
L 1159 2956 
Q 1366 3272 1645 3428 
Q 1925 3584 2291 3584 
Q 2894 3584 3203 3211 
Q 3513 2838 3513 2113 
z
" transform="scale(0.015625)"/>
      </defs>
      <use xlink:href="#DejaVuSans-45"/>
      <use xlink:href="#DejaVuSans-6e" x="63.183594"/>
     </g>
    </g>
   </g>
   <g id="text_3">
    <g clip-path="url(#p94d8f1b809)">
     <!-- Q -->
     <g transform="translate(329.204669 97.031406)scale(0.095 -0.095)">
      <defs>
       <path id="DejaVuSans-51" d="M 2522 4238 
Q 1834 4238 1429 3725 
Q 1025 3213 1025 2328 
Q 1025 1447 1429 934 
Q 1834 422 2522 422 
Q 3209 422 3611 934 
Q 4013 1447 4013 2328 
Q 4013 3213 3611 3725 
Q 3209 4238 2522 4238 
z
M 3406 84 
L 4238 -825 
L 3475 -825 
L 2784 -78 
Q 2681 -84 2626 -87 
Q 2572 -91 2522 -91 
Q 1538 -91 948 567 
Q 359 1225 359 2328 
Q 359 3434 948 4092 
Q 1538 4750 2522 4750 
Q 3503 4750 4090 4092 
Q 4678 3434 4678 2328 
Q 4678 1516 4351 937 
Q 4025 359 3406 84 
z
" transform="scale(0.015625)"/>
      </defs>
      <use xlink:href="#DejaVuSans-51"/>
     </g>
    </g>
   </g>
   <g id="text_4">
    <g clip-path="url(#p94d8f1b809)">
     <!-- D -->
     <g transform="translate(315.26295 311.231406)scale(0.095 -0.095)">
      <use xlink:href="#DejaVuSans-44"/>
     </g>
    </g>
   </g>
   <g id="text_5">
    <g clip-path="url(#p94d8f1b809)">
     <!-- En -->
     <g transform="translate(315.26295 334.181406)scale(0.095 -0.095)">
      <use xlink:href="#DejaVuSans-45"/>
      <use xlink:href="#DejaVuSans-6e" x="63.183594"/>
     </g>
    </g>
   </g>
   <g id="text_6">
    <g clip-path="url(#p94d8f1b809)">
     <!-- Q -->
     <g transform="translate(359.804669 311.231406)scale(0.095 -0.095)">
      <use xlink:href="#DejaVuSans-51"/>
     </g>
    </g>
   </g>
   <g id="patch_13">
    <path d="M 264.77295 50.805 
C 265.381591 50.805 265.965386 50.563184 266.39576 50.13281 
C 266.826134 49.702436 267.06795 49.118641 267.06795 48.51 
C 267.06795 47.901359 266.826134 47.317564 266.39576 46.88719 
C 265.965386 46.456816 265.381591 46.215 264.77295 46.215 
C 264.164309 46.215 263.580514 46.456816 263.15014 46.88719 
C 262.719766 47.317564 262.47795 47.901359 262.47795 48.51 
C 262.47795 49.118641 262.719766 49.702436 263.15014 50.13281 
C 263.580514 50.563184 264.164309 50.805 264.77295 50.805 
z
" clip-path="url(#p94d8f1b809)" style="stroke: #000000; stroke-width: 2; stroke-linejoin: miter"/>
   </g>
   <g id="patch_14">
    <path d="M 65.87295 50.805 
C 66.481591 50.805 67.065386 50.563184 67.49576 50.13281 
C 67.926134 49.702436 68.16795 49.118641 68.16795 48.51 
C 68.16795 47.901359 67.926134 47.317564 67.49576 46.88719 
C 67.065386 46.456816 66.481591 46.215 65.87295 46.215 
C 65.264309 46.215 64.680514 46.456816 64.25014 46.88719 
C 63.819766 47.317564 63.57795 47.901359 63.57795 48.51 
C 63.57795 49.118641 63.819766 49.702436 64.25014 50.13281 
C 64.680514 50.563184 65.264309 50.805 65.87295 50.805 
z
" clip-path="url(#p94d8f1b809)" style="stroke: #000000; stroke-width: 2; stroke-linejoin: miter"/>
   </g>
   <g id="text_7">
    <g clip-path="url(#p94d8f1b809)">
     <!-- from_data -->
     <g transform="translate(19.976309 37.912734)scale(0.125 -0.125)">
      <defs>
       <path id="DejaVuSans-66" d="M 2375 4863 
L 2375 4384 
L 1825 4384 
Q 1516 4384 1395 4259 
Q 1275 4134 1275 3809 
L 1275 3500 
L 2222 3500 
L 2222 3053 
L 1275 3053 
L 1275 0 
L 697 0 
L 697 3053 
L 147 3053 
L 147 3500 
L 697 3500 
L 697 3744 
Q 697 4328 969 4595 
Q 1241 4863 1831 4863 
L 2375 4863 
z
" transform="scale(0.015625)"/>
       <path id="DejaVuSans-72" d="M 2631 2963 
Q 2534 3019 2420 3045 
Q 2306 3072 2169 3072 
Q 1681 3072 1420 2755 
Q 1159 2438 1159 1844 
L 1159 0 
L 581 0 
L 581 3500 
L 1159 3500 
L 1159 2956 
Q 1341 3275 1631 3429 
Q 1922 3584 2338 3584 
Q 2397 3584 2469 3576 
Q 2541 3569 2628 3553 
L 2631 2963 
z
" transform="scale(0.015625)"/>
       <path id="DejaVuSans-6f" d="M 1959 3097 
Q 1497 3097 1228 2736 
Q 959 2375 959 1747 
Q 959 1119 1226 758 
Q 1494 397 1959 397 
Q 2419 397 2687 759 
Q 2956 1122 2956 1747 
Q 2956 2369 2687 2733 
Q 2419 3097 1959 3097 
z
M 1959 3584 
Q 2709 3584 3137 3096 
Q 3566 2609 3566 1747 
Q 3566 888 3137 398 
Q 2709 -91 1959 -91 
Q 1206 -91 779 398 
Q 353 888 353 1747 
Q 353 2609 779 3096 
Q 1206 3584 1959 3584 
z
" transform="scale(0.015625)"/>
       <path id="DejaVuSans-6d" d="M 3328 2828 
Q 3544 3216 3844 3400 
Q 4144 3584 4550 3584 
Q 5097 3584 5394 3201 
Q 5691 2819 5691 2113 
L 5691 0 
L 5113 0 
L 5113 2094 
Q 5113 2597 4934 2840 
Q 4756 3084 4391 3084 
Q 3944 3084 3684 2787 
Q 3425 2491 3425 1978 
L 3425 0 
L 2847 0 
L 2847 2094 
Q 2847 2600 2669 2842 
Q 2491 3084 2119 3084 
Q 1678 3084 1418 2786 
Q 1159 2488 1159 1978 
L 1159 0 
L 581 0 
L 581 3500 
L 1159 3500 
L 1159 2956 
Q 1356 3278 1631 3431 
Q 1906 3584 2284 3584 
Q 2666 3584 2933 3390 
Q 3200 3197 3328 2828 
z
" transform="scale(0.015625)"/>
       <path id="DejaVuSans-5f" d="M 3263 -1063 
L 3263 -1509 
L -63 -1509 
L -63 -1063 
L 3263 -1063 
z
" transform="scale(0.015625)"/>
       <path id="DejaVuSans-64" d="M 2906 2969 
L 2906 4863 
L 3481 4863 
L 3481 0 
L 2906 0 
L 2906 525 
Q 2725 213 2448 61 
Q 2172 -91 1784 -91 
Q 1150 -91 751 415 
Q 353 922 353 1747 
Q 353 2572 751 3078 
Q 1150 3584 1784 3584 
Q 2172 3584 2448 3432 
Q 2725 3281 2906 2969 
z
M 947 1747 
Q 947 1113 1208 752 
Q 1469 391 1925 391 
Q 2381 391 2643 752 
Q 2906 1113 2906 1747 
Q 2906 2381 2643 2742 
Q 2381 3103 1925 3103 
Q 1469 3103 1208 2742 
Q 947 2381 947 1747 
z
" transform="scale(0.015625)"/>
       <path id="DejaVuSans-61" d="M 2194 1759 
Q 1497 1759 1228 1600 
Q 959 1441 959 1056 
Q 959 750 1161 570 
Q 1363 391 1709 391 
Q 2188 391 2477 730 
Q 2766 1069 2766 1631 
L 2766 1759 
L 2194 1759 
z
M 3341 1997 
L 3341 0 
L 2766 0 
L 2766 531 
Q 2569 213 2275 61 
Q 1981 -91 1556 -91 
Q 1019 -91 701 211 
Q 384 513 384 1019 
Q 384 1609 779 1909 
Q 1175 2209 1959 2209 
L 2766 2209 
L 2766 2266 
Q 2766 2663 2505 2880 
Q 2244 3097 1772 3097 
Q 1472 3097 1187 3025 
Q 903 2953 641 2809 
L 641 3341 
Q 956 3463 1253 3523 
Q 1550 3584 1831 3584 
Q 2591 3584 2966 3190 
Q 3341 2797 3341 1997 
z
" transform="scale(0.015625)"/>
       <path id="DejaVuSans-74" d="M 1172 4494 
L 1172 3500 
L 2356 3500 
L 2356 3053 
L 1172 3053 
L 1172 1153 
Q 1172 725 1289 603 
Q 1406 481 1766 481 
L 2356 481 
L 2356 0 
L 1766 0 
Q 1100 0 847 248 
Q 594 497 594 1153 
L 594 3053 
L 172 3053 
L 172 3500 
L 594 3500 
L 594 4494 
L 1172 4494 
z
" transform="scale(0.015625)"/>
      </defs>
      <use xlink:href="#DejaVuSans-66"/>
      <use xlink:href="#DejaVuSans-72" x="35.205078"/>
      <use xlink:href="#DejaVuSans-6f" x="74.068359"/>
      <use xlink:href="#DejaVuSans-6d" x="135.25"/>
      <use xlink:href="#DejaVuSans-5f" x="232.662109"/>
      <use xlink:href="#DejaVuSans-64" x="282.662109"/>
      <use xlink:href="#DejaVuSans-61" x="346.138672"/>
      <use xlink:href="#DejaVuSans-74" x="407.417969"/>
      <use xlink:href="#DejaVuSans-61" x="446.626953"/>
     </g>
    </g>
   </g>
   <g id="text_8">
    <g clip-path="url(#p94d8f1b809)">
     <!-- 0 -->
     <g transform="translate(506.51295 51.131406)scale(0.095 -0.095)">
      <defs>
       <path id="DejaVuSans-30" d="M 2034 4250 
Q 1547 4250 1301 3770 
Q 1056 3291 1056 2328 
Q 1056 1369 1301 889 
Q 1547 409 2034 409 
Q 2525 409 2770 889 
Q 3016 1369 3016 2328 
Q 3016 3291 2770 3770 
Q 2525 4250 2034 4250 
z
M 2034 4750 
Q 2819 4750 3233 4129 
Q 3647 3509 3647 2328 
Q 3647 1150 3233 529 
Q 2819 -91 2034 -91 
Q 1250 -91 836 529 
Q 422 1150 422 2328 
Q 422 3509 836 4129 
Q 1250 4750 2034 4750 
z
" transform="scale(0.015625)"/>
      </defs>
      <use xlink:href="#DejaVuSans-30"/>
     </g>
    </g>
   </g>
   <g id="text_9">
    <g clip-path="url(#p94d8f1b809)">
     <!-- 1 -->
     <g transform="translate(506.51295 97.031406)scale(0.095 -0.095)">
      <defs>
       <path id="DejaVuSans-31" d="M 794 531 
L 1825 531 
L 1825 4091 
L 703 3866 
L 703 4441 
L 1819 4666 
L 2450 4666 
L 2450 531 
L 3481 531 
L 3481 0 
L 794 0 
L 794 531 
z
" transform="scale(0.015625)"/>
      </defs>
      <use xlink:href="#DejaVuSans-31"/>
     </g>
    </g>
   </g>
   <g id="text_10">
    <g clip-path="url(#p94d8f1b809)">
     <!-- Sel -->
     <g transform="translate(518.75295 126.108516)scale(0.095 -0.095)">
      <defs>
       <path id="DejaVuSans-53" d="M 3425 4513 
L 3425 3897 
Q 3066 4069 2747 4153 
Q 2428 4238 2131 4238 
Q 1616 4238 1336 4038 
Q 1056 3838 1056 3469 
Q 1056 3159 1242 3001 
Q 1428 2844 1947 2747 
L 2328 2669 
Q 3034 2534 3370 2195 
Q 3706 1856 3706 1288 
Q 3706 609 3251 259 
Q 2797 -91 1919 -91 
Q 1588 -91 1214 -16 
Q 841 59 441 206 
L 441 856 
Q 825 641 1194 531 
Q 1563 422 1919 422 
Q 2459 422 2753 634 
Q 3047 847 3047 1241 
Q 3047 1584 2836 1778 
Q 2625 1972 2144 2069 
L 1759 2144 
Q 1053 2284 737 2584 
Q 422 2884 422 3419 
Q 422 4038 858 4394 
Q 1294 4750 2059 4750 
Q 2388 4750 2728 4690 
Q 3069 4631 3425 4513 
z
" transform="scale(0.015625)"/>
       <path id="DejaVuSans-65" d="M 3597 1894 
L 3597 1613 
L 953 1613 
Q 991 1019 1311 708 
Q 1631 397 2203 397 
Q 2534 397 2845 478 
Q 3156 559 3463 722 
L 3463 178 
Q 3153 47 2828 -22 
Q 2503 -91 2169 -91 
Q 1331 -91 842 396 
Q 353 884 353 1716 
Q 353 2575 817 3079 
Q 1281 3584 2069 3584 
Q 2775 3584 3186 3129 
Q 3597 2675 3597 1894 
z
M 3022 2063 
Q 3016 2534 2758 2815 
Q 2500 3097 2075 3097 
Q 1594 3097 1305 2825 
Q 1016 2553 972 2059 
L 3022 2063 
z
" transform="scale(0.015625)"/>
       <path id="DejaVuSans-6c" d="M 603 4863 
L 1178 4863 
L 1178 0 
L 603 0 
L 603 4863 
z
" transform="scale(0.015625)"/>
      </defs>
      <use xlink:href="#DejaVuSans-53"/>
      <use xlink:href="#DejaVuSans-65" x="63.476562"/>
      <use xlink:href="#DejaVuSans-6c" x="125"/>
     </g>
    </g>
   </g>
   <g id="text_11">
    <g clip-path="url(#p94d8f1b809)">
     <!-- data_skid_reg_read -->
     <g transform="translate(353.60127 88.402734)scale(0.125 -0.125)">
      <defs>
       <path id="DejaVuSans-73" d="M 2834 3397 
L 2834 2853 
Q 2591 2978 2328 3040 
Q 2066 3103 1784 3103 
Q 1356 3103 1142 2972 
Q 928 2841 928 2578 
Q 928 2378 1081 2264 
Q 1234 2150 1697 2047 
L 1894 2003 
Q 2506 1872 2764 1633 
Q 3022 1394 3022 966 
Q 3022 478 2636 193 
Q 2250 -91 1575 -91 
Q 1294 -91 989 -36 
Q 684 19 347 128 
L 347 722 
Q 666 556 975 473 
Q 1284 391 1588 391 
Q 1994 391 2212 530 
Q 2431 669 2431 922 
Q 2431 1156 2273 1281 
Q 2116 1406 1581 1522 
L 1381 1569 
Q 847 1681 609 1914 
Q 372 2147 372 2553 
Q 372 3047 722 3315 
Q 1072 3584 1716 3584 
Q 2034 3584 2315 3537 
Q 2597 3491 2834 3397 
z
" transform="scale(0.015625)"/>
       <path id="DejaVuSans-6b" d="M 581 4863 
L 1159 4863 
L 1159 1991 
L 2875 3500 
L 3609 3500 
L 1753 1863 
L 3688 0 
L 2938 0 
L 1159 1709 
L 1159 0 
L 581 0 
L 581 4863 
z
" transform="scale(0.015625)"/>
       <path id="DejaVuSans-69" d="M 603 3500 
L 1178 3500 
L 1178 0 
L 603 0 
L 603 3500 
z
M 603 4863 
L 1178 4863 
L 1178 4134 
L 603 4134 
L 603 4863 
z
" transform="scale(0.015625)"/>
       <path id="DejaVuSans-67" d="M 2906 1791 
Q 2906 2416 2648 2759 
Q 2391 3103 1925 3103 
Q 1463 3103 1205 2759 
Q 947 2416 947 1791 
Q 947 1169 1205 825 
Q 1463 481 1925 481 
Q 2391 481 2648 825 
Q 2906 1169 2906 1791 
z
M 3481 434 
Q 3481 -459 3084 -895 
Q 2688 -1331 1869 -1331 
Q 1566 -1331 1297 -1286 
Q 1028 -1241 775 -1147 
L 775 -588 
Q 1028 -725 1275 -790 
Q 1522 -856 1778 -856 
Q 2344 -856 2625 -561 
Q 2906 -266 2906 331 
L 2906 616 
Q 2728 306 2450 153 
Q 2172 0 1784 0 
Q 1141 0 747 490 
Q 353 981 353 1791 
Q 353 2603 747 3093 
Q 1141 3584 1784 3584 
Q 2172 3584 2450 3431 
Q 2728 3278 2906 2969 
L 2906 3500 
L 3481 3500 
L 3481 434 
z
" transform="scale(0.015625)"/>
      </defs>
      <use xlink:href="#DejaVuSans-64"/>
      <use xlink:href="#DejaVuSans-61" x="63.476562"/>
      <use xlink:href="#DejaVuSans-74" x="124.755859"/>
      <use xlink:href="#DejaVuSans-61" x="163.964844"/>
      <use xlink:href="#DejaVuSans-5f" x="225.244141"/>
      <use xlink:href="#DejaVuSans-73" x="275.244141"/>
      <use xlink:href="#DejaVuSans-6b" x="327.34375"/>
      <use xlink:href="#DejaVuSans-69" x="385.253906"/>
      <use xlink:href="#DejaVuSans-64" x="413.037109"/>
      <use xlink:href="#DejaVuSans-5f" x="476.513672"/>
      <use xlink:href="#DejaVuSans-72" x="526.513672"/>
      <use xlink:href="#DejaVuSans-65" x="565.376953"/>
      <use xlink:href="#DejaVuSans-67" x="626.900391"/>
      <use xlink:href="#DejaVuSans-5f" x="690.376953"/>
      <use xlink:href="#DejaVuSans-72" x="740.376953"/>
      <use xlink:href="#DejaVuSans-65" x="779.240234"/>
      <use xlink:href="#DejaVuSans-61" x="840.763672"/>
      <use xlink:href="#DejaVuSans-64" x="902.042969"/>
     </g>
    </g>
   </g>
   <g id="patch_15">
    <path d="M 609.02295 73.755 
C 609.631591 73.755 610.215386 73.513184 610.64576 73.08281 
C 611.076134 72.652436 611.31795 72.068641 611.31795 71.46 
C 611.31795 70.851359 611.076134 70.267564 610.64576 69.83719 
C 610.215386 69.406816 609.631591 69.165 609.02295 69.165 
C 608.414309 69.165 607.830514 69.406816 607.40014 69.83719 
C 606.969766 70.267564 606.72795 70.851359 606.72795 71.46 
C 606.72795 72.068641 606.969766 72.652436 607.40014 73.08281 
C 607.830514 73.513184 608.414309 73.755 609.02295 73.755 
z
" clip-path="url(#p94d8f1b809)" style="stroke: #000000; stroke-width: 2; stroke-linejoin: miter"/>
   </g>
   <g id="text_12">
    <g clip-path="url(#p94d8f1b809)">
     <!-- to_data -->
     <g transform="translate(556.092911 60.862734)scale(0.125 -0.125)">
      <use xlink:href="#DejaVuSans-74"/>
      <use xlink:href="#DejaVuSans-6f" x="39.208984"/>
      <use xlink:href="#DejaVuSans-5f" x="100.390625"/>
      <use xlink:href="#DejaVuSans-64" x="150.390625"/>
      <use xlink:href="#DejaVuSans-61" x="213.867188"/>
      <use xlink:href="#DejaVuSans-74" x="275.146484"/>
      <use xlink:href="#DejaVuSans-61" x="314.355469"/>
     </g>
    </g>
   </g>
   <g id="patch_16">
    <path d="M 605.96295 196.155 
C 606.571591 196.155 607.155386 195.913184 607.58576 195.48281 
C 608.016134 195.052436 608.25795 194.468641 608.25795 193.86 
C 608.25795 193.251359 608.016134 192.667564 607.58576 192.23719 
C 607.155386 191.806816 606.571591 191.565 605.96295 191.565 
C 605.354309 191.565 604.770514 191.806816 604.34014 192.23719 
C 603.909766 192.667564 603.66795 193.251359 603.66795 193.86 
C 603.66795 194.468641 603.909766 195.052436 604.34014 195.48281 
C 604.770514 195.913184 605.354309 196.155 605.96295 196.155 
z
" clip-path="url(#p94d8f1b809)" style="stroke: #000000; stroke-width: 2; stroke-linejoin: miter"/>
   </g>
   <g id="text_13">
    <g clip-path="url(#p94d8f1b809)">
     <!-- to_valid -->
     <g transform="translate(567.441309 183.262734)scale(0.125 -0.125)">
      <defs>
       <path id="DejaVuSans-76" d="M 191 3500 
L 800 3500 
L 1894 563 
L 2988 3500 
L 3597 3500 
L 2284 0 
L 1503 0 
L 191 3500 
z
" transform="scale(0.015625)"/>
      </defs>
      <use xlink:href="#DejaVuSans-74"/>
      <use xlink:href="#DejaVuSans-6f" x="39.208984"/>
      <use xlink:href="#DejaVuSans-5f" x="100.390625"/>
      <use xlink:href="#DejaVuSans-76" x="150.390625"/>
      <use xlink:href="#DejaVuSans-61" x="209.570312"/>
      <use xlink:href="#DejaVuSans-6c" x="270.849609"/>
      <use xlink:href="#DejaVuSans-69" x="298.632812"/>
      <use xlink:href="#DejaVuSans-64" x="326.416016"/>
     </g>
    </g>
   </g>
   <g id="patch_17">
    <path d="M 58.22295 188.505 
C 58.831591 188.505 59.415386 188.263184 59.84576 187.83281 
C 60.276134 187.402436 60.51795 186.818641 60.51795 186.21 
C 60.51795 185.601359 60.276134 185.017564 59.84576 184.58719 
C 59.415386 184.156816 58.831591 183.915 58.22295 183.915 
C 57.614309 183.915 57.030514 184.156816 56.60014 184.58719 
C 56.169766 185.017564 55.92795 185.601359 55.92795 186.21 
C 55.92795 186.818641 56.169766 187.402436 56.60014 187.83281 
C 57.030514 188.263184 57.614309 188.505 58.22295 188.505 
z
" clip-path="url(#p94d8f1b809)" style="stroke: #000000; stroke-width: 2; stroke-linejoin: miter"/>
   </g>
   <g id="text_14">
    <g clip-path="url(#p94d8f1b809)">
     <!-- from_valid -->
     <g transform="translate(11.434708 175.612734)scale(0.125 -0.125)">
      <use xlink:href="#DejaVuSans-66"/>
      <use xlink:href="#DejaVuSans-72" x="35.205078"/>
      <use xlink:href="#DejaVuSans-6f" x="74.068359"/>
      <use xlink:href="#DejaVuSans-6d" x="135.25"/>
      <use xlink:href="#DejaVuSans-5f" x="232.662109"/>
      <use xlink:href="#DejaVuSans-76" x="282.662109"/>
      <use xlink:href="#DejaVuSans-61" x="341.841797"/>
      <use xlink:href="#DejaVuSans-6c" x="403.121094"/>
      <use xlink:href="#DejaVuSans-69" x="430.904297"/>
      <use xlink:href="#DejaVuSans-64" x="458.6875"/>
     </g>
    </g>
   </g>
   <g id="text_15">
    <g clip-path="url(#p94d8f1b809)">
     <!-- skid_data_load_en    -->
     <g transform="translate(115.1717 303.905469)scale(0.125 -0.125)">
      <defs>
       <path id="DejaVuSans-20" transform="scale(0.015625)"/>
      </defs>
      <use xlink:href="#DejaVuSans-73"/>
      <use xlink:href="#DejaVuSans-6b" x="52.099609"/>
      <use xlink:href="#DejaVuSans-69" x="110.009766"/>
      <use xlink:href="#DejaVuSans-64" x="137.792969"/>
      <use xlink:href="#DejaVuSans-5f" x="201.269531"/>
      <use xlink:href="#DejaVuSans-64" x="251.269531"/>
      <use xlink:href="#DejaVuSans-61" x="314.746094"/>
      <use xlink:href="#DejaVuSans-74" x="376.025391"/>
      <use xlink:href="#DejaVuSans-61" x="415.234375"/>
      <use xlink:href="#DejaVuSans-5f" x="476.513672"/>
      <use xlink:href="#DejaVuSans-6c" x="526.513672"/>
      <use xlink:href="#DejaVuSans-6f" x="554.296875"/>
      <use xlink:href="#DejaVuSans-61" x="615.478516"/>
      <use xlink:href="#DejaVuSans-64" x="676.757812"/>
      <use xlink:href="#DejaVuSans-5f" x="740.234375"/>
      <use xlink:href="#DejaVuSans-65" x="790.234375"/>
      <use xlink:href="#DejaVuSans-6e" x="851.757812"/>
      <use xlink:href="#DejaVuSans-20" x="915.136719"/>
      <use xlink:href="#DejaVuSans-20" x="946.923828"/>
      <use xlink:href="#DejaVuSans-20" x="978.710938"/>
     </g>
    </g>
    <g clip-path="url(#p94d8f1b809)">
     <!--  -->
     <g transform="translate(178.32795 318.250391)scale(0.125 -0.125)"/>
    </g>
   </g>
   <g id="text_16">
    <g clip-path="url(#p94d8f1b809)">
     <!--  -->
     <g transform="translate(274.71795 344.118047)scale(0.125 -0.125)"/>
    </g>
    <g clip-path="url(#p94d8f1b809)">
     <!-- skid_valid_load_en              -->
     <g transform="translate(190.806817 358.115312)scale(0.125 -0.125)">
      <use xlink:href="#DejaVuSans-73"/>
      <use xlink:href="#DejaVuSans-6b" x="52.099609"/>
      <use xlink:href="#DejaVuSans-69" x="110.009766"/>
      <use xlink:href="#DejaVuSans-64" x="137.792969"/>
      <use xlink:href="#DejaVuSans-5f" x="201.269531"/>
      <use xlink:href="#DejaVuSans-76" x="251.269531"/>
      <use xlink:href="#DejaVuSans-61" x="310.449219"/>
      <use xlink:href="#DejaVuSans-6c" x="371.728516"/>
      <use xlink:href="#DejaVuSans-69" x="399.511719"/>
      <use xlink:href="#DejaVuSans-64" x="427.294922"/>
      <use xlink:href="#DejaVuSans-5f" x="490.771484"/>
      <use xlink:href="#DejaVuSans-6c" x="540.771484"/>
      <use xlink:href="#DejaVuSans-6f" x="568.554688"/>
      <use xlink:href="#DejaVuSans-61" x="629.736328"/>
      <use xlink:href="#DejaVuSans-64" x="691.015625"/>
      <use xlink:href="#DejaVuSans-5f" x="754.492188"/>
      <use xlink:href="#DejaVuSans-65" x="804.492188"/>
      <use xlink:href="#DejaVuSans-6e" x="866.015625"/>
      <use xlink:href="#DejaVuSans-20" x="929.394531"/>
      <use xlink:href="#DejaVuSans-20" x="961.181641"/>
      <use xlink:href="#DejaVuSans-20" x="992.96875"/>
      <use xlink:href="#DejaVuSans-20" x="1024.755859"/>
      <use xlink:href="#DejaVuSans-20" x="1056.542969"/>
      <use xlink:href="#DejaVuSans-20" x="1088.330078"/>
      <use xlink:href="#DejaVuSans-20" x="1120.117188"/>
      <use xlink:href="#DejaVuSans-20" x="1151.904297"/>
      <use xlink:href="#DejaVuSans-20" x="1183.691406"/>
      <use xlink:href="#DejaVuSans-20" x="1215.478516"/>
      <use xlink:href="#DejaVuSans-20" x="1247.265625"/>
      <use xlink:href="#DejaVuSans-20" x="1279.052734"/>
      <use xlink:href="#DejaVuSans-20" x="1310.839844"/>
     </g>
    </g>
   </g>
   <g id="patch_18">
    <path d="M 176.03295 326.205 
C 176.641591 326.205 177.225386 325.963184 177.65576 325.53281 
C 178.086134 325.102436 178.32795 324.518641 178.32795 323.91 
C 178.32795 323.301359 178.086134 322.717564 177.65576 322.28719 
C 177.225386 321.856816 176.641591 321.615 176.03295 321.615 
C 175.424309 321.615 174.840514 321.856816 174.41014 322.28719 
C 173.979766 322.717564 173.73795 323.301359 173.73795 323.91 
C 173.73795 324.518641 173.979766 325.102436 174.41014 325.53281 
C 174.840514 325.963184 175.424309 326.205 176.03295 326.205 
z
" clip-path="url(#p94d8f1b809)" style="stroke: #000000; stroke-width: 2; stroke-linejoin: miter"/>
   </g>
   <g id="patch_19">
    <path d="M 517.22295 203.805 
C 517.831591 203.805 518.415386 203.563184 518.84576 203.13281 
C 519.276134 202.702436 519.51795 202.118641 519.51795 201.51 
C 519.51795 200.901359 519.276134 200.317564 518.84576 199.88719 
C 518.415386 199.456816 517.831591 199.215 517.22295 199.215 
C 516.614309 199.215 516.030514 199.456816 515.60014 199.88719 
C 515.169766 200.317564 514.92795 200.901359 514.92795 201.51 
C 514.92795 202.118641 515.169766 202.702436 515.60014 203.13281 
C 516.030514 203.563184 516.614309 203.805 517.22295 203.805 
z
" clip-path="url(#p94d8f1b809)" style="stroke: #000000; stroke-width: 2; stroke-linejoin: miter"/>
   </g>
   <g id="patch_20">
    <path d="M 402.47295 310.905 
C 403.081591 310.905 403.665386 310.663184 404.09576 310.23281 
C 404.526134 309.802436 404.76795 309.218641 404.76795 308.61 
C 404.76795 308.001359 404.526134 307.417564 404.09576 306.98719 
C 403.665386 306.556816 403.081591 306.315 402.47295 306.315 
C 401.864309 306.315 401.280514 306.556816 400.85014 306.98719 
C 400.419766 307.417564 400.17795 308.001359 400.17795 308.61 
C 400.17795 309.218641 400.419766 309.802436 400.85014 310.23281 
C 401.280514 310.663184 401.864309 310.905 402.47295 310.905 
z
" clip-path="url(#p94d8f1b809)" style="stroke: #000000; stroke-width: 2; stroke-linejoin: miter"/>
   </g>
   <g id="text_17">
    <g clip-path="url(#p94d8f1b809)">
     <!--             data_valid_skid_reg_read -->
     <g transform="translate(357.570606 321.168047)scale(0.125 -0.125)">
      <use xlink:href="#DejaVuSans-20"/>
      <use xlink:href="#DejaVuSans-20" x="31.787109"/>
      <use xlink:href="#DejaVuSans-20" x="63.574219"/>
      <use xlink:href="#DejaVuSans-20" x="95.361328"/>
      <use xlink:href="#DejaVuSans-20" x="127.148438"/>
      <use xlink:href="#DejaVuSans-20" x="158.935547"/>
      <use xlink:href="#DejaVuSans-20" x="190.722656"/>
      <use xlink:href="#DejaVuSans-20" x="222.509766"/>
      <use xlink:href="#DejaVuSans-20" x="254.296875"/>
      <use xlink:href="#DejaVuSans-20" x="286.083984"/>
      <use xlink:href="#DejaVuSans-20" x="317.871094"/>
      <use xlink:href="#DejaVuSans-20" x="349.658203"/>
      <use xlink:href="#DejaVuSans-64" x="381.445312"/>
      <use xlink:href="#DejaVuSans-61" x="444.921875"/>
      <use xlink:href="#DejaVuSans-74" x="506.201172"/>
      <use xlink:href="#DejaVuSans-61" x="545.410156"/>
      <use xlink:href="#DejaVuSans-5f" x="606.689453"/>
      <use xlink:href="#DejaVuSans-76" x="656.689453"/>
      <use xlink:href="#DejaVuSans-61" x="715.869141"/>
      <use xlink:href="#DejaVuSans-6c" x="777.148438"/>
      <use xlink:href="#DejaVuSans-69" x="804.931641"/>
      <use xlink:href="#DejaVuSans-64" x="832.714844"/>
      <use xlink:href="#DejaVuSans-5f" x="896.191406"/>
      <use xlink:href="#DejaVuSans-73" x="946.191406"/>
      <use xlink:href="#DejaVuSans-6b" x="998.291016"/>
      <use xlink:href="#DejaVuSans-69" x="1056.201172"/>
      <use xlink:href="#DejaVuSans-64" x="1083.984375"/>
      <use xlink:href="#DejaVuSans-5f" x="1147.460938"/>
      <use xlink:href="#DejaVuSans-72" x="1197.460938"/>
      <use xlink:href="#DejaVuSans-65" x="1236.324219"/>
      <use xlink:href="#DejaVuSans-67" x="1297.847656"/>
      <use xlink:href="#DejaVuSans-5f" x="1361.324219"/>
      <use xlink:href="#DejaVuSans-72" x="1411.324219"/>
      <use xlink:href="#DejaVuSans-65" x="1450.1875"/>
      <use xlink:href="#DejaVuSans-61" x="1511.710938"/>
      <use xlink:href="#DejaVuSans-64" x="1572.990234"/>
     </g>
    </g>
   </g>
   <g id="text_18">
    <g clip-path="url(#p94d8f1b809)">
     <!-- skid_valid_set_zero   -->
     <g transform="translate(279.740802 417.352734)scale(0.125 -0.125)">
      <defs>
       <path id="DejaVuSans-7a" d="M 353 3500 
L 3084 3500 
L 3084 2975 
L 922 459 
L 3084 459 
L 3084 0 
L 275 0 
L 275 525 
L 2438 3041 
L 353 3041 
L 353 3500 
z
" transform="scale(0.015625)"/>
      </defs>
      <use xlink:href="#DejaVuSans-73"/>
      <use xlink:href="#DejaVuSans-6b" x="52.099609"/>
      <use xlink:href="#DejaVuSans-69" x="110.009766"/>
      <use xlink:href="#DejaVuSans-64" x="137.792969"/>
      <use xlink:href="#DejaVuSans-5f" x="201.269531"/>
      <use xlink:href="#DejaVuSans-76" x="251.269531"/>
      <use xlink:href="#DejaVuSans-61" x="310.449219"/>
      <use xlink:href="#DejaVuSans-6c" x="371.728516"/>
      <use xlink:href="#DejaVuSans-69" x="399.511719"/>
      <use xlink:href="#DejaVuSans-64" x="427.294922"/>
      <use xlink:href="#DejaVuSans-5f" x="490.771484"/>
      <use xlink:href="#DejaVuSans-73" x="540.771484"/>
      <use xlink:href="#DejaVuSans-65" x="592.871094"/>
      <use xlink:href="#DejaVuSans-74" x="654.394531"/>
      <use xlink:href="#DejaVuSans-5f" x="693.603516"/>
      <use xlink:href="#DejaVuSans-7a" x="743.603516"/>
      <use xlink:href="#DejaVuSans-65" x="796.09375"/>
      <use xlink:href="#DejaVuSans-72" x="857.617188"/>
      <use xlink:href="#DejaVuSans-6f" x="896.480469"/>
      <use xlink:href="#DejaVuSans-20" x="957.662109"/>
      <use xlink:href="#DejaVuSans-20" x="989.449219"/>
     </g>
    </g>
   </g>
   <g id="patch_21">
    <path d="M 298.43295 249.705 
C 299.041591 249.705 299.625386 249.463184 300.05576 249.03281 
C 300.486134 248.602436 300.72795 248.018641 300.72795 247.41 
C 300.72795 246.801359 300.486134 246.217564 300.05576 245.78719 
C 299.625386 245.356816 299.041591 245.115 298.43295 245.115 
C 297.824309 245.115 297.240514 245.356816 296.81014 245.78719 
C 296.379766 246.217564 296.13795 246.801359 296.13795 247.41 
C 296.13795 248.018641 296.379766 248.602436 296.81014 249.03281 
C 297.240514 249.463184 297.824309 249.705 298.43295 249.705 
z
" clip-path="url(#p94d8f1b809)" style="stroke: #000000; stroke-width: 2; stroke-linejoin: miter"/>
   </g>
   <g id="text_19">
    <g clip-path="url(#p94d8f1b809)">
     <!-- from_skid_rdy         -->
     <g transform="translate(251.667755 239.107734)scale(0.125 -0.125)">
      <defs>
       <path id="DejaVuSans-79" d="M 2059 -325 
Q 1816 -950 1584 -1140 
Q 1353 -1331 966 -1331 
L 506 -1331 
L 506 -850 
L 844 -850 
Q 1081 -850 1212 -737 
Q 1344 -625 1503 -206 
L 1606 56 
L 191 3500 
L 800 3500 
L 1894 763 
L 2988 3500 
L 3597 3500 
L 2059 -325 
z
" transform="scale(0.015625)"/>
      </defs>
      <use xlink:href="#DejaVuSans-66"/>
      <use xlink:href="#DejaVuSans-72" x="35.205078"/>
      <use xlink:href="#DejaVuSans-6f" x="74.068359"/>
      <use xlink:href="#DejaVuSans-6d" x="135.25"/>
      <use xlink:href="#DejaVuSans-5f" x="232.662109"/>
      <use xlink:href="#DejaVuSans-73" x="282.662109"/>
      <use xlink:href="#DejaVuSans-6b" x="334.761719"/>
      <use xlink:href="#DejaVuSans-69" x="392.671875"/>
      <use xlink:href="#DejaVuSans-64" x="420.455078"/>
      <use xlink:href="#DejaVuSans-5f" x="483.931641"/>
      <use xlink:href="#DejaVuSans-72" x="533.931641"/>
      <use xlink:href="#DejaVuSans-64" x="573.294922"/>
      <use xlink:href="#DejaVuSans-79" x="636.771484"/>
      <use xlink:href="#DejaVuSans-20" x="695.951172"/>
      <use xlink:href="#DejaVuSans-20" x="727.738281"/>
      <use xlink:href="#DejaVuSans-20" x="759.525391"/>
      <use xlink:href="#DejaVuSans-20" x="791.3125"/>
      <use xlink:href="#DejaVuSans-20" x="823.099609"/>
      <use xlink:href="#DejaVuSans-20" x="854.886719"/>
      <use xlink:href="#DejaVuSans-20" x="886.673828"/>
      <use xlink:href="#DejaVuSans-20" x="918.460938"/>
     </g>
    </g>
   </g>
   <g id="patch_22">
    <path d="M 96.47295 249.705 
C 97.081591 249.705 97.665386 249.463184 98.09576 249.03281 
C 98.526134 248.602436 98.76795 248.018641 98.76795 247.41 
C 98.76795 246.801359 98.526134 246.217564 98.09576 245.78719 
C 97.665386 245.356816 97.081591 245.115 96.47295 245.115 
C 95.864309 245.115 95.280514 245.356816 94.85014 245.78719 
C 94.419766 246.217564 94.17795 246.801359 94.17795 247.41 
C 94.17795 248.018641 94.419766 248.602436 94.85014 249.03281 
C 95.280514 249.463184 95.864309 249.705 96.47295 249.705 
z
" clip-path="url(#p94d8f1b809)" style="stroke: #000000; stroke-width: 2; stroke-linejoin: miter"/>
   </g>
   <g id="patch_23">
    <path d="M 27.62295 249.705 
C 28.231591 249.705 28.815386 249.463184 29.24576 249.03281 
C 29.676134 248.602436 29.91795 248.018641 29.91795 247.41 
C 29.91795 246.801359 29.676134 246.217564 29.24576 245.78719 
C 28.815386 245.356816 28.231591 245.115 27.62295 245.115 
C 27.014309 245.115 26.430514 245.356816 26.00014 245.78719 
C 25.569766 246.217564 25.32795 246.801359 25.32795 247.41 
C 25.32795 248.018641 25.569766 248.602436 26.00014 249.03281 
C 26.430514 249.463184 27.014309 249.705 27.62295 249.705 
z
" clip-path="url(#p94d8f1b809)" style="stroke: #000000; stroke-width: 2; stroke-linejoin: miter"/>
   </g>
   <g id="text_20">
    <g clip-path="url(#p94d8f1b809)">
     <!-- from_ready -->
     <g transform="translate(10.16295 236.812734)scale(0.125 -0.125)">
      <use xlink:href="#DejaVuSans-66"/>
      <use xlink:href="#DejaVuSans-72" x="35.205078"/>
      <use xlink:href="#DejaVuSans-6f" x="74.068359"/>
      <use xlink:href="#DejaVuSans-6d" x="135.25"/>
      <use xlink:href="#DejaVuSans-5f" x="232.662109"/>
      <use xlink:href="#DejaVuSans-72" x="282.662109"/>
      <use xlink:href="#DejaVuSans-65" x="321.525391"/>
      <use xlink:href="#DejaVuSans-61" x="383.048828"/>
      <use xlink:href="#DejaVuSans-64" x="444.328125"/>
      <use xlink:href="#DejaVuSans-79" x="507.804688"/>
     </g>
    </g>
   </g>
   <g id="text_21">
    <g clip-path="url(#p94d8f1b809)">
     <!-- to_is_ready -->
     <g transform="translate(550.784864 489.262734)scale(0.125 -0.125)">
      <use xlink:href="#DejaVuSans-74"/>
      <use xlink:href="#DejaVuSans-6f" x="39.208984"/>
      <use xlink:href="#DejaVuSans-5f" x="100.390625"/>
      <use xlink:href="#DejaVuSans-69" x="150.390625"/>
      <use xlink:href="#DejaVuSans-73" x="178.173828"/>
      <use xlink:href="#DejaVuSans-5f" x="230.273438"/>
      <use xlink:href="#DejaVuSans-72" x="280.273438"/>
      <use xlink:href="#DejaVuSans-65" x="319.136719"/>
      <use xlink:href="#DejaVuSans-61" x="380.660156"/>
      <use xlink:href="#DejaVuSans-64" x="441.939453"/>
      <use xlink:href="#DejaVuSans-79" x="505.416016"/>
     </g>
    </g>
   </g>
   <g id="patch_24">
    <path d="M 448.37295 502.155 
C 448.981591 502.155 449.565386 501.913184 449.99576 501.48281 
C 450.426134 501.052436 450.66795 500.468641 450.66795 499.86 
C 450.66795 499.251359 450.426134 498.667564 449.99576 498.23719 
C 449.565386 497.806816 448.981591 497.565 448.37295 497.565 
C 447.764309 497.565 447.180514 497.806816 446.75014 498.23719 
C 446.319766 498.667564 446.07795 499.251359 446.07795 499.86 
C 446.07795 500.468641 446.319766 501.052436 446.75014 501.48281 
C 447.180514 501.913184 447.764309 502.155 448.37295 502.155 
z
" clip-path="url(#p94d8f1b809)" style="stroke: #000000; stroke-width: 2; stroke-linejoin: miter"/>
   </g>
   <g id="text_22">
    <g clip-path="url(#p94d8f1b809)">
     <!-- to_is_not_ready -->
     <g transform="translate(189.349513 493.852734)scale(0.125 -0.125)">
      <use xlink:href="#DejaVuSans-74"/>
      <use xlink:href="#DejaVuSans-6f" x="39.208984"/>
      <use xlink:href="#DejaVuSans-5f" x="100.390625"/>
      <use xlink:href="#DejaVuSans-69" x="150.390625"/>
      <use xlink:href="#DejaVuSans-73" x="178.173828"/>
      <use xlink:href="#DejaVuSans-5f" x="230.273438"/>
      <use xlink:href="#DejaVuSans-6e" x="280.273438"/>
      <use xlink:href="#DejaVuSans-6f" x="343.652344"/>
      <use xlink:href="#DejaVuSans-74" x="404.833984"/>
      <use xlink:href="#DejaVuSans-5f" x="444.042969"/>
      <use xlink:href="#DejaVuSans-72" x="494.042969"/>
      <use xlink:href="#DejaVuSans-65" x="532.90625"/>
      <use xlink:href="#DejaVuSans-61" x="594.429688"/>
      <use xlink:href="#DejaVuSans-64" x="655.708984"/>
      <use xlink:href="#DejaVuSans-79" x="719.185547"/>
     </g>
    </g>
   </g>
   <g id="patch_25">
    <path d="M 595.86495 442.485 
C 596.473591 442.485 597.057386 442.243184 597.48776 441.81281 
C 597.918134 441.382436 598.15995 440.798641 598.15995 440.19 
C 598.15995 439.581359 597.918134 438.997564 597.48776 438.56719 
C 597.057386 438.136816 596.473591 437.895 595.86495 437.895 
C 595.256309 437.895 594.672514 438.136816 594.24214 438.56719 
C 593.811766 438.997564 593.56995 439.581359 593.56995 440.19 
C 593.56995 440.798641 593.811766 441.382436 594.24214 441.81281 
C 594.672514 442.243184 595.256309 442.485 595.86495 442.485 
z
" clip-path="url(#p94d8f1b809)" style="stroke: #000000; stroke-width: 2; stroke-linejoin: miter"/>
   </g>
   <g id="text_23">
    <g clip-path="url(#p94d8f1b809)">
     <!-- idle -->
     <g transform="translate(570.426317 429.940391)scale(0.125 -0.125)">
      <use xlink:href="#DejaVuSans-69"/>
      <use xlink:href="#DejaVuSans-64" x="27.783203"/>
      <use xlink:href="#DejaVuSans-6c" x="91.259766"/>
      <use xlink:href="#DejaVuSans-65" x="119.042969"/>
     </g>
    </g>
   </g>
  </g>
 </g>
 <defs>
  <clipPath id="p94d8f1b809">
   <rect x="7.2" y="7.2" width="623.203" height="504.9"/>
  </clipPath>
 </defs>
</svg>
