<?xml version="1.0" encoding="utf-8" standalone="no"?>
<!DOCTYPE svg PUBLIC "-//W3C//DTD SVG 1.1//EN"
  "http://www.w3.org/Graphics/SVG/1.1/DTD/svg11.dtd">
<svg xmlns:xlink="http://www.w3.org/1999/xlink" width="537.17975pt" height="409.6279pt" viewBox="0 0 537.17975 409.6279" xmlns="http://www.w3.org/2000/svg" version="1.1">
 <metadata>
  <rdf:RDF xmlns:dc="http://purl.org/dc/elements/1.1/" xmlns:cc="http://creativecommons.org/ns#" xmlns:rdf="http://www.w3.org/1999/02/22-rdf-syntax-ns#">
   <cc:Work>
    <dc:type rdf:resource="http://purl.org/dc/dcmitype/StillImage"/>
    <dc:date>2022-11-02T16:15:58.705689</dc:date>
    <dc:format>image/svg+xml</dc:format>
    <dc:creator>
     <cc:Agent>
      <dc:title>Matplotlib v3.5.2, https://matplotlib.org/</dc:title>
     </cc:Agent>
    </dc:creator>
   </cc:Work>
  </rdf:RDF>
 </metadata>
 <defs>
  <style type="text/css">*{stroke-linejoin: round; stroke-linecap: butt}</style>
 </defs>
 <g id="figure_1">
  <g id="patch_1">
   <path d="M 0 409.6279 
L 537.17975 409.6279 
L 537.17975 0 
L 0 0 
L 0 409.6279 
z
" style="fill: none"/>
  </g>
  <g id="axes_1">
   <g id="patch_2">
    <path d="M 352.74795 201.8449 
C 353.721776 201.8449 354.655847 201.457995 355.344446 200.769396 
C 356.033045 200.080797 356.41995 199.146726 356.41995 198.1729 
C 356.41995 197.199074 356.033045 196.265003 355.344446 195.576404 
C 354.655847 194.887805 353.721776 194.5009 352.74795 194.5009 
C 351.774124 194.5009 350.840053 194.887805 350.151454 195.576404 
C 349.462855 196.265003 349.07595 197.199074 349.07595 198.1729 
C 349.07595 199.146726 349.462855 200.080797 350.151454 200.769396 
C 350.840053 201.457995 351.774124 201.8449 352.74795 201.8449 
L 352.74795 201.8449 
z
" clip-path="url(#p26b6d7b898)" style="fill: none; stroke: #000000; stroke-width: 2; stroke-linejoin: miter"/>
   </g>
   <g id="patch_3">
    <path d="M 449.74995 360.8119 
C 450.723776 360.8119 451.657847 360.424995 452.346446 359.736396 
C 453.035045 359.047797 453.42195 358.113726 453.42195 357.1399 
C 453.42195 356.166074 453.035045 355.232003 452.346446 354.543404 
C 451.657847 353.854805 450.723776 353.4679 449.74995 353.4679 
C 448.776124 353.4679 447.842053 353.854805 447.153454 354.543404 
C 446.464855 355.232003 446.07795 356.166074 446.07795 357.1399 
C 446.07795 358.113726 446.464855 359.047797 447.153454 359.736396 
C 447.842053 360.424995 448.776124 360.8119 449.74995 360.8119 
L 449.74995 360.8119 
z
" clip-path="url(#p26b6d7b898)" style="fill: none; stroke: #000000; stroke-width: 2; stroke-linejoin: miter"/>
   </g>
   <g id="line2d_1">
    <path d="M 31.44795 41.3479 
L 46.74795 41.3479 
L 54.39795 41.3479 
" clip-path="url(#p26b6d7b898)" style="fill: none; stroke: #000000; stroke-width: 2; stroke-linecap: round"/>
   </g>
   <g id="patch_4">
    <path d="M 54.39795 39.0529 
L 62.04795 41.3479 
L 54.39795 43.6429 
z
" clip-path="url(#p26b6d7b898)"/>
   </g>
   <g id="line2d_2">
    <path d="M 62.04795 41.3479 
L 169.14795 41.3479 
L 276.24795 41.3479 
" clip-path="url(#p26b6d7b898)" style="fill: none; stroke: #000000; stroke-width: 2; stroke-linecap: round"/>
   </g>
   <g id="line2d_3">
    <path d="M 276.24795 110.1979 
L 337.44795 110.1979 
L 337.44795 18.3979 
L 276.24795 18.3979 
L 276.24795 110.1979 
" clip-path="url(#p26b6d7b898)" style="fill: none; stroke: #000000; stroke-width: 2; stroke-linecap: round"/>
   </g>
   <g id="line2d_4">
    <path d="M 276.24795 81.8929 
L 286.95795 87.2479 
L 276.24795 92.6029 
" clip-path="url(#p26b6d7b898)" style="fill: none; stroke: #000000; stroke-width: 2; stroke-linecap: round"/>
   </g>
   <g id="line2d_5">
    <path d="M 337.44795 41.3479 
L 413.94795 41.3479 
L 482.79795 41.3479 
" clip-path="url(#p26b6d7b898)" style="fill: none; stroke: #000000; stroke-width: 2; stroke-linecap: round"/>
   </g>
   <g id="patch_5">
    <path d="M 482.79795 39.0529 
L 490.44795 41.3479 
L 482.79795 43.6429 
z
" clip-path="url(#p26b6d7b898)"/>
   </g>
   <g id="line2d_6">
    <path d="M 276.24795 64.2979 
L 169.14795 64.2979 
L 62.04795 64.2979 
" clip-path="url(#p26b6d7b898)" style="fill: none; stroke: #000000; stroke-width: 2; stroke-linecap: round"/>
   </g>
   <g id="line2d_7">
    <path d="M 62.04795 64.2979 
L 46.74795 64.2979 
L 39.09795 64.2979 
" clip-path="url(#p26b6d7b898)" style="fill: none; stroke: #000000; stroke-width: 2; stroke-linecap: round"/>
   </g>
   <g id="patch_6">
    <path d="M 39.09795 66.5929 
L 31.44795 64.2979 
L 39.09795 62.0029 
z
" clip-path="url(#p26b6d7b898)"/>
   </g>
   <g id="line2d_8">
    <path d="M 31.44795 255.5479 
L 46.74795 255.5479 
L 54.39795 255.5479 
" clip-path="url(#p26b6d7b898)" style="fill: none; stroke: #000000; stroke-width: 2; stroke-linecap: round"/>
   </g>
   <g id="patch_7">
    <path d="M 54.39795 253.2529 
L 62.04795 255.5479 
L 54.39795 257.8429 
z
" clip-path="url(#p26b6d7b898)"/>
   </g>
   <g id="line2d_9">
    <path d="M 62.04795 255.5479 
L 169.14795 255.5479 
L 276.24795 255.5479 
" clip-path="url(#p26b6d7b898)" style="fill: none; stroke: #000000; stroke-width: 2; stroke-linecap: round"/>
   </g>
   <g id="line2d_10">
    <path d="M 276.24795 324.3979 
L 337.44795 324.3979 
L 337.44795 232.5979 
L 276.24795 232.5979 
L 276.24795 324.3979 
" clip-path="url(#p26b6d7b898)" style="fill: none; stroke: #000000; stroke-width: 2; stroke-linecap: round"/>
   </g>
   <g id="line2d_11">
    <path d="M 276.24795 296.0929 
L 286.95795 301.4479 
L 276.24795 306.8029 
" clip-path="url(#p26b6d7b898)" style="fill: none; stroke: #000000; stroke-width: 2; stroke-linecap: round"/>
   </g>
   <g id="line2d_12">
    <path d="M 337.44795 255.5479 
L 413.94795 255.5479 
L 482.79795 255.5479 
" clip-path="url(#p26b6d7b898)" style="fill: none; stroke: #000000; stroke-width: 2; stroke-linecap: round"/>
   </g>
   <g id="patch_8">
    <path d="M 482.79795 253.2529 
L 490.44795 255.5479 
L 482.79795 257.8429 
z
" clip-path="url(#p26b6d7b898)"/>
   </g>
   <g id="line2d_13">
    <path d="M 490.44795 148.4479 
L 475.14795 148.4479 
L 467.49795 148.4479 
" clip-path="url(#p26b6d7b898)" style="fill: none; stroke: #000000; stroke-width: 2; stroke-linecap: round"/>
   </g>
   <g id="patch_9">
    <path d="M 490.44795 150.7429 
C 491.056591 150.7429 491.640386 150.501084 492.07076 150.07071 
C 492.501134 149.640336 492.74295 149.056541 492.74295 148.4479 
C 492.74295 147.839259 492.501134 147.255464 492.07076 146.82509 
C 491.640386 146.394716 491.056591 146.1529 490.44795 146.1529 
C 489.839309 146.1529 489.255514 146.394716 488.82514 146.82509 
C 488.394766 147.255464 488.15295 147.839259 488.15295 148.4479 
C 488.15295 149.056541 488.394766 149.640336 488.82514 150.07071 
C 489.255514 150.501084 489.839309 150.7429 490.44795 150.7429 
z
" clip-path="url(#p26b6d7b898)" style="stroke: #000000; stroke-width: 2; stroke-linejoin: miter"/>
   </g>
   <g id="patch_10">
    <path d="M 467.49795 150.7429 
L 459.84795 148.4479 
L 467.49795 146.1529 
z
" clip-path="url(#p26b6d7b898)"/>
   </g>
   <g id="line2d_14">
    <path d="M 459.84795 148.4479 
L 398.64795 148.4479 
L 337.44795 148.4479 
" clip-path="url(#p26b6d7b898)" style="fill: none; stroke: #000000; stroke-width: 2; stroke-linecap: round"/>
   </g>
   <g id="line2d_15">
    <path d="M 326.73795 141.1039 
L 309.689379 141.203818 
L 307.940807 141.503573 
L 306.192236 142.003165 
L 304.443664 142.702594 
L 302.695093 143.601859 
L 300.509379 145.006961 
L 298.323664 146.724308 
L 296.13795 148.7539 
L 293.952236 151.095737 
L 291.766521 153.749818 
L 290.01795 156.0979 
L 290.01795 156.0979 
L 292.640807 159.545084 
L 294.826521 162.074267 
L 297.012236 164.291206 
L 299.19795 166.1959 
L 301.383664 167.788349 
L 303.569379 169.068553 
L 305.31795 169.8679 
L 307.066521 170.46741 
L 308.815093 170.867084 
L 310.563664 171.06692 
L 311.43795 171.0919 
L 326.73795 171.0919 
L 326.73795 171.0919 
L 324.53475 168.6439 
L 323.13939 166.8079 
L 321.96435 164.9719 
L 321.00963 163.1359 
L 320.27523 161.2999 
L 319.76115 159.4639 
L 319.46739 157.6279 
L 319.39395 155.7919 
L 319.54083 153.9559 
L 319.90803 152.1199 
L 320.49555 150.2839 
L 321.30339 148.4479 
L 322.33155 146.6119 
L 323.58003 144.7759 
L 325.04883 142.9399 
L 326.73795 141.1039 
L 326.73795 141.1039 
" clip-path="url(#p26b6d7b898)" style="fill: none; stroke: #000000; stroke-width: 2; stroke-linecap: round"/>
   </g>
   <g id="line2d_16">
    <path d="M 337.44795 148.4479 
L 321.30339 148.4479 
" clip-path="url(#p26b6d7b898)" style="fill: none; stroke: #000000; stroke-width: 2; stroke-linecap: round"/>
   </g>
   <g id="line2d_17">
    <path d="M 337.44795 163.7479 
L 321.30339 163.7479 
" clip-path="url(#p26b6d7b898)" style="fill: none; stroke: #000000; stroke-width: 2; stroke-linecap: round"/>
   </g>
   <g id="line2d_18">
    <path d="M 290.01795 156.0979 
L 279.30795 156.0979 
" clip-path="url(#p26b6d7b898)" style="fill: none; stroke: #000000; stroke-width: 2; stroke-linecap: round"/>
   </g>
   <g id="line2d_19">
    <path d="M 352.74795 255.5479 
L 352.74795 240.2479 
L 352.74795 224.9479 
" clip-path="url(#p26b6d7b898)" style="fill: none; stroke: #000000; stroke-width: 2; stroke-linecap: round"/>
   </g>
   <g id="line2d_20">
    <path d="M 352.74795 224.9479 
L 352.74795 224.7949 
M 352.74795 194.5009 
L 352.74795 194.3479 
" clip-path="url(#p26b6d7b898)" style="fill: none; stroke: #000000; stroke-width: 2; stroke-linecap: round"/>
   </g>
   <g id="line2d_21">
    <path d="M 343.56795 224.7949 
L 352.74795 201.8449 
L 361.92795 224.7949 
L 343.56795 224.7949 
" clip-path="url(#p26b6d7b898)" style="fill: none; stroke: #000000; stroke-width: 2; stroke-linecap: round"/>
   </g>
   <g id="line2d_22">
    <path d="M 352.74795 194.3479 
L 352.74795 163.7479 
L 337.44795 163.7479 
" clip-path="url(#p26b6d7b898)" style="fill: none; stroke: #000000; stroke-width: 2; stroke-linecap: round"/>
   </g>
   <g id="line2d_23">
    <path d="M 279.30795 156.0979 
L 233.40795 156.0979 
L 187.50795 156.0979 
" clip-path="url(#p26b6d7b898)" style="fill: none; stroke: #000000; stroke-width: 2; stroke-linecap: round"/>
   </g>
   <g id="line2d_24">
    <path d="M 187.50795 156.0979 
L 187.50795 278.4979 
L 276.24795 278.4979 
" clip-path="url(#p26b6d7b898)" style="fill: none; stroke: #000000; stroke-width: 2; stroke-linecap: round"/>
   </g>
   <g id="line2d_25">
    <path d="M 187.50795 156.0979 
L 187.50795 140.7979 
L 187.50795 125.4979 
" clip-path="url(#p26b6d7b898)" style="fill: none; stroke: #000000; stroke-width: 2; stroke-linecap: round"/>
   </g>
   <g id="line2d_26">
    <path d="M 195.15795 94.8979 
L 195.126515 93.917626 
L 195.032337 92.941379 
L 194.875805 91.973173 
L 194.657561 91.016985 
L 194.378503 90.076744 
L 194.039776 89.156315 
L 193.642774 88.259479 
L 193.189126 87.389921 
L 192.680698 86.551216 
L 192.119578 85.746809 
L 191.508073 84.980006 
L 190.848695 84.253957 
L 190.144154 83.571647 
L 189.397344 82.935878 
L 188.611335 82.349265 
L 187.789356 81.814216 
L 186.934786 81.332931 
L 186.051135 80.907387 
L 185.142035 80.539333 
L 184.211222 80.230282 
L 183.26252 79.981503 
L 182.299828 79.794019 
L 181.327102 79.6686 
L 180.348339 79.605761 
L 179.367561 79.605761 
L 178.388798 79.6686 
L 177.416072 79.794019 
L 176.45338 79.981503 
L 175.504678 80.230282 
L 174.573865 80.539333 
L 173.664765 80.907387 
L 172.781114 81.332931 
L 171.926544 81.814216 
L 171.104565 82.349265 
L 170.318556 82.935878 
L 169.571746 83.571647 
L 168.867205 84.253957 
L 168.207827 84.980006 
L 167.596322 85.746809 
L 167.035202 86.551216 
L 166.526774 87.389921 
L 166.073126 88.259479 
L 165.676124 89.156315 
L 165.337397 90.076744 
L 165.058339 91.016985 
L 164.840095 91.973173 
L 164.683563 92.941379 
L 164.589385 93.917626 
L 164.55795 94.8979 
L 164.55795 94.8979 
L 164.55795 114.7879 
L 179.85795 114.7879 
L 195.15795 114.7879 
L 195.15795 94.8979 
" clip-path="url(#p26b6d7b898)" style="fill: none; stroke: #000000; stroke-width: 2; stroke-linecap: round"/>
   </g>
   <g id="line2d_27">
    <path d="M 187.50795 125.4979 
L 187.50795 114.7879 
" clip-path="url(#p26b6d7b898)" style="fill: none; stroke: #000000; stroke-width: 2; stroke-linecap: round"/>
   </g>
   <g id="line2d_28">
    <path d="M 172.20795 125.4979 
L 172.20795 114.7879 
" clip-path="url(#p26b6d7b898)" style="fill: none; stroke: #000000; stroke-width: 2; stroke-linecap: round"/>
   </g>
   <g id="line2d_29">
    <path d="M 179.85795 79.5979 
L 179.85795 68.8879 
" clip-path="url(#p26b6d7b898)" style="fill: none; stroke: #000000; stroke-width: 2; stroke-linecap: round"/>
   </g>
   <g id="line2d_30">
    <path d="M 179.85795 68.8879 
L 179.85795 66.5929 
L 179.85795 64.2979 
" clip-path="url(#p26b6d7b898)" style="fill: none; stroke: #000000; stroke-width: 2; stroke-linecap: round"/>
   </g>
   <g id="line2d_31">
    <path d="M 172.20795 125.4979 
L 172.20795 190.5229 
L 172.20795 255.5479 
" clip-path="url(#p26b6d7b898)" style="fill: none; stroke: #000000; stroke-width: 2; stroke-linecap: round"/>
   </g>
   <g id="line2d_32">
    <path d="M 459.84795 255.5479 
L 459.84795 286.1479 
L 459.84795 316.7479 
" clip-path="url(#p26b6d7b898)" style="fill: none; stroke-dasharray: 2,3.3; stroke-dashoffset: 0; stroke: #000000; stroke-width: 2"/>
   </g>
   <g id="line2d_33">
    <path d="M 434.75595 316.7479 
L 434.855868 333.796471 
L 435.155623 335.545043 
L 435.655215 337.293614 
L 436.354644 339.042186 
L 437.253909 340.790757 
L 438.659011 342.976471 
L 440.376358 345.162186 
L 442.40595 347.3479 
L 444.747787 349.533614 
L 447.401868 351.719329 
L 449.74995 353.4679 
L 449.74995 353.4679 
L 453.197134 350.845043 
L 455.726317 348.659329 
L 457.943256 346.473614 
L 459.84795 344.2879 
L 461.440399 342.102186 
L 462.720603 339.916471 
L 463.51995 338.1679 
L 464.11946 336.419329 
L 464.519134 334.670757 
L 464.71897 332.922186 
L 464.74395 332.0479 
L 464.74395 316.7479 
L 464.74395 316.7479 
L 462.29595 318.9511 
L 460.45995 320.34646 
L 458.62395 321.5215 
L 456.78795 322.47622 
L 454.95195 323.21062 
L 453.11595 323.7247 
L 451.27995 324.01846 
L 449.44395 324.0919 
L 447.60795 323.94502 
L 445.77195 323.57782 
L 443.93595 322.9903 
L 442.09995 322.18246 
L 440.26395 321.1543 
L 438.42795 319.90582 
L 436.59195 318.43702 
L 434.75595 316.7479 
L 434.75595 316.7479 
" clip-path="url(#p26b6d7b898)" style="fill: none; stroke: #000000; stroke-width: 2; stroke-linecap: round"/>
   </g>
   <g id="line2d_34">
    <path d="M 439.65195 316.7479 
L 439.65195 320.76262 
" clip-path="url(#p26b6d7b898)" style="fill: none; stroke: #000000; stroke-width: 2; stroke-linecap: round"/>
   </g>
   <g id="line2d_35">
    <path d="M 449.74995 316.7479 
L 449.74995 324.09496 
" clip-path="url(#p26b6d7b898)" style="fill: none; stroke: #000000; stroke-width: 2; stroke-linecap: round"/>
   </g>
   <g id="line2d_36">
    <path d="M 459.84795 316.7479 
L 459.84795 320.76262 
" clip-path="url(#p26b6d7b898)" style="fill: none; stroke: #000000; stroke-width: 2; stroke-linecap: round"/>
   </g>
   <g id="line2d_37">
    <path d="M 449.74995 360.8119 
L 449.74995 364.1779 
" clip-path="url(#p26b6d7b898)" style="fill: none; stroke: #000000; stroke-width: 2; stroke-linecap: round"/>
   </g>
   <g id="line2d_38">
    <path d="M 449.74995 364.1779 
L 449.74995 379.4779 
L 449.74995 394.7779 
" clip-path="url(#p26b6d7b898)" style="fill: none; stroke: #000000; stroke-width: 2; stroke-linecap: round"/>
   </g>
   <g id="line2d_39">
    <path d="M 449.74995 394.7779 
L 465.04995 394.7779 
L 472.69995 394.7779 
" clip-path="url(#p26b6d7b898)" style="fill: none; stroke: #000000; stroke-width: 2; stroke-linecap: round"/>
   </g>
   <g id="patch_11">
    <path d="M 472.69995 392.4829 
L 480.34995 394.7779 
L 472.69995 397.0729 
z
" clip-path="url(#p26b6d7b898)"/>
   </g>
   <g id="line2d_40">
    <path d="M 449.74995 316.7479 
L 449.74995 301.4479 
L 449.74995 286.1479 
" clip-path="url(#p26b6d7b898)" style="fill: none; stroke-dasharray: 2,3.3; stroke-dashoffset: 0; stroke: #000000; stroke-width: 2"/>
   </g>
   <g id="line2d_41">
    <path d="M 439.65195 316.7479 
L 439.65195 301.4479 
L 439.65195 286.1479 
" clip-path="url(#p26b6d7b898)" style="fill: none; stroke-dasharray: 2,3.3; stroke-dashoffset: 0; stroke: #000000; stroke-width: 2"/>
   </g>
   <g id="patch_12">
    <path d="M 31.44795 43.6429 
C 32.056591 43.6429 32.640386 43.401084 33.07076 42.97071 
C 33.501134 42.540336 33.74295 41.956541 33.74295 41.3479 
C 33.74295 40.739259 33.501134 40.155464 33.07076 39.72509 
C 32.640386 39.294716 32.056591 39.0529 31.44795 39.0529 
C 30.839309 39.0529 30.255514 39.294716 29.82514 39.72509 
C 29.394766 40.155464 29.15295 40.739259 29.15295 41.3479 
C 29.15295 41.956541 29.394766 42.540336 29.82514 42.97071 
C 30.255514 43.401084 30.839309 43.6429 31.44795 43.6429 
z
" clip-path="url(#p26b6d7b898)" style="stroke: #000000; stroke-width: 2; stroke-linejoin: miter"/>
   </g>
   <g id="text_1">
    <g clip-path="url(#p26b6d7b898)">
     <!-- from_data -->
     <g transform="translate(13.856309 30.750634)scale(0.125 -0.125)">
      <defs>
       <path id="DejaVuSans-66" d="M 2375 4863 
L 2375 4384 
L 1825 4384 
Q 1516 4384 1395 4259 
Q 1275 4134 1275 3809 
L 1275 3500 
L 2222 3500 
L 2222 3053 
L 1275 3053 
L 1275 0 
L 697 0 
L 697 3053 
L 147 3053 
L 147 3500 
L 697 3500 
L 697 3744 
Q 697 4328 969 4595 
Q 1241 4863 1831 4863 
L 2375 4863 
z
" transform="scale(0.015625)"/>
       <path id="DejaVuSans-72" d="M 2631 2963 
Q 2534 3019 2420 3045 
Q 2306 3072 2169 3072 
Q 1681 3072 1420 2755 
Q 1159 2438 1159 1844 
L 1159 0 
L 581 0 
L 581 3500 
L 1159 3500 
L 1159 2956 
Q 1341 3275 1631 3429 
Q 1922 3584 2338 3584 
Q 2397 3584 2469 3576 
Q 2541 3569 2628 3553 
L 2631 2963 
z
" transform="scale(0.015625)"/>
       <path id="DejaVuSans-6f" d="M 1959 3097 
Q 1497 3097 1228 2736 
Q 959 2375 959 1747 
Q 959 1119 1226 758 
Q 1494 397 1959 397 
Q 2419 397 2687 759 
Q 2956 1122 2956 1747 
Q 2956 2369 2687 2733 
Q 2419 3097 1959 3097 
z
M 1959 3584 
Q 2709 3584 3137 3096 
Q 3566 2609 3566 1747 
Q 3566 888 3137 398 
Q 2709 -91 1959 -91 
Q 1206 -91 779 398 
Q 353 888 353 1747 
Q 353 2609 779 3096 
Q 1206 3584 1959 3584 
z
" transform="scale(0.015625)"/>
       <path id="DejaVuSans-6d" d="M 3328 2828 
Q 3544 3216 3844 3400 
Q 4144 3584 4550 3584 
Q 5097 3584 5394 3201 
Q 5691 2819 5691 2113 
L 5691 0 
L 5113 0 
L 5113 2094 
Q 5113 2597 4934 2840 
Q 4756 3084 4391 3084 
Q 3944 3084 3684 2787 
Q 3425 2491 3425 1978 
L 3425 0 
L 2847 0 
L 2847 2094 
Q 2847 2600 2669 2842 
Q 2491 3084 2119 3084 
Q 1678 3084 1418 2786 
Q 1159 2488 1159 1978 
L 1159 0 
L 581 0 
L 581 3500 
L 1159 3500 
L 1159 2956 
Q 1356 3278 1631 3431 
Q 1906 3584 2284 3584 
Q 2666 3584 2933 3390 
Q 3200 3197 3328 2828 
z
" transform="scale(0.015625)"/>
       <path id="DejaVuSans-5f" d="M 3263 -1063 
L 3263 -1509 
L -63 -1509 
L -63 -1063 
L 3263 -1063 
z
" transform="scale(0.015625)"/>
       <path id="DejaVuSans-64" d="M 2906 2969 
L 2906 4863 
L 3481 4863 
L 3481 0 
L 2906 0 
L 2906 525 
Q 2725 213 2448 61 
Q 2172 -91 1784 -91 
Q 1150 -91 751 415 
Q 353 922 353 1747 
Q 353 2572 751 3078 
Q 1150 3584 1784 3584 
Q 2172 3584 2448 3432 
Q 2725 3281 2906 2969 
z
M 947 1747 
Q 947 1113 1208 752 
Q 1469 391 1925 391 
Q 2381 391 2643 752 
Q 2906 1113 2906 1747 
Q 2906 2381 2643 2742 
Q 2381 3103 1925 3103 
Q 1469 3103 1208 2742 
Q 947 2381 947 1747 
z
" transform="scale(0.015625)"/>
       <path id="DejaVuSans-61" d="M 2194 1759 
Q 1497 1759 1228 1600 
Q 959 1441 959 1056 
Q 959 750 1161 570 
Q 1363 391 1709 391 
Q 2188 391 2477 730 
Q 2766 1069 2766 1631 
L 2766 1759 
L 2194 1759 
z
M 3341 1997 
L 3341 0 
L 2766 0 
L 2766 531 
Q 2569 213 2275 61 
Q 1981 -91 1556 -91 
Q 1019 -91 701 211 
Q 384 513 384 1019 
Q 384 1609 779 1909 
Q 1175 2209 1959 2209 
L 2766 2209 
L 2766 2266 
Q 2766 2663 2505 2880 
Q 2244 3097 1772 3097 
Q 1472 3097 1187 3025 
Q 903 2953 641 2809 
L 641 3341 
Q 956 3463 1253 3523 
Q 1550 3584 1831 3584 
Q 2591 3584 2966 3190 
Q 3341 2797 3341 1997 
z
" transform="scale(0.015625)"/>
       <path id="DejaVuSans-74" d="M 1172 4494 
L 1172 3500 
L 2356 3500 
L 2356 3053 
L 1172 3053 
L 1172 1153 
Q 1172 725 1289 603 
Q 1406 481 1766 481 
L 2356 481 
L 2356 0 
L 1766 0 
Q 1100 0 847 248 
Q 594 497 594 1153 
L 594 3053 
L 172 3053 
L 172 3500 
L 594 3500 
L 594 4494 
L 1172 4494 
z
" transform="scale(0.015625)"/>
      </defs>
      <use xlink:href="#DejaVuSans-66"/>
      <use xlink:href="#DejaVuSans-72" x="35.205078"/>
      <use xlink:href="#DejaVuSans-6f" x="74.068359"/>
      <use xlink:href="#DejaVuSans-6d" x="135.25"/>
      <use xlink:href="#DejaVuSans-5f" x="232.662109"/>
      <use xlink:href="#DejaVuSans-64" x="282.662109"/>
      <use xlink:href="#DejaVuSans-61" x="346.138672"/>
      <use xlink:href="#DejaVuSans-74" x="407.417969"/>
      <use xlink:href="#DejaVuSans-61" x="446.626953"/>
     </g>
    </g>
   </g>
   <g id="text_2">
    <g clip-path="url(#p26b6d7b898)">
     <!-- D -->
     <g transform="translate(280.83795 43.969306)scale(0.095 -0.095)">
      <defs>
       <path id="DejaVuSans-44" d="M 1259 4147 
L 1259 519 
L 2022 519 
Q 2988 519 3436 956 
Q 3884 1394 3884 2338 
Q 3884 3275 3436 3711 
Q 2988 4147 2022 4147 
L 1259 4147 
z
M 628 4666 
L 1925 4666 
Q 3281 4666 3915 4102 
Q 4550 3538 4550 2338 
Q 4550 1131 3912 565 
Q 3275 0 1925 0 
L 628 0 
L 628 4666 
z
" transform="scale(0.015625)"/>
      </defs>
      <use xlink:href="#DejaVuSans-44"/>
     </g>
    </g>
   </g>
   <g id="text_3">
    <g clip-path="url(#p26b6d7b898)">
     <!-- En -->
     <g transform="translate(280.83795 66.919306)scale(0.095 -0.095)">
      <defs>
       <path id="DejaVuSans-45" d="M 628 4666 
L 3578 4666 
L 3578 4134 
L 1259 4134 
L 1259 2753 
L 3481 2753 
L 3481 2222 
L 1259 2222 
L 1259 531 
L 3634 531 
L 3634 0 
L 628 0 
L 628 4666 
z
" transform="scale(0.015625)"/>
       <path id="DejaVuSans-6e" d="M 3513 2113 
L 3513 0 
L 2938 0 
L 2938 2094 
Q 2938 2591 2744 2837 
Q 2550 3084 2163 3084 
Q 1697 3084 1428 2787 
Q 1159 2491 1159 1978 
L 1159 0 
L 581 0 
L 581 3500 
L 1159 3500 
L 1159 2956 
Q 1366 3272 1645 3428 
Q 1925 3584 2291 3584 
Q 2894 3584 3203 3211 
Q 3513 2838 3513 2113 
z
" transform="scale(0.015625)"/>
      </defs>
      <use xlink:href="#DejaVuSans-45"/>
      <use xlink:href="#DejaVuSans-6e" x="63.183594"/>
     </g>
    </g>
   </g>
   <g id="text_4">
    <g clip-path="url(#p26b6d7b898)">
     <!-- Q -->
     <g transform="translate(325.379669 43.969306)scale(0.095 -0.095)">
      <defs>
       <path id="DejaVuSans-51" d="M 2522 4238 
Q 1834 4238 1429 3725 
Q 1025 3213 1025 2328 
Q 1025 1447 1429 934 
Q 1834 422 2522 422 
Q 3209 422 3611 934 
Q 4013 1447 4013 2328 
Q 4013 3213 3611 3725 
Q 3209 4238 2522 4238 
z
M 3406 84 
L 4238 -825 
L 3475 -825 
L 2784 -78 
Q 2681 -84 2626 -87 
Q 2572 -91 2522 -91 
Q 1538 -91 948 567 
Q 359 1225 359 2328 
Q 359 3434 948 4092 
Q 1538 4750 2522 4750 
Q 3503 4750 4090 4092 
Q 4678 3434 4678 2328 
Q 4678 1516 4351 937 
Q 4025 359 3406 84 
z
" transform="scale(0.015625)"/>
      </defs>
      <use xlink:href="#DejaVuSans-51"/>
     </g>
    </g>
   </g>
   <g id="patch_13">
    <path d="M 490.44795 43.6429 
C 491.056591 43.6429 491.640386 43.401084 492.07076 42.97071 
C 492.501134 42.540336 492.74295 41.956541 492.74295 41.3479 
C 492.74295 40.739259 492.501134 40.155464 492.07076 39.72509 
C 491.640386 39.294716 491.056591 39.0529 490.44795 39.0529 
C 489.839309 39.0529 489.255514 39.294716 488.82514 39.72509 
C 488.394766 40.155464 488.15295 40.739259 488.15295 41.3479 
C 488.15295 41.956541 488.394766 42.540336 488.82514 42.97071 
C 489.255514 43.401084 489.839309 43.6429 490.44795 43.6429 
z
" clip-path="url(#p26b6d7b898)" style="stroke: #000000; stroke-width: 2; stroke-linejoin: miter"/>
   </g>
   <g id="text_5">
    <g clip-path="url(#p26b6d7b898)">
     <!-- data_reg_read -->
     <g transform="translate(370.452872 30.750634)scale(0.125 -0.125)">
      <defs>
       <path id="DejaVuSans-65" d="M 3597 1894 
L 3597 1613 
L 953 1613 
Q 991 1019 1311 708 
Q 1631 397 2203 397 
Q 2534 397 2845 478 
Q 3156 559 3463 722 
L 3463 178 
Q 3153 47 2828 -22 
Q 2503 -91 2169 -91 
Q 1331 -91 842 396 
Q 353 884 353 1716 
Q 353 2575 817 3079 
Q 1281 3584 2069 3584 
Q 2775 3584 3186 3129 
Q 3597 2675 3597 1894 
z
M 3022 2063 
Q 3016 2534 2758 2815 
Q 2500 3097 2075 3097 
Q 1594 3097 1305 2825 
Q 1016 2553 972 2059 
L 3022 2063 
z
" transform="scale(0.015625)"/>
       <path id="DejaVuSans-67" d="M 2906 1791 
Q 2906 2416 2648 2759 
Q 2391 3103 1925 3103 
Q 1463 3103 1205 2759 
Q 947 2416 947 1791 
Q 947 1169 1205 825 
Q 1463 481 1925 481 
Q 2391 481 2648 825 
Q 2906 1169 2906 1791 
z
M 3481 434 
Q 3481 -459 3084 -895 
Q 2688 -1331 1869 -1331 
Q 1566 -1331 1297 -1286 
Q 1028 -1241 775 -1147 
L 775 -588 
Q 1028 -725 1275 -790 
Q 1522 -856 1778 -856 
Q 2344 -856 2625 -561 
Q 2906 -266 2906 331 
L 2906 616 
Q 2728 306 2450 153 
Q 2172 0 1784 0 
Q 1141 0 747 490 
Q 353 981 353 1791 
Q 353 2603 747 3093 
Q 1141 3584 1784 3584 
Q 2172 3584 2450 3431 
Q 2728 3278 2906 2969 
L 2906 3500 
L 3481 3500 
L 3481 434 
z
" transform="scale(0.015625)"/>
      </defs>
      <use xlink:href="#DejaVuSans-64"/>
      <use xlink:href="#DejaVuSans-61" x="63.476562"/>
      <use xlink:href="#DejaVuSans-74" x="124.755859"/>
      <use xlink:href="#DejaVuSans-61" x="163.964844"/>
      <use xlink:href="#DejaVuSans-5f" x="225.244141"/>
      <use xlink:href="#DejaVuSans-72" x="275.244141"/>
      <use xlink:href="#DejaVuSans-65" x="314.107422"/>
      <use xlink:href="#DejaVuSans-67" x="375.630859"/>
      <use xlink:href="#DejaVuSans-5f" x="439.107422"/>
      <use xlink:href="#DejaVuSans-72" x="489.107422"/>
      <use xlink:href="#DejaVuSans-65" x="527.970703"/>
      <use xlink:href="#DejaVuSans-61" x="589.494141"/>
      <use xlink:href="#DejaVuSans-64" x="650.773438"/>
     </g>
    </g>
   </g>
   <g id="patch_14">
    <path d="M 31.44795 66.5929 
C 32.056591 66.5929 32.640386 66.351084 33.07076 65.92071 
C 33.501134 65.490336 33.74295 64.906541 33.74295 64.2979 
C 33.74295 63.689259 33.501134 63.105464 33.07076 62.67509 
C 32.640386 62.244716 32.056591 62.0029 31.44795 62.0029 
C 30.839309 62.0029 30.255514 62.244716 29.82514 62.67509 
C 29.394766 63.105464 29.15295 63.689259 29.15295 64.2979 
C 29.15295 64.906541 29.394766 65.490336 29.82514 65.92071 
C 30.255514 66.351084 30.839309 66.5929 31.44795 66.5929 
z
" clip-path="url(#p26b6d7b898)" style="stroke: #000000; stroke-width: 2; stroke-linejoin: miter"/>
   </g>
   <g id="text_6">
    <g clip-path="url(#p26b6d7b898)">
     <!-- from_ready -->
     <g transform="translate(10.16295 53.700634)scale(0.125 -0.125)">
      <defs>
       <path id="DejaVuSans-79" d="M 2059 -325 
Q 1816 -950 1584 -1140 
Q 1353 -1331 966 -1331 
L 506 -1331 
L 506 -850 
L 844 -850 
Q 1081 -850 1212 -737 
Q 1344 -625 1503 -206 
L 1606 56 
L 191 3500 
L 800 3500 
L 1894 763 
L 2988 3500 
L 3597 3500 
L 2059 -325 
z
" transform="scale(0.015625)"/>
      </defs>
      <use xlink:href="#DejaVuSans-66"/>
      <use xlink:href="#DejaVuSans-72" x="35.205078"/>
      <use xlink:href="#DejaVuSans-6f" x="74.068359"/>
      <use xlink:href="#DejaVuSans-6d" x="135.25"/>
      <use xlink:href="#DejaVuSans-5f" x="232.662109"/>
      <use xlink:href="#DejaVuSans-72" x="282.662109"/>
      <use xlink:href="#DejaVuSans-65" x="321.525391"/>
      <use xlink:href="#DejaVuSans-61" x="383.048828"/>
      <use xlink:href="#DejaVuSans-64" x="444.328125"/>
      <use xlink:href="#DejaVuSans-79" x="507.804688"/>
     </g>
    </g>
   </g>
   <g id="patch_15">
    <path d="M 31.44795 257.8429 
C 32.056591 257.8429 32.640386 257.601084 33.07076 257.17071 
C 33.501134 256.740336 33.74295 256.156541 33.74295 255.5479 
C 33.74295 254.939259 33.501134 254.355464 33.07076 253.92509 
C 32.640386 253.494716 32.056591 253.2529 31.44795 253.2529 
C 30.839309 253.2529 30.255514 253.494716 29.82514 253.92509 
C 29.394766 254.355464 29.15295 254.939259 29.15295 255.5479 
C 29.15295 256.156541 29.394766 256.740336 29.82514 257.17071 
C 30.255514 257.601084 30.839309 257.8429 31.44795 257.8429 
z
" clip-path="url(#p26b6d7b898)" style="stroke: #000000; stroke-width: 2; stroke-linejoin: miter"/>
   </g>
   <g id="text_7">
    <g clip-path="url(#p26b6d7b898)">
     <!-- from_valid -->
     <g transform="translate(12.964708 244.950634)scale(0.125 -0.125)">
      <defs>
       <path id="DejaVuSans-76" d="M 191 3500 
L 800 3500 
L 1894 563 
L 2988 3500 
L 3597 3500 
L 2284 0 
L 1503 0 
L 191 3500 
z
" transform="scale(0.015625)"/>
       <path id="DejaVuSans-6c" d="M 603 4863 
L 1178 4863 
L 1178 0 
L 603 0 
L 603 4863 
z
" transform="scale(0.015625)"/>
       <path id="DejaVuSans-69" d="M 603 3500 
L 1178 3500 
L 1178 0 
L 603 0 
L 603 3500 
z
M 603 4863 
L 1178 4863 
L 1178 4134 
L 603 4134 
L 603 4863 
z
" transform="scale(0.015625)"/>
      </defs>
      <use xlink:href="#DejaVuSans-66"/>
      <use xlink:href="#DejaVuSans-72" x="35.205078"/>
      <use xlink:href="#DejaVuSans-6f" x="74.068359"/>
      <use xlink:href="#DejaVuSans-6d" x="135.25"/>
      <use xlink:href="#DejaVuSans-5f" x="232.662109"/>
      <use xlink:href="#DejaVuSans-76" x="282.662109"/>
      <use xlink:href="#DejaVuSans-61" x="341.841797"/>
      <use xlink:href="#DejaVuSans-6c" x="403.121094"/>
      <use xlink:href="#DejaVuSans-69" x="430.904297"/>
      <use xlink:href="#DejaVuSans-64" x="458.6875"/>
     </g>
    </g>
   </g>
   <g id="text_8">
    <g clip-path="url(#p26b6d7b898)">
     <!-- D -->
     <g transform="translate(280.83795 258.169306)scale(0.095 -0.095)">
      <use xlink:href="#DejaVuSans-44"/>
     </g>
    </g>
   </g>
   <g id="text_9">
    <g clip-path="url(#p26b6d7b898)">
     <!-- En -->
     <g transform="translate(280.83795 281.119306)scale(0.095 -0.095)">
      <use xlink:href="#DejaVuSans-45"/>
      <use xlink:href="#DejaVuSans-6e" x="63.183594"/>
     </g>
    </g>
   </g>
   <g id="text_10">
    <g clip-path="url(#p26b6d7b898)">
     <!-- Q -->
     <g transform="translate(325.379669 258.169306)scale(0.095 -0.095)">
      <use xlink:href="#DejaVuSans-51"/>
     </g>
    </g>
   </g>
   <g id="patch_16">
    <path d="M 490.44795 257.8429 
C 491.056591 257.8429 491.640386 257.601084 492.07076 257.17071 
C 492.501134 256.740336 492.74295 256.156541 492.74295 255.5479 
C 492.74295 254.939259 492.501134 254.355464 492.07076 253.92509 
C 491.640386 253.494716 491.056591 253.2529 490.44795 253.2529 
C 489.839309 253.2529 489.255514 253.494716 488.82514 253.92509 
C 488.394766 254.355464 488.15295 254.939259 488.15295 255.5479 
C 488.15295 256.156541 488.394766 256.740336 488.82514 257.17071 
C 489.255514 257.601084 489.839309 257.8429 490.44795 257.8429 
z
" clip-path="url(#p26b6d7b898)" style="stroke: #000000; stroke-width: 2; stroke-linejoin: miter"/>
   </g>
   <g id="text_11">
    <g clip-path="url(#p26b6d7b898)">
     <!-- valid_reg_read -->
     <g transform="translate(369.56127 244.950634)scale(0.125 -0.125)">
      <use xlink:href="#DejaVuSans-76"/>
      <use xlink:href="#DejaVuSans-61" x="59.179688"/>
      <use xlink:href="#DejaVuSans-6c" x="120.458984"/>
      <use xlink:href="#DejaVuSans-69" x="148.242188"/>
      <use xlink:href="#DejaVuSans-64" x="176.025391"/>
      <use xlink:href="#DejaVuSans-5f" x="239.501953"/>
      <use xlink:href="#DejaVuSans-72" x="289.501953"/>
      <use xlink:href="#DejaVuSans-65" x="328.365234"/>
      <use xlink:href="#DejaVuSans-67" x="389.888672"/>
      <use xlink:href="#DejaVuSans-5f" x="453.365234"/>
      <use xlink:href="#DejaVuSans-72" x="503.365234"/>
      <use xlink:href="#DejaVuSans-65" x="542.228516"/>
      <use xlink:href="#DejaVuSans-61" x="603.751953"/>
      <use xlink:href="#DejaVuSans-64" x="665.03125"/>
     </g>
    </g>
   </g>
   <g id="text_12">
    <g clip-path="url(#p26b6d7b898)">
     <!-- from_ready_src -->
     <g transform="translate(427.464356 137.850634)scale(0.125 -0.125)">
      <defs>
       <path id="DejaVuSans-73" d="M 2834 3397 
L 2834 2853 
Q 2591 2978 2328 3040 
Q 2066 3103 1784 3103 
Q 1356 3103 1142 2972 
Q 928 2841 928 2578 
Q 928 2378 1081 2264 
Q 1234 2150 1697 2047 
L 1894 2003 
Q 2506 1872 2764 1633 
Q 3022 1394 3022 966 
Q 3022 478 2636 193 
Q 2250 -91 1575 -91 
Q 1294 -91 989 -36 
Q 684 19 347 128 
L 347 722 
Q 666 556 975 473 
Q 1284 391 1588 391 
Q 1994 391 2212 530 
Q 2431 669 2431 922 
Q 2431 1156 2273 1281 
Q 2116 1406 1581 1522 
L 1381 1569 
Q 847 1681 609 1914 
Q 372 2147 372 2553 
Q 372 3047 722 3315 
Q 1072 3584 1716 3584 
Q 2034 3584 2315 3537 
Q 2597 3491 2834 3397 
z
" transform="scale(0.015625)"/>
       <path id="DejaVuSans-63" d="M 3122 3366 
L 3122 2828 
Q 2878 2963 2633 3030 
Q 2388 3097 2138 3097 
Q 1578 3097 1268 2742 
Q 959 2388 959 1747 
Q 959 1106 1268 751 
Q 1578 397 2138 397 
Q 2388 397 2633 464 
Q 2878 531 3122 666 
L 3122 134 
Q 2881 22 2623 -34 
Q 2366 -91 2075 -91 
Q 1284 -91 818 406 
Q 353 903 353 1747 
Q 353 2603 823 3093 
Q 1294 3584 2113 3584 
Q 2378 3584 2631 3529 
Q 2884 3475 3122 3366 
z
" transform="scale(0.015625)"/>
      </defs>
      <use xlink:href="#DejaVuSans-66"/>
      <use xlink:href="#DejaVuSans-72" x="35.205078"/>
      <use xlink:href="#DejaVuSans-6f" x="74.068359"/>
      <use xlink:href="#DejaVuSans-6d" x="135.25"/>
      <use xlink:href="#DejaVuSans-5f" x="232.662109"/>
      <use xlink:href="#DejaVuSans-72" x="282.662109"/>
      <use xlink:href="#DejaVuSans-65" x="321.525391"/>
      <use xlink:href="#DejaVuSans-61" x="383.048828"/>
      <use xlink:href="#DejaVuSans-64" x="444.328125"/>
      <use xlink:href="#DejaVuSans-79" x="507.804688"/>
      <use xlink:href="#DejaVuSans-5f" x="566.984375"/>
      <use xlink:href="#DejaVuSans-73" x="616.984375"/>
      <use xlink:href="#DejaVuSans-72" x="669.083984"/>
      <use xlink:href="#DejaVuSans-63" x="707.947266"/>
     </g>
    </g>
   </g>
   <g id="patch_17">
    <path d="M 352.74795 257.8429 
C 353.356591 257.8429 353.940386 257.601084 354.37076 257.17071 
C 354.801134 256.740336 355.04295 256.156541 355.04295 255.5479 
C 355.04295 254.939259 354.801134 254.355464 354.37076 253.92509 
C 353.940386 253.494716 353.356591 253.2529 352.74795 253.2529 
C 352.139309 253.2529 351.555514 253.494716 351.12514 253.92509 
C 350.694766 254.355464 350.45295 254.939259 350.45295 255.5479 
C 350.45295 256.156541 350.694766 256.740336 351.12514 257.17071 
C 351.555514 257.601084 352.139309 257.8429 352.74795 257.8429 
z
" clip-path="url(#p26b6d7b898)" style="stroke: #000000; stroke-width: 2; stroke-linejoin: miter"/>
   </g>
   <g id="text_13">
    <g clip-path="url(#p26b6d7b898)">
     <!-- not_valid -->
     <g transform="translate(364.98795 212.923291)scale(0.125 -0.125)">
      <use xlink:href="#DejaVuSans-6e"/>
      <use xlink:href="#DejaVuSans-6f" x="63.378906"/>
      <use xlink:href="#DejaVuSans-74" x="124.560547"/>
      <use xlink:href="#DejaVuSans-5f" x="163.769531"/>
      <use xlink:href="#DejaVuSans-76" x="213.769531"/>
      <use xlink:href="#DejaVuSans-61" x="272.949219"/>
      <use xlink:href="#DejaVuSans-6c" x="334.228516"/>
      <use xlink:href="#DejaVuSans-69" x="362.011719"/>
      <use xlink:href="#DejaVuSans-64" x="389.794922"/>
     </g>
    </g>
   </g>
   <g id="patch_18">
    <path d="M 187.50795 158.3929 
C 188.116591 158.3929 188.700386 158.151084 189.13076 157.72071 
C 189.561134 157.290336 189.80295 156.706541 189.80295 156.0979 
C 189.80295 155.489259 189.561134 154.905464 189.13076 154.47509 
C 188.700386 154.044716 188.116591 153.8029 187.50795 153.8029 
C 186.899309 153.8029 186.315514 154.044716 185.88514 154.47509 
C 185.454766 154.905464 185.21295 155.489259 185.21295 156.0979 
C 185.21295 156.706541 185.454766 157.290336 185.88514 157.72071 
C 186.315514 158.151084 186.899309 158.3929 187.50795 158.3929 
z
" clip-path="url(#p26b6d7b898)" style="stroke: #000000; stroke-width: 2; stroke-linejoin: miter"/>
   </g>
   <g id="text_14">
    <g clip-path="url(#p26b6d7b898)">
     <!--     valid_load_en -->
     <g transform="translate(181.930372 147.795634)scale(0.125 -0.125)">
      <defs>
       <path id="DejaVuSans-20" transform="scale(0.015625)"/>
      </defs>
      <use xlink:href="#DejaVuSans-20"/>
      <use xlink:href="#DejaVuSans-20" x="31.787109"/>
      <use xlink:href="#DejaVuSans-20" x="63.574219"/>
      <use xlink:href="#DejaVuSans-20" x="95.361328"/>
      <use xlink:href="#DejaVuSans-76" x="127.148438"/>
      <use xlink:href="#DejaVuSans-61" x="186.328125"/>
      <use xlink:href="#DejaVuSans-6c" x="247.607422"/>
      <use xlink:href="#DejaVuSans-69" x="275.390625"/>
      <use xlink:href="#DejaVuSans-64" x="303.173828"/>
      <use xlink:href="#DejaVuSans-5f" x="366.650391"/>
      <use xlink:href="#DejaVuSans-6c" x="416.650391"/>
      <use xlink:href="#DejaVuSans-6f" x="444.433594"/>
      <use xlink:href="#DejaVuSans-61" x="505.615234"/>
      <use xlink:href="#DejaVuSans-64" x="566.894531"/>
      <use xlink:href="#DejaVuSans-5f" x="630.371094"/>
      <use xlink:href="#DejaVuSans-65" x="680.371094"/>
      <use xlink:href="#DejaVuSans-6e" x="741.894531"/>
     </g>
    </g>
   </g>
   <g id="patch_19">
    <path d="M 179.85795 66.5929 
C 180.466591 66.5929 181.050386 66.351084 181.48076 65.92071 
C 181.911134 65.490336 182.15295 64.906541 182.15295 64.2979 
C 182.15295 63.689259 181.911134 63.105464 181.48076 62.67509 
C 181.050386 62.244716 180.466591 62.0029 179.85795 62.0029 
C 179.249309 62.0029 178.665514 62.244716 178.23514 62.67509 
C 177.804766 63.105464 177.56295 63.689259 177.56295 64.2979 
C 177.56295 64.906541 177.804766 65.490336 178.23514 65.92071 
C 178.665514 66.351084 179.249309 66.5929 179.85795 66.5929 
z
" clip-path="url(#p26b6d7b898)" style="stroke: #000000; stroke-width: 2; stroke-linejoin: miter"/>
   </g>
   <g id="patch_20">
    <path d="M 172.20795 257.8429 
C 172.816591 257.8429 173.400386 257.601084 173.83076 257.17071 
C 174.261134 256.740336 174.50295 256.156541 174.50295 255.5479 
C 174.50295 254.939259 174.261134 254.355464 173.83076 253.92509 
C 173.400386 253.494716 172.816591 253.2529 172.20795 253.2529 
C 171.599309 253.2529 171.015514 253.494716 170.58514 253.92509 
C 170.154766 254.355464 169.91295 254.939259 169.91295 255.5479 
C 169.91295 256.156541 170.154766 256.740336 170.58514 257.17071 
C 171.015514 257.601084 171.599309 257.8429 172.20795 257.8429 
z
" clip-path="url(#p26b6d7b898)" style="stroke: #000000; stroke-width: 2; stroke-linejoin: miter"/>
   </g>
   <g id="patch_21">
    <path d="M 459.84795 257.8429 
C 460.456591 257.8429 461.040386 257.601084 461.47076 257.17071 
C 461.901134 256.740336 462.14295 256.156541 462.14295 255.5479 
C 462.14295 254.939259 461.901134 254.355464 461.47076 253.92509 
C 461.040386 253.494716 460.456591 253.2529 459.84795 253.2529 
C 459.239309 253.2529 458.655514 253.494716 458.22514 253.92509 
C 457.794766 254.355464 457.55295 254.939259 457.55295 255.5479 
C 457.55295 256.156541 457.794766 256.740336 458.22514 257.17071 
C 458.655514 257.601084 459.239309 257.8429 459.84795 257.8429 
z
" clip-path="url(#p26b6d7b898)" style="stroke-dasharray: 2,3.3; stroke-dashoffset: 0; stroke: #000000; stroke-width: 2; stroke-linejoin: miter"/>
   </g>
   <g id="patch_22">
    <path d="M 480.34995 397.0729 
C 480.958591 397.0729 481.542386 396.831084 481.97276 396.40071 
C 482.403134 395.970336 482.64495 395.386541 482.64495 394.7779 
C 482.64495 394.169259 482.403134 393.585464 481.97276 393.15509 
C 481.542386 392.724716 480.958591 392.4829 480.34995 392.4829 
C 479.741309 392.4829 479.157514 392.724716 478.72714 393.15509 
C 478.296766 393.585464 478.05495 394.169259 478.05495 394.7779 
C 478.05495 395.386541 478.296766 395.970336 478.72714 396.40071 
C 479.157514 396.831084 479.741309 397.0729 480.34995 397.0729 
z
" clip-path="url(#p26b6d7b898)" style="stroke: #000000; stroke-width: 2; stroke-linejoin: miter"/>
   </g>
   <g id="text_15">
    <g clip-path="url(#p26b6d7b898)">
     <!-- idle -->
     <g transform="translate(454.911317 384.528291)scale(0.125 -0.125)">
      <use xlink:href="#DejaVuSans-69"/>
      <use xlink:href="#DejaVuSans-64" x="27.783203"/>
      <use xlink:href="#DejaVuSans-6c" x="91.259766"/>
      <use xlink:href="#DejaVuSans-65" x="119.042969"/>
     </g>
    </g>
   </g>
  </g>
 </g>
 <defs>
  <clipPath id="p26b6d7b898">
   <rect x="7.2" y="7.2" width="522.77975" height="395.2279"/>
  </clipPath>
 </defs>
</svg>
