<?xml version="1.0" encoding="utf-8" standalone="no"?>
<!DOCTYPE svg PUBLIC "-//W3C//DTD SVG 1.1//EN"
  "http://www.w3.org/Graphics/SVG/1.1/DTD/svg11.dtd">
<svg xmlns:xlink="http://www.w3.org/1999/xlink" width="1108.078pt" height="494.208pt" viewBox="0 0 1108.078 494.208" xmlns="http://www.w3.org/2000/svg" version="1.1">
 <metadata>
  <rdf:RDF xmlns:dc="http://purl.org/dc/elements/1.1/" xmlns:cc="http://creativecommons.org/ns#" xmlns:rdf="http://www.w3.org/1999/02/22-rdf-syntax-ns#">
   <cc:Work>
    <dc:type rdf:resource="http://purl.org/dc/dcmitype/StillImage"/>
    <dc:date>2022-11-02T16:15:58.481457</dc:date>
    <dc:format>image/svg+xml</dc:format>
    <dc:creator>
     <cc:Agent>
      <dc:title>Matplotlib v3.5.2, https://matplotlib.org/</dc:title>
     </cc:Agent>
    </dc:creator>
   </cc:Work>
  </rdf:RDF>
 </metadata>
 <defs>
  <style type="text/css">*{stroke-linejoin: round; stroke-linecap: butt}</style>
 </defs>
 <g id="figure_1">
  <g id="patch_1">
   <path d="M 0 494.208 
L 1108.078 494.208 
L 1108.078 0 
L 0 0 
L 0 494.208 
z
" style="fill: none"/>
  </g>
  <g id="axes_1">
   <g id="patch_2">
    <path d="M 443.78295 421.83 
C 444.756776 421.83 445.690847 421.443095 446.379446 420.754496 
C 447.068045 420.065897 447.45495 419.131826 447.45495 418.158 
C 447.45495 417.184174 447.068045 416.250103 446.379446 415.561504 
C 445.690847 414.872905 444.756776 414.486 443.78295 414.486 
C 442.809124 414.486 441.875053 414.872905 441.186454 415.561504 
C 440.497855 416.250103 440.11095 417.184174 440.11095 418.158 
C 440.11095 419.131826 440.497855 420.065897 441.186454 420.754496 
C 441.875053 421.443095 442.809124 421.83 443.78295 421.83 
L 443.78295 421.83 
z
" clip-path="url(#p5f7e79117f)" style="fill: none; stroke: #000000; stroke-width: 2; stroke-linejoin: miter"/>
   </g>
   <g id="patch_3">
    <path d="M 879.83295 358.182 
C 880.806776 358.182 881.740847 357.795095 882.429446 357.106496 
C 883.118045 356.417897 883.50495 355.483826 883.50495 354.51 
C 883.50495 353.536174 883.118045 352.602103 882.429446 351.913504 
C 881.740847 351.224905 880.806776 350.838 879.83295 350.838 
C 878.859124 350.838 877.925053 351.224905 877.236454 351.913504 
C 876.547855 352.602103 876.16095 353.536174 876.16095 354.51 
C 876.16095 355.483826 876.547855 356.417897 877.236454 357.106496 
C 877.925053 357.795095 878.859124 358.182 879.83295 358.182 
L 879.83295 358.182 
z
" clip-path="url(#p5f7e79117f)" style="fill: none; stroke: #000000; stroke-width: 2; stroke-linejoin: miter"/>
   </g>
   <g id="patch_4">
    <path d="M 1031.14995 375.624 
C 1032.123776 375.624 1033.057847 375.237095 1033.746446 374.548496 
C 1034.435045 373.859897 1034.82195 372.925826 1034.82195 371.952 
C 1034.82195 370.978174 1034.435045 370.044103 1033.746446 369.355504 
C 1033.057847 368.666905 1032.123776 368.28 1031.14995 368.28 
C 1030.176124 368.28 1029.242053 368.666905 1028.553454 369.355504 
C 1027.864855 370.044103 1027.47795 370.978174 1027.47795 371.952 
C 1027.47795 372.925826 1027.864855 373.859897 1028.553454 374.548496 
C 1029.242053 375.237095 1030.176124 375.624 1031.14995 375.624 
L 1031.14995 375.624 
z
" clip-path="url(#p5f7e79117f)" style="fill: none; stroke: #000000; stroke-width: 2; stroke-linejoin: miter"/>
   </g>
   <g id="line2d_1">
    <path d="M 31.44795 48.51 
L 46.74795 48.51 
L 54.39795 48.51 
" clip-path="url(#p5f7e79117f)" style="fill: none; stroke: #000000; stroke-width: 2; stroke-linecap: round"/>
   </g>
   <g id="patch_5">
    <path d="M 54.39795 46.215 
L 62.04795 48.51 
L 54.39795 50.805 
z
" clip-path="url(#p5f7e79117f)"/>
   </g>
   <g id="line2d_2">
    <path d="M 62.04795 48.51 
L 184.44795 48.51 
L 306.84795 48.51 
" clip-path="url(#p5f7e79117f)" style="fill: none; stroke: #000000; stroke-width: 2; stroke-linecap: round"/>
   </g>
   <g id="line2d_3">
    <path d="M 306.84795 117.36 
L 368.04795 117.36 
L 368.04795 25.56 
L 306.84795 25.56 
L 306.84795 117.36 
" clip-path="url(#p5f7e79117f)" style="fill: none; stroke: #000000; stroke-width: 2; stroke-linecap: round"/>
   </g>
   <g id="line2d_4">
    <path d="M 306.84795 89.055 
L 317.55795 94.41 
L 306.84795 99.765 
" clip-path="url(#p5f7e79117f)" style="fill: none; stroke: #000000; stroke-width: 2; stroke-linecap: round"/>
   </g>
   <g id="line2d_5">
    <path d="M 368.04795 48.51 
L 521.04795 48.51 
L 674.04795 48.51 
" clip-path="url(#p5f7e79117f)" style="fill: none; stroke: #000000; stroke-width: 2; stroke-linecap: round"/>
   </g>
   <g id="line2d_6">
    <path d="M 674.04795 48.51 
L 674.04795 71.46 
L 674.04795 94.41 
" clip-path="url(#p5f7e79117f)" style="fill: none; stroke: #000000; stroke-width: 2; stroke-linecap: round"/>
   </g>
   <g id="line2d_7">
    <path d="M 674.04795 94.41 
L 689.34795 94.41 
L 704.64795 94.41 
" clip-path="url(#p5f7e79117f)" style="fill: none; stroke: #000000; stroke-width: 2; stroke-linecap: round"/>
   </g>
   <g id="line2d_8">
    <path d="M 704.64795 163.26 
L 765.84795 163.26 
L 765.84795 71.46 
L 704.64795 71.46 
L 704.64795 163.26 
" clip-path="url(#p5f7e79117f)" style="fill: none; stroke: #000000; stroke-width: 2; stroke-linecap: round"/>
   </g>
   <g id="line2d_9">
    <path d="M 704.64795 134.955 
L 715.35795 140.31 
L 704.64795 145.665 
" clip-path="url(#p5f7e79117f)" style="fill: none; stroke: #000000; stroke-width: 2; stroke-linecap: round"/>
   </g>
   <g id="line2d_10">
    <path d="M 765.84795 94.41 
L 872.94795 94.41 
L 980.04795 94.41 
" clip-path="url(#p5f7e79117f)" style="fill: none; stroke: #000000; stroke-width: 2; stroke-linecap: round"/>
   </g>
   <g id="line2d_11">
    <path d="M 995.34795 132.66 
L 1025.94795 102.06 
L 1025.94795 40.86 
L 995.34795 10.26 
L 995.34795 132.66 
" clip-path="url(#p5f7e79117f)" style="fill: none; stroke: #000000; stroke-width: 2; stroke-linecap: round"/>
   </g>
   <g id="line2d_12">
    <path d="M 995.34795 48.51 
L 980.04795 48.51 
" clip-path="url(#p5f7e79117f)" style="fill: none; stroke: #000000; stroke-width: 2; stroke-linecap: round"/>
   </g>
   <g id="line2d_13">
    <path d="M 995.34795 94.41 
L 980.04795 94.41 
" clip-path="url(#p5f7e79117f)" style="fill: none; stroke: #000000; stroke-width: 2; stroke-linecap: round"/>
   </g>
   <g id="line2d_14">
    <path d="M 1025.94795 71.46 
L 1041.24795 71.46 
" clip-path="url(#p5f7e79117f)" style="fill: none; stroke: #000000; stroke-width: 2; stroke-linecap: round"/>
   </g>
   <g id="line2d_15">
    <path d="M 1010.64795 117.36 
L 1010.64795 132.66 
" clip-path="url(#p5f7e79117f)" style="fill: none; stroke: #000000; stroke-width: 2; stroke-linecap: round"/>
   </g>
   <g id="line2d_16">
    <path d="M 674.04795 48.51 
L 827.04795 48.51 
L 980.04795 48.51 
" clip-path="url(#p5f7e79117f)" style="fill: none; stroke: #000000; stroke-width: 2; stroke-linecap: round"/>
   </g>
   <g id="line2d_17">
    <path d="M 1041.24795 71.46 
L 1056.54795 71.46 
L 1064.19795 71.46 
" clip-path="url(#p5f7e79117f)" style="fill: none; stroke: #000000; stroke-width: 2; stroke-linecap: round"/>
   </g>
   <g id="patch_6">
    <path d="M 1064.19795 69.165 
L 1071.84795 71.46 
L 1064.19795 73.755 
z
" clip-path="url(#p5f7e79117f)"/>
   </g>
   <g id="line2d_18">
    <path d="M 31.44795 201.51 
L 46.74795 201.51 
L 54.39795 201.51 
" clip-path="url(#p5f7e79117f)" style="fill: none; stroke: #000000; stroke-width: 2; stroke-linecap: round"/>
   </g>
   <g id="patch_7">
    <path d="M 54.39795 199.215 
L 62.04795 201.51 
L 54.39795 203.805 
z
" clip-path="url(#p5f7e79117f)"/>
   </g>
   <g id="line2d_19">
    <path d="M 62.04795 201.51 
L 184.44795 201.51 
L 306.84795 201.51 
" clip-path="url(#p5f7e79117f)" style="fill: none; stroke: #000000; stroke-width: 2; stroke-linecap: round"/>
   </g>
   <g id="line2d_20">
    <path d="M 306.84795 270.36 
L 368.04795 270.36 
L 368.04795 178.56 
L 306.84795 178.56 
L 306.84795 270.36 
" clip-path="url(#p5f7e79117f)" style="fill: none; stroke: #000000; stroke-width: 2; stroke-linecap: round"/>
   </g>
   <g id="line2d_21">
    <path d="M 306.84795 242.055 
L 317.55795 247.41 
L 306.84795 252.765 
" clip-path="url(#p5f7e79117f)" style="fill: none; stroke: #000000; stroke-width: 2; stroke-linecap: round"/>
   </g>
   <g id="line2d_22">
    <path d="M 368.04795 201.51 
L 444.54795 201.51 
L 521.04795 201.51 
" clip-path="url(#p5f7e79117f)" style="fill: none; stroke: #000000; stroke-width: 2; stroke-linecap: round"/>
   </g>
   <g id="line2d_23">
    <path d="M 306.84795 224.46 
L 264.77295 224.46 
L 222.69795 224.46 
" clip-path="url(#p5f7e79117f)" style="fill: none; stroke: #000000; stroke-width: 2; stroke-linecap: round"/>
   </g>
   <g id="line2d_24">
    <path d="M 175.26795 209.466 
L 177.47115 211.914 
L 178.86651 213.75 
L 180.04155 215.586 
L 180.99627 217.422 
L 181.73067 219.258 
L 182.24475 221.094 
L 182.53851 222.93 
L 182.61195 224.766 
L 182.46507 226.602 
L 182.09787 228.438 
L 181.51035 230.274 
L 180.70251 232.11 
L 179.67435 233.946 
L 178.42587 235.782 
L 176.95707 237.618 
L 175.26795 239.454 
L 175.26795 239.454 
L 192.316521 239.354082 
L 194.065093 239.054327 
L 195.813664 238.554735 
L 197.562236 237.855306 
L 199.310807 236.956041 
L 201.496521 235.550939 
L 203.682236 233.833592 
L 205.86795 231.804 
L 208.053664 229.462163 
L 210.239379 226.808082 
L 211.98795 224.46 
L 211.98795 224.46 
L 209.365093 221.012816 
L 207.179379 218.483633 
L 204.993664 216.266694 
L 202.80795 214.362 
L 200.622236 212.769551 
L 198.436521 211.489347 
L 196.68795 210.69 
L 194.939379 210.09049 
L 193.190807 209.690816 
L 191.442236 209.49098 
L 190.56795 209.466 
L 175.26795 209.466 
L 175.26795 209.466 
" clip-path="url(#p5f7e79117f)" style="fill: none; stroke: #000000; stroke-width: 2; stroke-linecap: round"/>
   </g>
   <g id="line2d_25">
    <path d="M 180.70251 216.81 
L 164.55795 216.81 
" clip-path="url(#p5f7e79117f)" style="fill: none; stroke: #000000; stroke-width: 2; stroke-linecap: round"/>
   </g>
   <g id="line2d_26">
    <path d="M 180.70251 232.11 
L 164.55795 232.11 
" clip-path="url(#p5f7e79117f)" style="fill: none; stroke: #000000; stroke-width: 2; stroke-linecap: round"/>
   </g>
   <g id="line2d_27">
    <path d="M 222.69795 224.46 
L 211.98795 224.46 
" clip-path="url(#p5f7e79117f)" style="fill: none; stroke: #000000; stroke-width: 2; stroke-linecap: round"/>
   </g>
   <g id="line2d_28">
    <path d="M 62.04795 354.51 
L 46.74795 354.51 
L 39.09795 354.51 
" clip-path="url(#p5f7e79117f)" style="fill: none; stroke: #000000; stroke-width: 2; stroke-linecap: round"/>
   </g>
   <g id="patch_8">
    <path d="M 39.09795 356.805 
L 31.44795 354.51 
L 39.09795 352.215 
z
" clip-path="url(#p5f7e79117f)"/>
   </g>
   <g id="line2d_29">
    <path d="M 31.44795 354.51 
L 46.74795 354.51 
L 62.04795 354.51 
" clip-path="url(#p5f7e79117f)" style="fill: none; stroke: #000000; stroke-width: 2; stroke-linecap: round"/>
   </g>
   <g id="line2d_30">
    <path d="M 62.04795 354.51 
L 62.04795 385.11 
L 62.04795 415.71 
" clip-path="url(#p5f7e79117f)" style="fill: none; stroke: #000000; stroke-width: 2; stroke-linecap: round"/>
   </g>
   <g id="line2d_31">
    <path d="M 62.04795 415.71 
L 77.34795 415.71 
L 92.64795 415.71 
" clip-path="url(#p5f7e79117f)" style="fill: none; stroke: #000000; stroke-width: 2; stroke-linecap: round"/>
   </g>
   <g id="line2d_32">
    <path d="M 123.24795 423.36 
L 124.228224 423.328565 
L 125.204471 423.234387 
L 126.172677 423.077855 
L 127.128865 422.859611 
L 128.069106 422.580553 
L 128.989535 422.241826 
L 129.886371 421.844824 
L 130.755929 421.391176 
L 131.594634 420.882748 
L 132.399041 420.321628 
L 133.165844 419.710123 
L 133.891893 419.050745 
L 134.574203 418.346204 
L 135.209972 417.599394 
L 135.796585 416.813385 
L 136.331634 415.991406 
L 136.812919 415.136836 
L 137.238463 414.253185 
L 137.606517 413.344085 
L 137.915568 412.413272 
L 138.164347 411.46457 
L 138.351831 410.501878 
L 138.47725 409.529152 
L 138.540089 408.550389 
L 138.540089 407.569611 
L 138.47725 406.590848 
L 138.351831 405.618122 
L 138.164347 404.65543 
L 137.915568 403.706728 
L 137.606517 402.775915 
L 137.238463 401.866815 
L 136.812919 400.983164 
L 136.331634 400.128594 
L 135.796585 399.306615 
L 135.209972 398.520606 
L 134.574203 397.773796 
L 133.891893 397.069255 
L 133.165844 396.409877 
L 132.399041 395.798372 
L 131.594634 395.237252 
L 130.755929 394.728824 
L 129.886371 394.275176 
L 128.989535 393.878174 
L 128.069106 393.539447 
L 127.128865 393.260389 
L 126.172677 393.042145 
L 125.204471 392.885613 
L 124.228224 392.791435 
L 123.24795 392.76 
L 123.24795 392.76 
L 103.35795 392.76 
L 103.35795 408.06 
L 103.35795 423.36 
L 123.24795 423.36 
" clip-path="url(#p5f7e79117f)" style="fill: none; stroke: #000000; stroke-width: 2; stroke-linecap: round"/>
   </g>
   <g id="line2d_33">
    <path d="M 92.64795 415.71 
L 103.35795 415.71 
" clip-path="url(#p5f7e79117f)" style="fill: none; stroke: #000000; stroke-width: 2; stroke-linecap: round"/>
   </g>
   <g id="line2d_34">
    <path d="M 92.64795 400.41 
L 103.35795 400.41 
" clip-path="url(#p5f7e79117f)" style="fill: none; stroke: #000000; stroke-width: 2; stroke-linecap: round"/>
   </g>
   <g id="line2d_35">
    <path d="M 138.54795 408.06 
L 149.25795 408.06 
" clip-path="url(#p5f7e79117f)" style="fill: none; stroke: #000000; stroke-width: 2; stroke-linecap: round"/>
   </g>
   <g id="line2d_36">
    <path d="M 149.25795 408.06 
L 149.25795 71.46 
L 306.84795 71.46 
" clip-path="url(#p5f7e79117f)" style="fill: none; stroke: #000000; stroke-width: 2; stroke-linecap: round"/>
   </g>
   <g id="line2d_37">
    <path d="M 149.25795 408.06 
L 149.25795 216.81 
L 164.55795 216.81 
" clip-path="url(#p5f7e79117f)" style="fill: none; stroke: #000000; stroke-width: 2; stroke-linecap: round"/>
   </g>
   <g id="line2d_38">
    <path d="M 84.99795 201.51 
L 84.99795 400.41 
L 92.64795 400.41 
" clip-path="url(#p5f7e79117f)" style="fill: none; stroke: #000000; stroke-width: 2; stroke-linecap: round"/>
   </g>
   <g id="line2d_39">
    <path d="M 398.64795 201.51 
L 398.64795 247.41 
L 398.64795 293.31 
" clip-path="url(#p5f7e79117f)" style="fill: none; stroke: #000000; stroke-width: 2; stroke-linecap: round"/>
   </g>
   <g id="line2d_40">
    <path d="M 398.64795 293.31 
L 383.34795 293.31 
L 368.04795 293.31 
" clip-path="url(#p5f7e79117f)" style="fill: none; stroke: #000000; stroke-width: 2; stroke-linecap: round"/>
   </g>
   <g id="line2d_41">
    <path d="M 337.44795 288.108 
L 336.467676 288.139435 
L 335.491429 288.233613 
L 334.523223 288.390145 
L 333.567035 288.608389 
L 332.626794 288.887447 
L 331.706365 289.226174 
L 330.809529 289.623176 
L 329.939971 290.076824 
L 329.101266 290.585252 
L 328.296859 291.146372 
L 327.530056 291.757877 
L 326.804007 292.417255 
L 326.121697 293.121796 
L 325.485928 293.868606 
L 324.899315 294.654615 
L 324.364266 295.476594 
L 323.882981 296.331164 
L 323.457437 297.214815 
L 323.089383 298.123915 
L 322.780332 299.054728 
L 322.531553 300.00343 
L 322.344069 300.966122 
L 322.21865 301.938848 
L 322.155811 302.917611 
L 322.155811 303.898389 
L 322.21865 304.877152 
L 322.344069 305.849878 
L 322.531553 306.81257 
L 322.780332 307.761272 
L 323.089383 308.692085 
L 323.457437 309.601185 
L 323.882981 310.484836 
L 324.364266 311.339406 
L 324.899315 312.161385 
L 325.485928 312.947394 
L 326.121697 313.694204 
L 326.804007 314.398745 
L 327.530056 315.058123 
L 328.296859 315.669628 
L 329.101266 316.230748 
L 329.939971 316.739176 
L 330.809529 317.192824 
L 331.706365 317.589826 
L 332.626794 317.928553 
L 333.567035 318.207611 
L 334.523223 318.425855 
L 335.491429 318.582387 
L 336.467676 318.676565 
L 337.44795 318.708 
L 337.44795 318.708 
L 357.33795 318.708 
L 357.33795 303.408 
L 357.33795 288.108 
L 337.44795 288.108 
" clip-path="url(#p5f7e79117f)" style="fill: none; stroke: #000000; stroke-width: 2; stroke-linecap: round"/>
   </g>
   <g id="line2d_42">
    <path d="M 368.04795 293.31 
L 357.33795 293.31 
" clip-path="url(#p5f7e79117f)" style="fill: none; stroke: #000000; stroke-width: 2; stroke-linecap: round"/>
   </g>
   <g id="line2d_43">
    <path d="M 368.04795 303.408 
L 357.33795 303.408 
" clip-path="url(#p5f7e79117f)" style="fill: none; stroke: #000000; stroke-width: 2; stroke-linecap: round"/>
   </g>
   <g id="line2d_44">
    <path d="M 368.04795 313.506 
L 357.33795 313.506 
" clip-path="url(#p5f7e79117f)" style="fill: none; stroke: #000000; stroke-width: 2; stroke-linecap: round"/>
   </g>
   <g id="line2d_45">
    <path d="M 322.14795 303.408 
L 311.43795 303.408 
" clip-path="url(#p5f7e79117f)" style="fill: none; stroke: #000000; stroke-width: 2; stroke-linecap: round"/>
   </g>
   <g id="line2d_46">
    <path d="M 311.43795 303.408 
L 164.55795 303.408 
L 164.55795 232.11 
" clip-path="url(#p5f7e79117f)" style="fill: none; stroke: #000000; stroke-width: 2; stroke-linecap: round"/>
   </g>
   <g id="line2d_47">
    <path d="M 62.04795 354.51 
L 368.04795 354.51 
L 368.04795 313.506 
" clip-path="url(#p5f7e79117f)" style="fill: none; stroke: #000000; stroke-width: 2; stroke-linecap: round"/>
   </g>
   <g id="line2d_48">
    <path d="M 149.25795 408.06 
L 302.25795 408.06 
L 455.25795 408.06 
" clip-path="url(#p5f7e79117f)" style="fill: none; stroke: #000000; stroke-width: 2; stroke-linecap: round"/>
   </g>
   <g id="line2d_49">
    <path d="M 485.85795 423.36 
L 486.838224 423.328565 
L 487.814471 423.234387 
L 488.782677 423.077855 
L 489.738865 422.859611 
L 490.679106 422.580553 
L 491.599535 422.241826 
L 492.496371 421.844824 
L 493.365929 421.391176 
L 494.204634 420.882748 
L 495.009041 420.321628 
L 495.775844 419.710123 
L 496.501893 419.050745 
L 497.184203 418.346204 
L 497.819972 417.599394 
L 498.406585 416.813385 
L 498.941634 415.991406 
L 499.422919 415.136836 
L 499.848463 414.253185 
L 500.216517 413.344085 
L 500.525568 412.413272 
L 500.774347 411.46457 
L 500.961831 410.501878 
L 501.08725 409.529152 
L 501.150089 408.550389 
L 501.150089 407.569611 
L 501.08725 406.590848 
L 500.961831 405.618122 
L 500.774347 404.65543 
L 500.525568 403.706728 
L 500.216517 402.775915 
L 499.848463 401.866815 
L 499.422919 400.983164 
L 498.941634 400.128594 
L 498.406585 399.306615 
L 497.819972 398.520606 
L 497.184203 397.773796 
L 496.501893 397.069255 
L 495.775844 396.409877 
L 495.009041 395.798372 
L 494.204634 395.237252 
L 493.365929 394.728824 
L 492.496371 394.275176 
L 491.599535 393.878174 
L 490.679106 393.539447 
L 489.738865 393.260389 
L 488.782677 393.042145 
L 487.814471 392.885613 
L 486.838224 392.791435 
L 485.85795 392.76 
L 485.85795 392.76 
L 465.96795 392.76 
L 465.96795 408.06 
L 465.96795 423.36 
L 485.85795 423.36 
" clip-path="url(#p5f7e79117f)" style="fill: none; stroke: #000000; stroke-width: 2; stroke-linecap: round"/>
   </g>
   <g id="line2d_50">
    <path d="M 455.25795 418.158 
L 465.96795 418.158 
" clip-path="url(#p5f7e79117f)" style="fill: none; stroke: #000000; stroke-width: 2; stroke-linecap: round"/>
   </g>
   <g id="line2d_51">
    <path d="M 455.25795 408.06 
L 465.96795 408.06 
" clip-path="url(#p5f7e79117f)" style="fill: none; stroke: #000000; stroke-width: 2; stroke-linecap: round"/>
   </g>
   <g id="line2d_52">
    <path d="M 455.25795 397.962 
L 465.96795 397.962 
" clip-path="url(#p5f7e79117f)" style="fill: none; stroke: #000000; stroke-width: 2; stroke-linecap: round"/>
   </g>
   <g id="line2d_53">
    <path d="M 501.15795 408.06 
L 511.86795 408.06 
" clip-path="url(#p5f7e79117f)" style="fill: none; stroke: #000000; stroke-width: 2; stroke-linecap: round"/>
   </g>
   <g id="line2d_54">
    <path d="M 511.86795 408.06 
L 557.76795 408.06 
L 603.66795 408.06 
" clip-path="url(#p5f7e79117f)" style="fill: none; stroke: #000000; stroke-width: 2; stroke-linecap: round"/>
   </g>
   <g id="line2d_55">
    <path d="M 521.04795 201.51 
L 455.25795 201.51 
L 455.25795 397.962 
" clip-path="url(#p5f7e79117f)" style="fill: none; stroke: #000000; stroke-width: 2; stroke-linecap: round"/>
   </g>
   <g id="line2d_56">
    <path d="M 603.66795 408.06 
L 603.66795 117.36 
L 704.64795 117.36 
" clip-path="url(#p5f7e79117f)" style="fill: none; stroke: #000000; stroke-width: 2; stroke-linecap: round"/>
   </g>
   <g id="line2d_57">
    <path d="M 455.25795 418.158 
L 451.43295 418.158 
L 447.60795 418.158 
" clip-path="url(#p5f7e79117f)" style="fill: none; stroke: #000000; stroke-width: 2; stroke-linecap: round"/>
   </g>
   <g id="line2d_58">
    <path d="M 447.60795 418.158 
L 447.45495 418.158 
M 417.16095 418.158 
L 417.00795 418.158 
" clip-path="url(#p5f7e79117f)" style="fill: none; stroke: #000000; stroke-width: 2; stroke-linecap: round"/>
   </g>
   <g id="line2d_59">
    <path d="M 417.16095 427.338 
L 417.16095 408.978 
L 440.11095 418.158 
L 417.16095 427.338 
" clip-path="url(#p5f7e79117f)" style="fill: none; stroke: #000000; stroke-width: 2; stroke-linecap: round"/>
   </g>
   <g id="line2d_60">
    <path d="M 417.00795 418.158 
L 401.70795 418.158 
L 386.40795 418.158 
" clip-path="url(#p5f7e79117f)" style="fill: none; stroke: #000000; stroke-width: 2; stroke-linecap: round"/>
   </g>
   <g id="line2d_61">
    <path d="M 386.40795 418.158 
L 386.40795 303.408 
L 368.04795 303.408 
" clip-path="url(#p5f7e79117f)" style="fill: none; stroke: #000000; stroke-width: 2; stroke-linecap: round"/>
   </g>
   <g id="line2d_62">
    <path d="M 603.66795 272.808 
L 618.96795 272.808 
L 634.26795 272.808 
" clip-path="url(#p5f7e79117f)" style="fill: none; stroke: #000000; stroke-width: 2; stroke-linecap: round"/>
   </g>
   <g id="line2d_63">
    <path d="M 644.97795 295.452 
L 662.026521 295.352082 
L 663.775093 295.052327 
L 665.523664 294.552735 
L 667.272236 293.853306 
L 669.020807 292.954041 
L 671.206521 291.548939 
L 673.392236 289.831592 
L 675.57795 287.802 
L 677.763664 285.460163 
L 679.949379 282.806082 
L 681.69795 280.458 
L 681.69795 280.458 
L 679.075093 277.010816 
L 676.889379 274.481633 
L 674.703664 272.264694 
L 672.51795 270.36 
L 670.332236 268.767551 
L 668.146521 267.487347 
L 666.39795 266.688 
L 664.649379 266.08849 
L 662.900807 265.688816 
L 661.152236 265.48898 
L 660.27795 265.464 
L 644.97795 265.464 
L 647.18115 267.912 
L 648.57651 269.748 
L 649.75155 271.584 
L 650.70627 273.42 
L 651.44067 275.256 
L 651.95475 277.092 
L 652.24851 278.928 
L 652.32195 280.764 
L 652.17507 282.6 
L 651.80787 284.436 
L 651.22035 286.272 
L 650.41251 288.108 
L 649.38435 289.944 
L 648.13587 291.78 
L 646.66707 293.616 
L 644.97795 295.452 
L 644.97795 295.452 
" clip-path="url(#p5f7e79117f)" style="fill: none; stroke: #000000; stroke-width: 2; stroke-linecap: round"/>
   </g>
   <g id="line2d_64">
    <path d="M 634.26795 288.108 
L 650.41251 288.108 
" clip-path="url(#p5f7e79117f)" style="fill: none; stroke: #000000; stroke-width: 2; stroke-linecap: round"/>
   </g>
   <g id="line2d_65">
    <path d="M 634.26795 272.808 
L 650.41251 272.808 
" clip-path="url(#p5f7e79117f)" style="fill: none; stroke: #000000; stroke-width: 2; stroke-linecap: round"/>
   </g>
   <g id="line2d_66">
    <path d="M 681.69795 280.458 
L 692.40795 280.458 
" clip-path="url(#p5f7e79117f)" style="fill: none; stroke: #000000; stroke-width: 2; stroke-linecap: round"/>
   </g>
   <g id="line2d_67">
    <path d="M 692.40795 280.458 
L 768.90795 280.458 
L 845.40795 280.458 
" clip-path="url(#p5f7e79117f)" style="fill: none; stroke: #000000; stroke-width: 2; stroke-linecap: round"/>
   </g>
   <g id="line2d_68">
    <path d="M 845.40795 326.358 
L 906.60795 326.358 
L 906.60795 234.558 
L 845.40795 234.558 
L 845.40795 326.358 
" clip-path="url(#p5f7e79117f)" style="fill: none; stroke: #000000; stroke-width: 2; stroke-linecap: round"/>
   </g>
   <g id="line2d_69">
    <path d="M 845.40795 298.053 
L 856.11795 303.408 
L 845.40795 308.763 
" clip-path="url(#p5f7e79117f)" style="fill: none; stroke: #000000; stroke-width: 2; stroke-linecap: round"/>
   </g>
   <g id="line2d_70">
    <path d="M 845.40795 257.508 
L 830.10795 257.508 
L 814.80795 257.508 
" clip-path="url(#p5f7e79117f)" style="fill: none; stroke: #000000; stroke-width: 2; stroke-linecap: round"/>
   </g>
   <g id="line2d_71">
    <path d="M 814.80795 257.508 
L 814.80795 229.509 
L 814.80795 201.51 
" clip-path="url(#p5f7e79117f)" style="fill: none; stroke: #000000; stroke-width: 2; stroke-linecap: round"/>
   </g>
   <g id="line2d_72">
    <path d="M 1041.24795 209.16 
L 1056.54795 209.16 
L 1064.19795 209.16 
" clip-path="url(#p5f7e79117f)" style="fill: none; stroke: #000000; stroke-width: 2; stroke-linecap: round"/>
   </g>
   <g id="patch_9">
    <path d="M 1064.19795 206.865 
L 1071.84795 209.16 
L 1064.19795 211.455 
z
" clip-path="url(#p5f7e79117f)"/>
   </g>
   <g id="line2d_73">
    <path d="M 993.81795 224.154 
L 1010.866521 224.054082 
L 1012.615093 223.754327 
L 1014.363664 223.254735 
L 1016.112236 222.555306 
L 1017.860807 221.656041 
L 1020.046521 220.250939 
L 1022.232236 218.533592 
L 1024.41795 216.504 
L 1026.603664 214.162163 
L 1028.789379 211.508082 
L 1030.53795 209.16 
L 1030.53795 209.16 
L 1027.915093 205.712816 
L 1025.729379 203.183633 
L 1023.543664 200.966694 
L 1021.35795 199.062 
L 1019.172236 197.469551 
L 1016.986521 196.189347 
L 1015.23795 195.39 
L 1013.489379 194.79049 
L 1011.740807 194.390816 
L 1009.992236 194.19098 
L 1009.11795 194.166 
L 993.81795 194.166 
L 996.02115 196.614 
L 997.41651 198.45 
L 998.59155 200.286 
L 999.54627 202.122 
L 1000.28067 203.958 
L 1000.79475 205.794 
L 1001.08851 207.63 
L 1001.16195 209.466 
L 1001.01507 211.302 
L 1000.64787 213.138 
L 1000.06035 214.974 
L 999.25251 216.81 
L 998.22435 218.646 
L 996.97587 220.482 
L 995.50707 222.318 
L 993.81795 224.154 
L 993.81795 224.154 
" clip-path="url(#p5f7e79117f)" style="fill: none; stroke: #000000; stroke-width: 2; stroke-linecap: round"/>
   </g>
   <g id="line2d_74">
    <path d="M 983.10795 216.81 
L 999.25251 216.81 
" clip-path="url(#p5f7e79117f)" style="fill: none; stroke: #000000; stroke-width: 2; stroke-linecap: round"/>
   </g>
   <g id="line2d_75">
    <path d="M 983.10795 201.51 
L 999.25251 201.51 
" clip-path="url(#p5f7e79117f)" style="fill: none; stroke: #000000; stroke-width: 2; stroke-linecap: round"/>
   </g>
   <g id="line2d_76">
    <path d="M 1030.53795 209.16 
L 1041.24795 209.16 
" clip-path="url(#p5f7e79117f)" style="fill: none; stroke: #000000; stroke-width: 2; stroke-linecap: round"/>
   </g>
   <g id="line2d_77">
    <path d="M 521.04795 201.51 
L 752.07795 201.51 
L 983.10795 201.51 
" clip-path="url(#p5f7e79117f)" style="fill: none; stroke: #000000; stroke-width: 2; stroke-linecap: round"/>
   </g>
   <g id="line2d_78">
    <path d="M 906.60795 257.508 
L 921.90795 257.508 
L 937.20795 257.508 
" clip-path="url(#p5f7e79117f)" style="fill: none; stroke: #000000; stroke-width: 2; stroke-linecap: round"/>
   </g>
   <g id="line2d_79">
    <path d="M 937.20795 257.508 
L 983.10795 257.508 
L 983.10795 216.81 
" clip-path="url(#p5f7e79117f)" style="fill: none; stroke: #000000; stroke-width: 2; stroke-linecap: round"/>
   </g>
   <g id="line2d_80">
    <path d="M 983.10795 216.81 
L 983.10795 132.66 
L 1010.64795 132.66 
" clip-path="url(#p5f7e79117f)" style="fill: none; stroke: #000000; stroke-width: 2; stroke-linecap: round"/>
   </g>
   <g id="line2d_81">
    <path d="M 937.20795 257.508 
L 937.20795 306.009 
L 937.20795 354.51 
" clip-path="url(#p5f7e79117f)" style="fill: none; stroke: #000000; stroke-width: 2; stroke-linecap: round"/>
   </g>
   <g id="line2d_82">
    <path d="M 937.20795 354.51 
L 921.90795 354.51 
L 906.60795 354.51 
" clip-path="url(#p5f7e79117f)" style="fill: none; stroke: #000000; stroke-width: 2; stroke-linecap: round"/>
   </g>
   <g id="line2d_83">
    <path d="M 906.60795 354.51 
L 906.45495 354.51 
M 876.16095 354.51 
L 876.00795 354.51 
" clip-path="url(#p5f7e79117f)" style="fill: none; stroke: #000000; stroke-width: 2; stroke-linecap: round"/>
   </g>
   <g id="line2d_84">
    <path d="M 906.45495 363.69 
L 883.50495 354.51 
L 906.45495 345.33 
L 906.45495 363.69 
" clip-path="url(#p5f7e79117f)" style="fill: none; stroke: #000000; stroke-width: 2; stroke-linecap: round"/>
   </g>
   <g id="line2d_85">
    <path d="M 876.00795 354.51 
L 622.02795 354.51 
L 368.04795 354.51 
" clip-path="url(#p5f7e79117f)" style="fill: none; stroke: #000000; stroke-width: 2; stroke-linecap: round"/>
   </g>
   <g id="line2d_86">
    <path d="M 937.20795 257.508 
L 937.20795 336.609 
L 937.20795 415.71 
" clip-path="url(#p5f7e79117f)" style="fill: none; stroke: #000000; stroke-width: 2; stroke-linecap: round"/>
   </g>
   <g id="line2d_87">
    <path d="M 937.20795 415.71 
L 921.90795 415.71 
L 906.60795 415.71 
" clip-path="url(#p5f7e79117f)" style="fill: none; stroke: #000000; stroke-width: 2; stroke-linecap: round"/>
   </g>
   <g id="line2d_88">
    <path d="M 876.00795 408.06 
L 875.027676 408.091435 
L 874.051429 408.185613 
L 873.083223 408.342145 
L 872.127035 408.560389 
L 871.186794 408.839447 
L 870.266365 409.178174 
L 869.369529 409.575176 
L 868.499971 410.028824 
L 867.661266 410.537252 
L 866.856859 411.098372 
L 866.090056 411.709877 
L 865.364007 412.369255 
L 864.681697 413.073796 
L 864.045928 413.820606 
L 863.459315 414.606615 
L 862.924266 415.428594 
L 862.442981 416.283164 
L 862.017437 417.166815 
L 861.649383 418.075915 
L 861.340332 419.006728 
L 861.091553 419.95543 
L 860.904069 420.918122 
L 860.77865 421.890848 
L 860.715811 422.869611 
L 860.715811 423.850389 
L 860.77865 424.829152 
L 860.904069 425.801878 
L 861.091553 426.76457 
L 861.340332 427.713272 
L 861.649383 428.644085 
L 862.017437 429.553185 
L 862.442981 430.436836 
L 862.924266 431.291406 
L 863.459315 432.113385 
L 864.045928 432.899394 
L 864.681697 433.646204 
L 865.364007 434.350745 
L 866.090056 435.010123 
L 866.856859 435.621628 
L 867.661266 436.182748 
L 868.499971 436.691176 
L 869.369529 437.144824 
L 870.266365 437.541826 
L 871.186794 437.880553 
L 872.127035 438.159611 
L 873.083223 438.377855 
L 874.051429 438.534387 
L 875.027676 438.628565 
L 876.00795 438.66 
L 876.00795 438.66 
L 895.89795 438.66 
L 895.89795 423.36 
L 895.89795 408.06 
L 876.00795 408.06 
" clip-path="url(#p5f7e79117f)" style="fill: none; stroke: #000000; stroke-width: 2; stroke-linecap: round"/>
   </g>
   <g id="line2d_89">
    <path d="M 906.60795 415.71 
L 895.89795 415.71 
" clip-path="url(#p5f7e79117f)" style="fill: none; stroke: #000000; stroke-width: 2; stroke-linecap: round"/>
   </g>
   <g id="line2d_90">
    <path d="M 906.60795 431.01 
L 895.89795 431.01 
" clip-path="url(#p5f7e79117f)" style="fill: none; stroke: #000000; stroke-width: 2; stroke-linecap: round"/>
   </g>
   <g id="line2d_91">
    <path d="M 860.70795 423.36 
L 849.99795 423.36 
" clip-path="url(#p5f7e79117f)" style="fill: none; stroke: #000000; stroke-width: 2; stroke-linecap: round"/>
   </g>
   <g id="line2d_92">
    <path d="M 849.99795 423.36 
L 634.26795 423.36 
L 634.26795 288.108 
" clip-path="url(#p5f7e79117f)" style="fill: none; stroke: #000000; stroke-width: 2; stroke-linecap: round"/>
   </g>
   <g id="line2d_93">
    <path d="M 1071.84795 479.358 
L 1056.54795 479.358 
L 1048.89795 479.358 
" clip-path="url(#p5f7e79117f)" style="fill: none; stroke: #000000; stroke-width: 2; stroke-linecap: round"/>
   </g>
   <g id="patch_10">
    <path d="M 1071.84795 481.653 
C 1072.456591 481.653 1073.040386 481.411184 1073.47076 480.98081 
C 1073.901134 480.550436 1074.14295 479.966641 1074.14295 479.358 
C 1074.14295 478.749359 1073.901134 478.165564 1073.47076 477.73519 
C 1073.040386 477.304816 1072.456591 477.063 1071.84795 477.063 
C 1071.239309 477.063 1070.655514 477.304816 1070.22514 477.73519 
C 1069.794766 478.165564 1069.55295 478.749359 1069.55295 479.358 
C 1069.55295 479.966641 1069.794766 480.550436 1070.22514 480.98081 
C 1070.655514 481.411184 1071.239309 481.653 1071.84795 481.653 
z
" clip-path="url(#p5f7e79117f)" style="stroke: #000000; stroke-width: 2; stroke-linejoin: miter"/>
   </g>
   <g id="patch_11">
    <path d="M 1048.89795 481.653 
L 1041.24795 479.358 
L 1048.89795 477.063 
z
" clip-path="url(#p5f7e79117f)"/>
   </g>
   <g id="line2d_94">
    <path d="M 1041.24795 479.358 
L 386.40795 479.358 
L 386.40795 418.158 
" clip-path="url(#p5f7e79117f)" style="fill: none; stroke: #000000; stroke-width: 2; stroke-linecap: round"/>
   </g>
   <g id="line2d_95">
    <path d="M 906.60795 431.01 
L 906.60795 455.184 
L 906.60795 479.358 
" clip-path="url(#p5f7e79117f)" style="fill: none; stroke: #000000; stroke-width: 2; stroke-linecap: round"/>
   </g>
   <g id="line2d_96">
    <path d="M 1041.24795 209.16 
L 1041.24795 270.36 
L 1041.24795 331.56 
" clip-path="url(#p5f7e79117f)" style="fill: none; stroke-dasharray: 2,3.3; stroke-dashoffset: 0; stroke: #000000; stroke-width: 2"/>
   </g>
   <g id="line2d_97">
    <path d="M 1016.15595 331.56 
L 1016.255868 348.608571 
L 1016.555623 350.357143 
L 1017.055215 352.105714 
L 1017.754644 353.854286 
L 1018.653909 355.602857 
L 1020.059011 357.788571 
L 1021.776358 359.974286 
L 1023.80595 362.16 
L 1026.147787 364.345714 
L 1028.801868 366.531429 
L 1031.14995 368.28 
L 1031.14995 368.28 
L 1034.597134 365.657143 
L 1037.126317 363.471429 
L 1039.343256 361.285714 
L 1041.24795 359.1 
L 1042.840399 356.914286 
L 1044.120603 354.728571 
L 1044.91995 352.98 
L 1045.51946 351.231429 
L 1045.919134 349.482857 
L 1046.11897 347.734286 
L 1046.14395 346.86 
L 1046.14395 331.56 
L 1046.14395 331.56 
L 1043.69595 333.7632 
L 1041.85995 335.15856 
L 1040.02395 336.3336 
L 1038.18795 337.28832 
L 1036.35195 338.02272 
L 1034.51595 338.5368 
L 1032.67995 338.83056 
L 1030.84395 338.904 
L 1029.00795 338.75712 
L 1027.17195 338.38992 
L 1025.33595 337.8024 
L 1023.49995 336.99456 
L 1021.66395 335.9664 
L 1019.82795 334.71792 
L 1017.99195 333.24912 
L 1016.15595 331.56 
L 1016.15595 331.56 
" clip-path="url(#p5f7e79117f)" style="fill: none; stroke: #000000; stroke-width: 2; stroke-linecap: round"/>
   </g>
   <g id="line2d_98">
    <path d="M 1021.05195 331.56 
L 1021.05195 335.57472 
" clip-path="url(#p5f7e79117f)" style="fill: none; stroke: #000000; stroke-width: 2; stroke-linecap: round"/>
   </g>
   <g id="line2d_99">
    <path d="M 1031.14995 331.56 
L 1031.14995 338.90706 
" clip-path="url(#p5f7e79117f)" style="fill: none; stroke: #000000; stroke-width: 2; stroke-linecap: round"/>
   </g>
   <g id="line2d_100">
    <path d="M 1041.24795 331.56 
L 1041.24795 335.57472 
" clip-path="url(#p5f7e79117f)" style="fill: none; stroke: #000000; stroke-width: 2; stroke-linecap: round"/>
   </g>
   <g id="line2d_101">
    <path d="M 1031.14995 375.624 
L 1031.14995 378.99 
" clip-path="url(#p5f7e79117f)" style="fill: none; stroke: #000000; stroke-width: 2; stroke-linecap: round"/>
   </g>
   <g id="line2d_102">
    <path d="M 1031.14995 378.99 
L 1031.14995 394.29 
L 1031.14995 409.59 
" clip-path="url(#p5f7e79117f)" style="fill: none; stroke: #000000; stroke-width: 2; stroke-linecap: round"/>
   </g>
   <g id="line2d_103">
    <path d="M 1031.14995 409.59 
L 1046.44995 409.59 
L 1054.09995 409.59 
" clip-path="url(#p5f7e79117f)" style="fill: none; stroke: #000000; stroke-width: 2; stroke-linecap: round"/>
   </g>
   <g id="patch_12">
    <path d="M 1054.09995 407.295 
L 1061.74995 409.59 
L 1054.09995 411.885 
z
" clip-path="url(#p5f7e79117f)"/>
   </g>
   <g id="line2d_104">
    <path d="M 1031.14995 331.56 
L 1031.14995 316.26 
L 1031.14995 300.96 
" clip-path="url(#p5f7e79117f)" style="fill: none; stroke-dasharray: 2,3.3; stroke-dashoffset: 0; stroke: #000000; stroke-width: 2"/>
   </g>
   <g id="line2d_105">
    <path d="M 1021.05195 331.56 
L 1021.05195 316.26 
L 1021.05195 300.96 
" clip-path="url(#p5f7e79117f)" style="fill: none; stroke-dasharray: 2,3.3; stroke-dashoffset: 0; stroke: #000000; stroke-width: 2"/>
   </g>
   <g id="patch_13">
    <path d="M 31.44795 50.805 
C 32.056591 50.805 32.640386 50.563184 33.07076 50.13281 
C 33.501134 49.702436 33.74295 49.118641 33.74295 48.51 
C 33.74295 47.901359 33.501134 47.317564 33.07076 46.88719 
C 32.640386 46.456816 32.056591 46.215 31.44795 46.215 
C 30.839309 46.215 30.255514 46.456816 29.82514 46.88719 
C 29.394766 47.317564 29.15295 47.901359 29.15295 48.51 
C 29.15295 49.118641 29.394766 49.702436 29.82514 50.13281 
C 30.255514 50.563184 30.839309 50.805 31.44795 50.805 
z
" clip-path="url(#p5f7e79117f)" style="stroke: #000000; stroke-width: 2; stroke-linejoin: miter"/>
   </g>
   <g id="text_1">
    <g clip-path="url(#p5f7e79117f)">
     <!-- from_data -->
     <g transform="translate(13.856309 37.912734)scale(0.125 -0.125)">
      <defs>
       <path id="DejaVuSans-66" d="M 2375 4863 
L 2375 4384 
L 1825 4384 
Q 1516 4384 1395 4259 
Q 1275 4134 1275 3809 
L 1275 3500 
L 2222 3500 
L 2222 3053 
L 1275 3053 
L 1275 0 
L 697 0 
L 697 3053 
L 147 3053 
L 147 3500 
L 697 3500 
L 697 3744 
Q 697 4328 969 4595 
Q 1241 4863 1831 4863 
L 2375 4863 
z
" transform="scale(0.015625)"/>
       <path id="DejaVuSans-72" d="M 2631 2963 
Q 2534 3019 2420 3045 
Q 2306 3072 2169 3072 
Q 1681 3072 1420 2755 
Q 1159 2438 1159 1844 
L 1159 0 
L 581 0 
L 581 3500 
L 1159 3500 
L 1159 2956 
Q 1341 3275 1631 3429 
Q 1922 3584 2338 3584 
Q 2397 3584 2469 3576 
Q 2541 3569 2628 3553 
L 2631 2963 
z
" transform="scale(0.015625)"/>
       <path id="DejaVuSans-6f" d="M 1959 3097 
Q 1497 3097 1228 2736 
Q 959 2375 959 1747 
Q 959 1119 1226 758 
Q 1494 397 1959 397 
Q 2419 397 2687 759 
Q 2956 1122 2956 1747 
Q 2956 2369 2687 2733 
Q 2419 3097 1959 3097 
z
M 1959 3584 
Q 2709 3584 3137 3096 
Q 3566 2609 3566 1747 
Q 3566 888 3137 398 
Q 2709 -91 1959 -91 
Q 1206 -91 779 398 
Q 353 888 353 1747 
Q 353 2609 779 3096 
Q 1206 3584 1959 3584 
z
" transform="scale(0.015625)"/>
       <path id="DejaVuSans-6d" d="M 3328 2828 
Q 3544 3216 3844 3400 
Q 4144 3584 4550 3584 
Q 5097 3584 5394 3201 
Q 5691 2819 5691 2113 
L 5691 0 
L 5113 0 
L 5113 2094 
Q 5113 2597 4934 2840 
Q 4756 3084 4391 3084 
Q 3944 3084 3684 2787 
Q 3425 2491 3425 1978 
L 3425 0 
L 2847 0 
L 2847 2094 
Q 2847 2600 2669 2842 
Q 2491 3084 2119 3084 
Q 1678 3084 1418 2786 
Q 1159 2488 1159 1978 
L 1159 0 
L 581 0 
L 581 3500 
L 1159 3500 
L 1159 2956 
Q 1356 3278 1631 3431 
Q 1906 3584 2284 3584 
Q 2666 3584 2933 3390 
Q 3200 3197 3328 2828 
z
" transform="scale(0.015625)"/>
       <path id="DejaVuSans-5f" d="M 3263 -1063 
L 3263 -1509 
L -63 -1509 
L -63 -1063 
L 3263 -1063 
z
" transform="scale(0.015625)"/>
       <path id="DejaVuSans-64" d="M 2906 2969 
L 2906 4863 
L 3481 4863 
L 3481 0 
L 2906 0 
L 2906 525 
Q 2725 213 2448 61 
Q 2172 -91 1784 -91 
Q 1150 -91 751 415 
Q 353 922 353 1747 
Q 353 2572 751 3078 
Q 1150 3584 1784 3584 
Q 2172 3584 2448 3432 
Q 2725 3281 2906 2969 
z
M 947 1747 
Q 947 1113 1208 752 
Q 1469 391 1925 391 
Q 2381 391 2643 752 
Q 2906 1113 2906 1747 
Q 2906 2381 2643 2742 
Q 2381 3103 1925 3103 
Q 1469 3103 1208 2742 
Q 947 2381 947 1747 
z
" transform="scale(0.015625)"/>
       <path id="DejaVuSans-61" d="M 2194 1759 
Q 1497 1759 1228 1600 
Q 959 1441 959 1056 
Q 959 750 1161 570 
Q 1363 391 1709 391 
Q 2188 391 2477 730 
Q 2766 1069 2766 1631 
L 2766 1759 
L 2194 1759 
z
M 3341 1997 
L 3341 0 
L 2766 0 
L 2766 531 
Q 2569 213 2275 61 
Q 1981 -91 1556 -91 
Q 1019 -91 701 211 
Q 384 513 384 1019 
Q 384 1609 779 1909 
Q 1175 2209 1959 2209 
L 2766 2209 
L 2766 2266 
Q 2766 2663 2505 2880 
Q 2244 3097 1772 3097 
Q 1472 3097 1187 3025 
Q 903 2953 641 2809 
L 641 3341 
Q 956 3463 1253 3523 
Q 1550 3584 1831 3584 
Q 2591 3584 2966 3190 
Q 3341 2797 3341 1997 
z
" transform="scale(0.015625)"/>
       <path id="DejaVuSans-74" d="M 1172 4494 
L 1172 3500 
L 2356 3500 
L 2356 3053 
L 1172 3053 
L 1172 1153 
Q 1172 725 1289 603 
Q 1406 481 1766 481 
L 2356 481 
L 2356 0 
L 1766 0 
Q 1100 0 847 248 
Q 594 497 594 1153 
L 594 3053 
L 172 3053 
L 172 3500 
L 594 3500 
L 594 4494 
L 1172 4494 
z
" transform="scale(0.015625)"/>
      </defs>
      <use xlink:href="#DejaVuSans-66"/>
      <use xlink:href="#DejaVuSans-72" x="35.205078"/>
      <use xlink:href="#DejaVuSans-6f" x="74.068359"/>
      <use xlink:href="#DejaVuSans-6d" x="135.25"/>
      <use xlink:href="#DejaVuSans-5f" x="232.662109"/>
      <use xlink:href="#DejaVuSans-64" x="282.662109"/>
      <use xlink:href="#DejaVuSans-61" x="346.138672"/>
      <use xlink:href="#DejaVuSans-74" x="407.417969"/>
      <use xlink:href="#DejaVuSans-61" x="446.626953"/>
     </g>
    </g>
   </g>
   <g id="text_2">
    <g clip-path="url(#p5f7e79117f)">
     <!-- D -->
     <g transform="translate(311.43795 51.131406)scale(0.095 -0.095)">
      <defs>
       <path id="DejaVuSans-44" d="M 1259 4147 
L 1259 519 
L 2022 519 
Q 2988 519 3436 956 
Q 3884 1394 3884 2338 
Q 3884 3275 3436 3711 
Q 2988 4147 2022 4147 
L 1259 4147 
z
M 628 4666 
L 1925 4666 
Q 3281 4666 3915 4102 
Q 4550 3538 4550 2338 
Q 4550 1131 3912 565 
Q 3275 0 1925 0 
L 628 0 
L 628 4666 
z
" transform="scale(0.015625)"/>
      </defs>
      <use xlink:href="#DejaVuSans-44"/>
     </g>
    </g>
   </g>
   <g id="text_3">
    <g clip-path="url(#p5f7e79117f)">
     <!-- En -->
     <g transform="translate(311.43795 74.081406)scale(0.095 -0.095)">
      <defs>
       <path id="DejaVuSans-45" d="M 628 4666 
L 3578 4666 
L 3578 4134 
L 1259 4134 
L 1259 2753 
L 3481 2753 
L 3481 2222 
L 1259 2222 
L 1259 531 
L 3634 531 
L 3634 0 
L 628 0 
L 628 4666 
z
" transform="scale(0.015625)"/>
       <path id="DejaVuSans-6e" d="M 3513 2113 
L 3513 0 
L 2938 0 
L 2938 2094 
Q 2938 2591 2744 2837 
Q 2550 3084 2163 3084 
Q 1697 3084 1428 2787 
Q 1159 2491 1159 1978 
L 1159 0 
L 581 0 
L 581 3500 
L 1159 3500 
L 1159 2956 
Q 1366 3272 1645 3428 
Q 1925 3584 2291 3584 
Q 2894 3584 3203 3211 
Q 3513 2838 3513 2113 
z
" transform="scale(0.015625)"/>
      </defs>
      <use xlink:href="#DejaVuSans-45"/>
      <use xlink:href="#DejaVuSans-6e" x="63.183594"/>
     </g>
    </g>
   </g>
   <g id="text_4">
    <g clip-path="url(#p5f7e79117f)">
     <!-- Q -->
     <g transform="translate(355.979669 51.131406)scale(0.095 -0.095)">
      <defs>
       <path id="DejaVuSans-51" d="M 2522 4238 
Q 1834 4238 1429 3725 
Q 1025 3213 1025 2328 
Q 1025 1447 1429 934 
Q 1834 422 2522 422 
Q 3209 422 3611 934 
Q 4013 1447 4013 2328 
Q 4013 3213 3611 3725 
Q 3209 4238 2522 4238 
z
M 3406 84 
L 4238 -825 
L 3475 -825 
L 2784 -78 
Q 2681 -84 2626 -87 
Q 2572 -91 2522 -91 
Q 1538 -91 948 567 
Q 359 1225 359 2328 
Q 359 3434 948 4092 
Q 1538 4750 2522 4750 
Q 3503 4750 4090 4092 
Q 4678 3434 4678 2328 
Q 4678 1516 4351 937 
Q 4025 359 3406 84 
z
" transform="scale(0.015625)"/>
      </defs>
      <use xlink:href="#DejaVuSans-51"/>
     </g>
    </g>
   </g>
   <g id="text_5">
    <g clip-path="url(#p5f7e79117f)">
     <!-- data_reg_read -->
     <g transform="translate(476.405372 42.502734)scale(0.125 -0.125)">
      <defs>
       <path id="DejaVuSans-65" d="M 3597 1894 
L 3597 1613 
L 953 1613 
Q 991 1019 1311 708 
Q 1631 397 2203 397 
Q 2534 397 2845 478 
Q 3156 559 3463 722 
L 3463 178 
Q 3153 47 2828 -22 
Q 2503 -91 2169 -91 
Q 1331 -91 842 396 
Q 353 884 353 1716 
Q 353 2575 817 3079 
Q 1281 3584 2069 3584 
Q 2775 3584 3186 3129 
Q 3597 2675 3597 1894 
z
M 3022 2063 
Q 3016 2534 2758 2815 
Q 2500 3097 2075 3097 
Q 1594 3097 1305 2825 
Q 1016 2553 972 2059 
L 3022 2063 
z
" transform="scale(0.015625)"/>
       <path id="DejaVuSans-67" d="M 2906 1791 
Q 2906 2416 2648 2759 
Q 2391 3103 1925 3103 
Q 1463 3103 1205 2759 
Q 947 2416 947 1791 
Q 947 1169 1205 825 
Q 1463 481 1925 481 
Q 2391 481 2648 825 
Q 2906 1169 2906 1791 
z
M 3481 434 
Q 3481 -459 3084 -895 
Q 2688 -1331 1869 -1331 
Q 1566 -1331 1297 -1286 
Q 1028 -1241 775 -1147 
L 775 -588 
Q 1028 -725 1275 -790 
Q 1522 -856 1778 -856 
Q 2344 -856 2625 -561 
Q 2906 -266 2906 331 
L 2906 616 
Q 2728 306 2450 153 
Q 2172 0 1784 0 
Q 1141 0 747 490 
Q 353 981 353 1791 
Q 353 2603 747 3093 
Q 1141 3584 1784 3584 
Q 2172 3584 2450 3431 
Q 2728 3278 2906 2969 
L 2906 3500 
L 3481 3500 
L 3481 434 
z
" transform="scale(0.015625)"/>
      </defs>
      <use xlink:href="#DejaVuSans-64"/>
      <use xlink:href="#DejaVuSans-61" x="63.476562"/>
      <use xlink:href="#DejaVuSans-74" x="124.755859"/>
      <use xlink:href="#DejaVuSans-61" x="163.964844"/>
      <use xlink:href="#DejaVuSans-5f" x="225.244141"/>
      <use xlink:href="#DejaVuSans-72" x="275.244141"/>
      <use xlink:href="#DejaVuSans-65" x="314.107422"/>
      <use xlink:href="#DejaVuSans-67" x="375.630859"/>
      <use xlink:href="#DejaVuSans-5f" x="439.107422"/>
      <use xlink:href="#DejaVuSans-72" x="489.107422"/>
      <use xlink:href="#DejaVuSans-65" x="527.970703"/>
      <use xlink:href="#DejaVuSans-61" x="589.494141"/>
      <use xlink:href="#DejaVuSans-64" x="650.773438"/>
     </g>
    </g>
   </g>
   <g id="text_6">
    <g clip-path="url(#p5f7e79117f)">
     <!-- D -->
     <g transform="translate(709.23795 97.031406)scale(0.095 -0.095)">
      <use xlink:href="#DejaVuSans-44"/>
     </g>
    </g>
   </g>
   <g id="text_7">
    <g clip-path="url(#p5f7e79117f)">
     <!-- En -->
     <g transform="translate(709.23795 119.981406)scale(0.095 -0.095)">
      <use xlink:href="#DejaVuSans-45"/>
      <use xlink:href="#DejaVuSans-6e" x="63.183594"/>
     </g>
    </g>
   </g>
   <g id="text_8">
    <g clip-path="url(#p5f7e79117f)">
     <!-- Q -->
     <g transform="translate(753.779669 97.031406)scale(0.095 -0.095)">
      <use xlink:href="#DejaVuSans-51"/>
     </g>
    </g>
   </g>
   <g id="text_9">
    <g clip-path="url(#p5f7e79117f)">
     <!-- data_skid_reg_read -->
     <g transform="translate(812.60127 88.402734)scale(0.125 -0.125)">
      <defs>
       <path id="DejaVuSans-73" d="M 2834 3397 
L 2834 2853 
Q 2591 2978 2328 3040 
Q 2066 3103 1784 3103 
Q 1356 3103 1142 2972 
Q 928 2841 928 2578 
Q 928 2378 1081 2264 
Q 1234 2150 1697 2047 
L 1894 2003 
Q 2506 1872 2764 1633 
Q 3022 1394 3022 966 
Q 3022 478 2636 193 
Q 2250 -91 1575 -91 
Q 1294 -91 989 -36 
Q 684 19 347 128 
L 347 722 
Q 666 556 975 473 
Q 1284 391 1588 391 
Q 1994 391 2212 530 
Q 2431 669 2431 922 
Q 2431 1156 2273 1281 
Q 2116 1406 1581 1522 
L 1381 1569 
Q 847 1681 609 1914 
Q 372 2147 372 2553 
Q 372 3047 722 3315 
Q 1072 3584 1716 3584 
Q 2034 3584 2315 3537 
Q 2597 3491 2834 3397 
z
" transform="scale(0.015625)"/>
       <path id="DejaVuSans-6b" d="M 581 4863 
L 1159 4863 
L 1159 1991 
L 2875 3500 
L 3609 3500 
L 1753 1863 
L 3688 0 
L 2938 0 
L 1159 1709 
L 1159 0 
L 581 0 
L 581 4863 
z
" transform="scale(0.015625)"/>
       <path id="DejaVuSans-69" d="M 603 3500 
L 1178 3500 
L 1178 0 
L 603 0 
L 603 3500 
z
M 603 4863 
L 1178 4863 
L 1178 4134 
L 603 4134 
L 603 4863 
z
" transform="scale(0.015625)"/>
      </defs>
      <use xlink:href="#DejaVuSans-64"/>
      <use xlink:href="#DejaVuSans-61" x="63.476562"/>
      <use xlink:href="#DejaVuSans-74" x="124.755859"/>
      <use xlink:href="#DejaVuSans-61" x="163.964844"/>
      <use xlink:href="#DejaVuSans-5f" x="225.244141"/>
      <use xlink:href="#DejaVuSans-73" x="275.244141"/>
      <use xlink:href="#DejaVuSans-6b" x="327.34375"/>
      <use xlink:href="#DejaVuSans-69" x="385.253906"/>
      <use xlink:href="#DejaVuSans-64" x="413.037109"/>
      <use xlink:href="#DejaVuSans-5f" x="476.513672"/>
      <use xlink:href="#DejaVuSans-72" x="526.513672"/>
      <use xlink:href="#DejaVuSans-65" x="565.376953"/>
      <use xlink:href="#DejaVuSans-67" x="626.900391"/>
      <use xlink:href="#DejaVuSans-5f" x="690.376953"/>
      <use xlink:href="#DejaVuSans-72" x="740.376953"/>
      <use xlink:href="#DejaVuSans-65" x="779.240234"/>
      <use xlink:href="#DejaVuSans-61" x="840.763672"/>
      <use xlink:href="#DejaVuSans-64" x="902.042969"/>
     </g>
    </g>
   </g>
   <g id="text_10">
    <g clip-path="url(#p5f7e79117f)">
     <!-- 0 -->
     <g transform="translate(999.93795 51.131406)scale(0.095 -0.095)">
      <defs>
       <path id="DejaVuSans-30" d="M 2034 4250 
Q 1547 4250 1301 3770 
Q 1056 3291 1056 2328 
Q 1056 1369 1301 889 
Q 1547 409 2034 409 
Q 2525 409 2770 889 
Q 3016 1369 3016 2328 
Q 3016 3291 2770 3770 
Q 2525 4250 2034 4250 
z
M 2034 4750 
Q 2819 4750 3233 4129 
Q 3647 3509 3647 2328 
Q 3647 1150 3233 529 
Q 2819 -91 2034 -91 
Q 1250 -91 836 529 
Q 422 1150 422 2328 
Q 422 3509 836 4129 
Q 1250 4750 2034 4750 
z
" transform="scale(0.015625)"/>
      </defs>
      <use xlink:href="#DejaVuSans-30"/>
     </g>
    </g>
   </g>
   <g id="text_11">
    <g clip-path="url(#p5f7e79117f)">
     <!-- 1 -->
     <g transform="translate(999.93795 97.031406)scale(0.095 -0.095)">
      <defs>
       <path id="DejaVuSans-31" d="M 794 531 
L 1825 531 
L 1825 4091 
L 703 3866 
L 703 4441 
L 1819 4666 
L 2450 4666 
L 2450 531 
L 3481 531 
L 3481 0 
L 794 0 
L 794 531 
z
" transform="scale(0.015625)"/>
      </defs>
      <use xlink:href="#DejaVuSans-31"/>
     </g>
    </g>
   </g>
   <g id="text_12">
    <g clip-path="url(#p5f7e79117f)">
     <!-- Sel -->
     <g transform="translate(1012.17795 126.108516)scale(0.095 -0.095)">
      <defs>
       <path id="DejaVuSans-53" d="M 3425 4513 
L 3425 3897 
Q 3066 4069 2747 4153 
Q 2428 4238 2131 4238 
Q 1616 4238 1336 4038 
Q 1056 3838 1056 3469 
Q 1056 3159 1242 3001 
Q 1428 2844 1947 2747 
L 2328 2669 
Q 3034 2534 3370 2195 
Q 3706 1856 3706 1288 
Q 3706 609 3251 259 
Q 2797 -91 1919 -91 
Q 1588 -91 1214 -16 
Q 841 59 441 206 
L 441 856 
Q 825 641 1194 531 
Q 1563 422 1919 422 
Q 2459 422 2753 634 
Q 3047 847 3047 1241 
Q 3047 1584 2836 1778 
Q 2625 1972 2144 2069 
L 1759 2144 
Q 1053 2284 737 2584 
Q 422 2884 422 3419 
Q 422 4038 858 4394 
Q 1294 4750 2059 4750 
Q 2388 4750 2728 4690 
Q 3069 4631 3425 4513 
z
" transform="scale(0.015625)"/>
       <path id="DejaVuSans-6c" d="M 603 4863 
L 1178 4863 
L 1178 0 
L 603 0 
L 603 4863 
z
" transform="scale(0.015625)"/>
      </defs>
      <use xlink:href="#DejaVuSans-53"/>
      <use xlink:href="#DejaVuSans-65" x="63.476562"/>
      <use xlink:href="#DejaVuSans-6c" x="125"/>
     </g>
    </g>
   </g>
   <g id="patch_14">
    <path d="M 1071.84795 73.755 
C 1072.456591 73.755 1073.040386 73.513184 1073.47076 73.08281 
C 1073.901134 72.652436 1074.14295 72.068641 1074.14295 71.46 
C 1074.14295 70.851359 1073.901134 70.267564 1073.47076 69.83719 
C 1073.040386 69.406816 1072.456591 69.165 1071.84795 69.165 
C 1071.239309 69.165 1070.655514 69.406816 1070.22514 69.83719 
C 1069.794766 70.267564 1069.55295 70.851359 1069.55295 71.46 
C 1069.55295 72.068641 1069.794766 72.652436 1070.22514 73.08281 
C 1070.655514 73.513184 1071.239309 73.755 1071.84795 73.755 
z
" clip-path="url(#p5f7e79117f)" style="stroke: #000000; stroke-width: 2; stroke-linejoin: miter"/>
   </g>
   <g id="text_13">
    <g clip-path="url(#p5f7e79117f)">
     <!-- to_data -->
     <g transform="translate(1034.217911 60.862734)scale(0.125 -0.125)">
      <use xlink:href="#DejaVuSans-74"/>
      <use xlink:href="#DejaVuSans-6f" x="39.208984"/>
      <use xlink:href="#DejaVuSans-5f" x="100.390625"/>
      <use xlink:href="#DejaVuSans-64" x="150.390625"/>
      <use xlink:href="#DejaVuSans-61" x="213.867188"/>
      <use xlink:href="#DejaVuSans-74" x="275.146484"/>
      <use xlink:href="#DejaVuSans-61" x="314.355469"/>
     </g>
    </g>
   </g>
   <g id="patch_15">
    <path d="M 31.44795 203.805 
C 32.056591 203.805 32.640386 203.563184 33.07076 203.13281 
C 33.501134 202.702436 33.74295 202.118641 33.74295 201.51 
C 33.74295 200.901359 33.501134 200.317564 33.07076 199.88719 
C 32.640386 199.456816 32.056591 199.215 31.44795 199.215 
C 30.839309 199.215 30.255514 199.456816 29.82514 199.88719 
C 29.394766 200.317564 29.15295 200.901359 29.15295 201.51 
C 29.15295 202.118641 29.394766 202.702436 29.82514 203.13281 
C 30.255514 203.563184 30.839309 203.805 31.44795 203.805 
z
" clip-path="url(#p5f7e79117f)" style="stroke: #000000; stroke-width: 2; stroke-linejoin: miter"/>
   </g>
   <g id="text_14">
    <g clip-path="url(#p5f7e79117f)">
     <!-- from_valid -->
     <g transform="translate(12.964708 190.912734)scale(0.125 -0.125)">
      <defs>
       <path id="DejaVuSans-76" d="M 191 3500 
L 800 3500 
L 1894 563 
L 2988 3500 
L 3597 3500 
L 2284 0 
L 1503 0 
L 191 3500 
z
" transform="scale(0.015625)"/>
      </defs>
      <use xlink:href="#DejaVuSans-66"/>
      <use xlink:href="#DejaVuSans-72" x="35.205078"/>
      <use xlink:href="#DejaVuSans-6f" x="74.068359"/>
      <use xlink:href="#DejaVuSans-6d" x="135.25"/>
      <use xlink:href="#DejaVuSans-5f" x="232.662109"/>
      <use xlink:href="#DejaVuSans-76" x="282.662109"/>
      <use xlink:href="#DejaVuSans-61" x="341.841797"/>
      <use xlink:href="#DejaVuSans-6c" x="403.121094"/>
      <use xlink:href="#DejaVuSans-69" x="430.904297"/>
      <use xlink:href="#DejaVuSans-64" x="458.6875"/>
     </g>
    </g>
   </g>
   <g id="text_15">
    <g clip-path="url(#p5f7e79117f)">
     <!-- D -->
     <g transform="translate(311.43795 204.131406)scale(0.095 -0.095)">
      <use xlink:href="#DejaVuSans-44"/>
     </g>
    </g>
   </g>
   <g id="text_16">
    <g clip-path="url(#p5f7e79117f)">
     <!-- En -->
     <g transform="translate(311.43795 227.081406)scale(0.095 -0.095)">
      <use xlink:href="#DejaVuSans-45"/>
      <use xlink:href="#DejaVuSans-6e" x="63.183594"/>
     </g>
    </g>
   </g>
   <g id="text_17">
    <g clip-path="url(#p5f7e79117f)">
     <!-- Q -->
     <g transform="translate(355.979669 204.131406)scale(0.095 -0.095)">
      <use xlink:href="#DejaVuSans-51"/>
     </g>
    </g>
   </g>
   <g id="text_18">
    <g clip-path="url(#p5f7e79117f)">
     <!-- data_valid_reg_read -->
     <g transform="translate(381.810645 195.502734)scale(0.125 -0.125)">
      <use xlink:href="#DejaVuSans-64"/>
      <use xlink:href="#DejaVuSans-61" x="63.476562"/>
      <use xlink:href="#DejaVuSans-74" x="124.755859"/>
      <use xlink:href="#DejaVuSans-61" x="163.964844"/>
      <use xlink:href="#DejaVuSans-5f" x="225.244141"/>
      <use xlink:href="#DejaVuSans-76" x="275.244141"/>
      <use xlink:href="#DejaVuSans-61" x="334.423828"/>
      <use xlink:href="#DejaVuSans-6c" x="395.703125"/>
      <use xlink:href="#DejaVuSans-69" x="423.486328"/>
      <use xlink:href="#DejaVuSans-64" x="451.269531"/>
      <use xlink:href="#DejaVuSans-5f" x="514.746094"/>
      <use xlink:href="#DejaVuSans-72" x="564.746094"/>
      <use xlink:href="#DejaVuSans-65" x="603.609375"/>
      <use xlink:href="#DejaVuSans-67" x="665.132812"/>
      <use xlink:href="#DejaVuSans-5f" x="728.609375"/>
      <use xlink:href="#DejaVuSans-72" x="778.609375"/>
      <use xlink:href="#DejaVuSans-65" x="817.472656"/>
      <use xlink:href="#DejaVuSans-61" x="878.996094"/>
      <use xlink:href="#DejaVuSans-64" x="940.275391"/>
     </g>
    </g>
   </g>
   <g id="text_19">
    <g clip-path="url(#p5f7e79117f)">
     <!-- valid_load_en   -->
     <g transform="translate(218.415528 237.018047)scale(0.125 -0.125)">
      <defs>
       <path id="DejaVuSans-20" transform="scale(0.015625)"/>
      </defs>
      <use xlink:href="#DejaVuSans-76"/>
      <use xlink:href="#DejaVuSans-61" x="59.179688"/>
      <use xlink:href="#DejaVuSans-6c" x="120.458984"/>
      <use xlink:href="#DejaVuSans-69" x="148.242188"/>
      <use xlink:href="#DejaVuSans-64" x="176.025391"/>
      <use xlink:href="#DejaVuSans-5f" x="239.501953"/>
      <use xlink:href="#DejaVuSans-6c" x="289.501953"/>
      <use xlink:href="#DejaVuSans-6f" x="317.285156"/>
      <use xlink:href="#DejaVuSans-61" x="378.466797"/>
      <use xlink:href="#DejaVuSans-64" x="439.746094"/>
      <use xlink:href="#DejaVuSans-5f" x="503.222656"/>
      <use xlink:href="#DejaVuSans-65" x="553.222656"/>
      <use xlink:href="#DejaVuSans-6e" x="614.746094"/>
      <use xlink:href="#DejaVuSans-20" x="678.125"/>
      <use xlink:href="#DejaVuSans-20" x="709.912109"/>
     </g>
    </g>
   </g>
   <g id="patch_16">
    <path d="M 31.44795 356.805 
C 32.056591 356.805 32.640386 356.563184 33.07076 356.13281 
C 33.501134 355.702436 33.74295 355.118641 33.74295 354.51 
C 33.74295 353.901359 33.501134 353.317564 33.07076 352.88719 
C 32.640386 352.456816 32.056591 352.215 31.44795 352.215 
C 30.839309 352.215 30.255514 352.456816 29.82514 352.88719 
C 29.394766 353.317564 29.15295 353.901359 29.15295 354.51 
C 29.15295 355.118641 29.394766 355.702436 29.82514 356.13281 
C 30.255514 356.563184 30.839309 356.805 31.44795 356.805 
z
" clip-path="url(#p5f7e79117f)" style="stroke: #000000; stroke-width: 2; stroke-linejoin: miter"/>
   </g>
   <g id="text_20">
    <g clip-path="url(#p5f7e79117f)">
     <!-- from_ready -->
     <g transform="translate(10.16295 343.912734)scale(0.125 -0.125)">
      <defs>
       <path id="DejaVuSans-79" d="M 2059 -325 
Q 1816 -950 1584 -1140 
Q 1353 -1331 966 -1331 
L 506 -1331 
L 506 -850 
L 844 -850 
Q 1081 -850 1212 -737 
Q 1344 -625 1503 -206 
L 1606 56 
L 191 3500 
L 800 3500 
L 1894 763 
L 2988 3500 
L 3597 3500 
L 2059 -325 
z
" transform="scale(0.015625)"/>
      </defs>
      <use xlink:href="#DejaVuSans-66"/>
      <use xlink:href="#DejaVuSans-72" x="35.205078"/>
      <use xlink:href="#DejaVuSans-6f" x="74.068359"/>
      <use xlink:href="#DejaVuSans-6d" x="135.25"/>
      <use xlink:href="#DejaVuSans-5f" x="232.662109"/>
      <use xlink:href="#DejaVuSans-72" x="282.662109"/>
      <use xlink:href="#DejaVuSans-65" x="321.525391"/>
      <use xlink:href="#DejaVuSans-61" x="383.048828"/>
      <use xlink:href="#DejaVuSans-64" x="444.328125"/>
      <use xlink:href="#DejaVuSans-79" x="507.804688"/>
     </g>
    </g>
   </g>
   <g id="patch_17">
    <path d="M 62.04795 356.805 
C 62.656591 356.805 63.240386 356.563184 63.67076 356.13281 
C 64.101134 355.702436 64.34295 355.118641 64.34295 354.51 
C 64.34295 353.901359 64.101134 353.317564 63.67076 352.88719 
C 63.240386 352.456816 62.656591 352.215 62.04795 352.215 
C 61.439309 352.215 60.855514 352.456816 60.42514 352.88719 
C 59.994766 353.317564 59.75295 353.901359 59.75295 354.51 
C 59.75295 355.118641 59.994766 355.702436 60.42514 356.13281 
C 60.855514 356.563184 61.439309 356.805 62.04795 356.805 
z
" clip-path="url(#p5f7e79117f)" style="stroke: #000000; stroke-width: 2; stroke-linejoin: miter"/>
   </g>
   <g id="patch_18">
    <path d="M 398.64795 203.805 
C 399.256591 203.805 399.840386 203.563184 400.27076 203.13281 
C 400.701134 202.702436 400.94295 202.118641 400.94295 201.51 
C 400.94295 200.901359 400.701134 200.317564 400.27076 199.88719 
C 399.840386 199.456816 399.256591 199.215 398.64795 199.215 
C 398.039309 199.215 397.455514 199.456816 397.02514 199.88719 
C 396.594766 200.317564 396.35295 200.901359 396.35295 201.51 
C 396.35295 202.118641 396.594766 202.702436 397.02514 203.13281 
C 397.455514 203.563184 398.039309 203.805 398.64795 203.805 
z
" clip-path="url(#p5f7e79117f)" style="stroke: #000000; stroke-width: 2; stroke-linejoin: miter"/>
   </g>
   <g id="text_21">
    <g clip-path="url(#p5f7e79117f)">
     <!-- data_is_sent_to -->
     <g transform="translate(189.765528 315.966047)scale(0.125 -0.125)">
      <use xlink:href="#DejaVuSans-64"/>
      <use xlink:href="#DejaVuSans-61" x="63.476562"/>
      <use xlink:href="#DejaVuSans-74" x="124.755859"/>
      <use xlink:href="#DejaVuSans-61" x="163.964844"/>
      <use xlink:href="#DejaVuSans-5f" x="225.244141"/>
      <use xlink:href="#DejaVuSans-69" x="275.244141"/>
      <use xlink:href="#DejaVuSans-73" x="303.027344"/>
      <use xlink:href="#DejaVuSans-5f" x="355.126953"/>
      <use xlink:href="#DejaVuSans-73" x="405.126953"/>
      <use xlink:href="#DejaVuSans-65" x="457.226562"/>
      <use xlink:href="#DejaVuSans-6e" x="518.75"/>
      <use xlink:href="#DejaVuSans-74" x="582.128906"/>
      <use xlink:href="#DejaVuSans-5f" x="621.337891"/>
      <use xlink:href="#DejaVuSans-74" x="671.337891"/>
      <use xlink:href="#DejaVuSans-6f" x="710.546875"/>
     </g>
    </g>
   </g>
   <g id="patch_19">
    <path d="M 149.25795 410.355 
C 149.866591 410.355 150.450386 410.113184 150.88076 409.68281 
C 151.311134 409.252436 151.55295 408.668641 151.55295 408.06 
C 151.55295 407.451359 151.311134 406.867564 150.88076 406.43719 
C 150.450386 406.006816 149.866591 405.765 149.25795 405.765 
C 148.649309 405.765 148.065514 406.006816 147.63514 406.43719 
C 147.204766 406.867564 146.96295 407.451359 146.96295 408.06 
C 146.96295 408.668641 147.204766 409.252436 147.63514 409.68281 
C 148.065514 410.113184 148.649309 410.355 149.25795 410.355 
z
" clip-path="url(#p5f7e79117f)" style="stroke: #000000; stroke-width: 2; stroke-linejoin: miter"/>
   </g>
   <g id="text_22">
    <g clip-path="url(#p5f7e79117f)">
     <!-- input_ready_and_valid -->
     <g transform="translate(231.159278 399.757734)scale(0.125 -0.125)">
      <defs>
       <path id="DejaVuSans-70" d="M 1159 525 
L 1159 -1331 
L 581 -1331 
L 581 3500 
L 1159 3500 
L 1159 2969 
Q 1341 3281 1617 3432 
Q 1894 3584 2278 3584 
Q 2916 3584 3314 3078 
Q 3713 2572 3713 1747 
Q 3713 922 3314 415 
Q 2916 -91 2278 -91 
Q 1894 -91 1617 61 
Q 1341 213 1159 525 
z
M 3116 1747 
Q 3116 2381 2855 2742 
Q 2594 3103 2138 3103 
Q 1681 3103 1420 2742 
Q 1159 2381 1159 1747 
Q 1159 1113 1420 752 
Q 1681 391 2138 391 
Q 2594 391 2855 752 
Q 3116 1113 3116 1747 
z
" transform="scale(0.015625)"/>
       <path id="DejaVuSans-75" d="M 544 1381 
L 544 3500 
L 1119 3500 
L 1119 1403 
Q 1119 906 1312 657 
Q 1506 409 1894 409 
Q 2359 409 2629 706 
Q 2900 1003 2900 1516 
L 2900 3500 
L 3475 3500 
L 3475 0 
L 2900 0 
L 2900 538 
Q 2691 219 2414 64 
Q 2138 -91 1772 -91 
Q 1169 -91 856 284 
Q 544 659 544 1381 
z
M 1991 3584 
L 1991 3584 
z
" transform="scale(0.015625)"/>
      </defs>
      <use xlink:href="#DejaVuSans-69"/>
      <use xlink:href="#DejaVuSans-6e" x="27.783203"/>
      <use xlink:href="#DejaVuSans-70" x="91.162109"/>
      <use xlink:href="#DejaVuSans-75" x="154.638672"/>
      <use xlink:href="#DejaVuSans-74" x="218.017578"/>
      <use xlink:href="#DejaVuSans-5f" x="257.226562"/>
      <use xlink:href="#DejaVuSans-72" x="307.226562"/>
      <use xlink:href="#DejaVuSans-65" x="346.089844"/>
      <use xlink:href="#DejaVuSans-61" x="407.613281"/>
      <use xlink:href="#DejaVuSans-64" x="468.892578"/>
      <use xlink:href="#DejaVuSans-79" x="532.369141"/>
      <use xlink:href="#DejaVuSans-5f" x="591.548828"/>
      <use xlink:href="#DejaVuSans-61" x="641.548828"/>
      <use xlink:href="#DejaVuSans-6e" x="702.828125"/>
      <use xlink:href="#DejaVuSans-64" x="766.207031"/>
      <use xlink:href="#DejaVuSans-5f" x="829.683594"/>
      <use xlink:href="#DejaVuSans-76" x="879.683594"/>
      <use xlink:href="#DejaVuSans-61" x="938.863281"/>
      <use xlink:href="#DejaVuSans-6c" x="1000.142578"/>
      <use xlink:href="#DejaVuSans-69" x="1027.925781"/>
      <use xlink:href="#DejaVuSans-64" x="1055.708984"/>
     </g>
    </g>
   </g>
   <g id="text_23">
    <g clip-path="url(#p5f7e79117f)">
     <!-- skid_data_load_en -->
     <g transform="translate(500.570684 420.618047)scale(0.125 -0.125)">
      <use xlink:href="#DejaVuSans-73"/>
      <use xlink:href="#DejaVuSans-6b" x="52.099609"/>
      <use xlink:href="#DejaVuSans-69" x="110.009766"/>
      <use xlink:href="#DejaVuSans-64" x="137.792969"/>
      <use xlink:href="#DejaVuSans-5f" x="201.269531"/>
      <use xlink:href="#DejaVuSans-64" x="251.269531"/>
      <use xlink:href="#DejaVuSans-61" x="314.746094"/>
      <use xlink:href="#DejaVuSans-74" x="376.025391"/>
      <use xlink:href="#DejaVuSans-61" x="415.234375"/>
      <use xlink:href="#DejaVuSans-5f" x="476.513672"/>
      <use xlink:href="#DejaVuSans-6c" x="526.513672"/>
      <use xlink:href="#DejaVuSans-6f" x="554.296875"/>
      <use xlink:href="#DejaVuSans-61" x="615.478516"/>
      <use xlink:href="#DejaVuSans-64" x="676.757812"/>
      <use xlink:href="#DejaVuSans-5f" x="740.234375"/>
      <use xlink:href="#DejaVuSans-65" x="790.234375"/>
      <use xlink:href="#DejaVuSans-6e" x="851.757812"/>
     </g>
    </g>
   </g>
   <g id="text_24">
    <g clip-path="url(#p5f7e79117f)">
     <!--  -->
     <g transform="translate(451.43295 430.716047)scale(0.125 -0.125)"/>
    </g>
    <g clip-path="url(#p5f7e79117f)">
     <!-- to_is_not_ready -->
     <g transform="translate(402.784513 444.713312)scale(0.125 -0.125)">
      <use xlink:href="#DejaVuSans-74"/>
      <use xlink:href="#DejaVuSans-6f" x="39.208984"/>
      <use xlink:href="#DejaVuSans-5f" x="100.390625"/>
      <use xlink:href="#DejaVuSans-69" x="150.390625"/>
      <use xlink:href="#DejaVuSans-73" x="178.173828"/>
      <use xlink:href="#DejaVuSans-5f" x="230.273438"/>
      <use xlink:href="#DejaVuSans-6e" x="280.273438"/>
      <use xlink:href="#DejaVuSans-6f" x="343.652344"/>
      <use xlink:href="#DejaVuSans-74" x="404.833984"/>
      <use xlink:href="#DejaVuSans-5f" x="444.042969"/>
      <use xlink:href="#DejaVuSans-72" x="494.042969"/>
      <use xlink:href="#DejaVuSans-65" x="532.90625"/>
      <use xlink:href="#DejaVuSans-61" x="594.429688"/>
      <use xlink:href="#DejaVuSans-64" x="655.708984"/>
      <use xlink:href="#DejaVuSans-79" x="719.185547"/>
     </g>
    </g>
   </g>
   <g id="text_25">
    <g clip-path="url(#p5f7e79117f)">
     <!-- skid_valid_load_en -->
     <g transform="translate(710.819083 293.016047)scale(0.125 -0.125)">
      <use xlink:href="#DejaVuSans-73"/>
      <use xlink:href="#DejaVuSans-6b" x="52.099609"/>
      <use xlink:href="#DejaVuSans-69" x="110.009766"/>
      <use xlink:href="#DejaVuSans-64" x="137.792969"/>
      <use xlink:href="#DejaVuSans-5f" x="201.269531"/>
      <use xlink:href="#DejaVuSans-76" x="251.269531"/>
      <use xlink:href="#DejaVuSans-61" x="310.449219"/>
      <use xlink:href="#DejaVuSans-6c" x="371.728516"/>
      <use xlink:href="#DejaVuSans-69" x="399.511719"/>
      <use xlink:href="#DejaVuSans-64" x="427.294922"/>
      <use xlink:href="#DejaVuSans-5f" x="490.771484"/>
      <use xlink:href="#DejaVuSans-6c" x="540.771484"/>
      <use xlink:href="#DejaVuSans-6f" x="568.554688"/>
      <use xlink:href="#DejaVuSans-61" x="629.736328"/>
      <use xlink:href="#DejaVuSans-64" x="691.015625"/>
      <use xlink:href="#DejaVuSans-5f" x="754.492188"/>
      <use xlink:href="#DejaVuSans-65" x="804.492188"/>
      <use xlink:href="#DejaVuSans-6e" x="866.015625"/>
     </g>
    </g>
   </g>
   <g id="text_26">
    <g clip-path="url(#p5f7e79117f)">
     <!-- D -->
     <g transform="translate(849.99795 260.129406)scale(0.095 -0.095)">
      <use xlink:href="#DejaVuSans-44"/>
     </g>
    </g>
   </g>
   <g id="text_27">
    <g clip-path="url(#p5f7e79117f)">
     <!-- En -->
     <g transform="translate(849.99795 283.079406)scale(0.095 -0.095)">
      <use xlink:href="#DejaVuSans-45"/>
      <use xlink:href="#DejaVuSans-6e" x="63.183594"/>
     </g>
    </g>
   </g>
   <g id="text_28">
    <g clip-path="url(#p5f7e79117f)">
     <!-- Q -->
     <g transform="translate(894.539669 260.129406)scale(0.095 -0.095)">
      <use xlink:href="#DejaVuSans-51"/>
     </g>
    </g>
   </g>
   <g id="patch_20">
    <path d="M 814.80795 203.805 
C 815.416591 203.805 816.000386 203.563184 816.43076 203.13281 
C 816.861134 202.702436 817.10295 202.118641 817.10295 201.51 
C 817.10295 200.901359 816.861134 200.317564 816.43076 199.88719 
C 816.000386 199.456816 815.416591 199.215 814.80795 199.215 
C 814.199309 199.215 813.615514 199.456816 813.18514 199.88719 
C 812.754766 200.317564 812.51295 200.901359 812.51295 201.51 
C 812.51295 202.118641 812.754766 202.702436 813.18514 203.13281 
C 813.615514 203.563184 814.199309 203.805 814.80795 203.805 
z
" clip-path="url(#p5f7e79117f)" style="stroke: #000000; stroke-width: 2; stroke-linejoin: miter"/>
   </g>
   <g id="patch_21">
    <path d="M 1071.84795 211.455 
C 1072.456591 211.455 1073.040386 211.213184 1073.47076 210.78281 
C 1073.901134 210.352436 1074.14295 209.768641 1074.14295 209.16 
C 1074.14295 208.551359 1073.901134 207.967564 1073.47076 207.53719 
C 1073.040386 207.106816 1072.456591 206.865 1071.84795 206.865 
C 1071.239309 206.865 1070.655514 207.106816 1070.22514 207.53719 
C 1069.794766 207.967564 1069.55295 208.551359 1069.55295 209.16 
C 1069.55295 209.768641 1069.794766 210.352436 1070.22514 210.78281 
C 1070.655514 211.213184 1071.239309 211.455 1071.84795 211.455 
z
" clip-path="url(#p5f7e79117f)" style="stroke: #000000; stroke-width: 2; stroke-linejoin: miter"/>
   </g>
   <g id="text_29">
    <g clip-path="url(#p5f7e79117f)">
     <!-- to_valid -->
     <g transform="translate(1033.326309 198.562734)scale(0.125 -0.125)">
      <use xlink:href="#DejaVuSans-74"/>
      <use xlink:href="#DejaVuSans-6f" x="39.208984"/>
      <use xlink:href="#DejaVuSans-5f" x="100.390625"/>
      <use xlink:href="#DejaVuSans-76" x="150.390625"/>
      <use xlink:href="#DejaVuSans-61" x="209.570312"/>
      <use xlink:href="#DejaVuSans-6c" x="270.849609"/>
      <use xlink:href="#DejaVuSans-69" x="298.632812"/>
      <use xlink:href="#DejaVuSans-64" x="326.416016"/>
     </g>
    </g>
   </g>
   <g id="text_30">
    <g clip-path="url(#p5f7e79117f)">
     <!--  -->
     <g transform="translate(940.26795 246.786125)scale(0.125 -0.125)"/>
    </g>
    <g clip-path="url(#p5f7e79117f)">
     <!--  -->
     <g transform="translate(940.26795 260.783391)scale(0.125 -0.125)"/>
    </g>
    <g clip-path="url(#p5f7e79117f)">
     <!-- data_valid_skid_reg_read -->
     <g transform="translate(940.26795 274.780656)scale(0.125 -0.125)">
      <use xlink:href="#DejaVuSans-64"/>
      <use xlink:href="#DejaVuSans-61" x="63.476562"/>
      <use xlink:href="#DejaVuSans-74" x="124.755859"/>
      <use xlink:href="#DejaVuSans-61" x="163.964844"/>
      <use xlink:href="#DejaVuSans-5f" x="225.244141"/>
      <use xlink:href="#DejaVuSans-76" x="275.244141"/>
      <use xlink:href="#DejaVuSans-61" x="334.423828"/>
      <use xlink:href="#DejaVuSans-6c" x="395.703125"/>
      <use xlink:href="#DejaVuSans-69" x="423.486328"/>
      <use xlink:href="#DejaVuSans-64" x="451.269531"/>
      <use xlink:href="#DejaVuSans-5f" x="514.746094"/>
      <use xlink:href="#DejaVuSans-73" x="564.746094"/>
      <use xlink:href="#DejaVuSans-6b" x="616.845703"/>
      <use xlink:href="#DejaVuSans-69" x="674.755859"/>
      <use xlink:href="#DejaVuSans-64" x="702.539062"/>
      <use xlink:href="#DejaVuSans-5f" x="766.015625"/>
      <use xlink:href="#DejaVuSans-72" x="816.015625"/>
      <use xlink:href="#DejaVuSans-65" x="854.878906"/>
      <use xlink:href="#DejaVuSans-67" x="916.402344"/>
      <use xlink:href="#DejaVuSans-5f" x="979.878906"/>
      <use xlink:href="#DejaVuSans-72" x="1029.878906"/>
      <use xlink:href="#DejaVuSans-65" x="1068.742188"/>
      <use xlink:href="#DejaVuSans-61" x="1130.265625"/>
      <use xlink:href="#DejaVuSans-64" x="1191.544922"/>
     </g>
    </g>
   </g>
   <g id="patch_22">
    <path d="M 983.10795 219.105 
C 983.716591 219.105 984.300386 218.863184 984.73076 218.43281 
C 985.161134 218.002436 985.40295 217.418641 985.40295 216.81 
C 985.40295 216.201359 985.161134 215.617564 984.73076 215.18719 
C 984.300386 214.756816 983.716591 214.515 983.10795 214.515 
C 982.499309 214.515 981.915514 214.756816 981.48514 215.18719 
C 981.054766 215.617564 980.81295 216.201359 980.81295 216.81 
C 980.81295 217.418641 981.054766 218.002436 981.48514 218.43281 
C 981.915514 218.863184 982.499309 219.105 983.10795 219.105 
z
" clip-path="url(#p5f7e79117f)" style="stroke: #000000; stroke-width: 2; stroke-linejoin: miter"/>
   </g>
   <g id="patch_23">
    <path d="M 937.20795 259.803 
C 937.816591 259.803 938.400386 259.561184 938.83076 259.13081 
C 939.261134 258.700436 939.50295 258.116641 939.50295 257.508 
C 939.50295 256.899359 939.261134 256.315564 938.83076 255.88519 
C 938.400386 255.454816 937.816591 255.213 937.20795 255.213 
C 936.599309 255.213 936.015514 255.454816 935.58514 255.88519 
C 935.154766 256.315564 934.91295 256.899359 934.91295 257.508 
C 934.91295 258.116641 935.154766 258.700436 935.58514 259.13081 
C 936.015514 259.561184 936.599309 259.803 937.20795 259.803 
z
" clip-path="url(#p5f7e79117f)" style="stroke: #000000; stroke-width: 2; stroke-linejoin: miter"/>
   </g>
   <g id="patch_24">
    <path d="M 937.20795 356.805 
C 937.816591 356.805 938.400386 356.563184 938.83076 356.13281 
C 939.261134 355.702436 939.50295 355.118641 939.50295 354.51 
C 939.50295 353.901359 939.261134 353.317564 938.83076 352.88719 
C 938.400386 352.456816 937.816591 352.215 937.20795 352.215 
C 936.599309 352.215 936.015514 352.456816 935.58514 352.88719 
C 935.154766 353.317564 934.91295 353.901359 934.91295 354.51 
C 934.91295 355.118641 935.154766 355.702436 935.58514 356.13281 
C 936.015514 356.563184 936.599309 356.805 937.20795 356.805 
z
" clip-path="url(#p5f7e79117f)" style="stroke: #000000; stroke-width: 2; stroke-linejoin: miter"/>
   </g>
   <g id="text_31">
    <g clip-path="url(#p5f7e79117f)">
     <!-- from_skid_rdy -->
     <g transform="translate(785.953809 350.786758)scale(0.125 -0.125)">
      <use xlink:href="#DejaVuSans-66"/>
      <use xlink:href="#DejaVuSans-72" x="35.205078"/>
      <use xlink:href="#DejaVuSans-6f" x="74.068359"/>
      <use xlink:href="#DejaVuSans-6d" x="135.25"/>
      <use xlink:href="#DejaVuSans-5f" x="232.662109"/>
      <use xlink:href="#DejaVuSans-73" x="282.662109"/>
      <use xlink:href="#DejaVuSans-6b" x="334.761719"/>
      <use xlink:href="#DejaVuSans-69" x="392.671875"/>
      <use xlink:href="#DejaVuSans-64" x="420.455078"/>
      <use xlink:href="#DejaVuSans-5f" x="483.931641"/>
      <use xlink:href="#DejaVuSans-72" x="533.931641"/>
      <use xlink:href="#DejaVuSans-64" x="573.294922"/>
      <use xlink:href="#DejaVuSans-79" x="636.771484"/>
     </g>
    </g>
    <g clip-path="url(#p5f7e79117f)">
     <!--  -->
     <g transform="translate(872.94795 365.13168)scale(0.125 -0.125)"/>
    </g>
   </g>
   <g id="patch_25">
    <path d="M 368.04795 356.805 
C 368.656591 356.805 369.240386 356.563184 369.67076 356.13281 
C 370.101134 355.702436 370.34295 355.118641 370.34295 354.51 
C 370.34295 353.901359 370.101134 353.317564 369.67076 352.88719 
C 369.240386 352.456816 368.656591 352.215 368.04795 352.215 
C 367.439309 352.215 366.855514 352.456816 366.42514 352.88719 
C 365.994766 353.317564 365.75295 353.901359 365.75295 354.51 
C 365.75295 355.118641 365.994766 355.702436 366.42514 356.13281 
C 366.855514 356.563184 367.439309 356.805 368.04795 356.805 
z
" clip-path="url(#p5f7e79117f)" style="stroke: #000000; stroke-width: 2; stroke-linejoin: miter"/>
   </g>
   <g id="text_32">
    <g clip-path="url(#p5f7e79117f)">
     <!-- skid_valid_set_zero -->
     <g transform="translate(682.278458 435.918047)scale(0.125 -0.125)">
      <defs>
       <path id="DejaVuSans-7a" d="M 353 3500 
L 3084 3500 
L 3084 2975 
L 922 459 
L 3084 459 
L 3084 0 
L 275 0 
L 275 525 
L 2438 3041 
L 353 3041 
L 353 3500 
z
" transform="scale(0.015625)"/>
      </defs>
      <use xlink:href="#DejaVuSans-73"/>
      <use xlink:href="#DejaVuSans-6b" x="52.099609"/>
      <use xlink:href="#DejaVuSans-69" x="110.009766"/>
      <use xlink:href="#DejaVuSans-64" x="137.792969"/>
      <use xlink:href="#DejaVuSans-5f" x="201.269531"/>
      <use xlink:href="#DejaVuSans-76" x="251.269531"/>
      <use xlink:href="#DejaVuSans-61" x="310.449219"/>
      <use xlink:href="#DejaVuSans-6c" x="371.728516"/>
      <use xlink:href="#DejaVuSans-69" x="399.511719"/>
      <use xlink:href="#DejaVuSans-64" x="427.294922"/>
      <use xlink:href="#DejaVuSans-5f" x="490.771484"/>
      <use xlink:href="#DejaVuSans-73" x="540.771484"/>
      <use xlink:href="#DejaVuSans-65" x="592.871094"/>
      <use xlink:href="#DejaVuSans-74" x="654.394531"/>
      <use xlink:href="#DejaVuSans-5f" x="693.603516"/>
      <use xlink:href="#DejaVuSans-7a" x="743.603516"/>
      <use xlink:href="#DejaVuSans-65" x="796.09375"/>
      <use xlink:href="#DejaVuSans-72" x="857.617188"/>
      <use xlink:href="#DejaVuSans-6f" x="896.480469"/>
     </g>
    </g>
   </g>
   <g id="text_33">
    <g clip-path="url(#p5f7e79117f)">
     <!-- to_is_ready -->
     <g transform="translate(1021.259864 468.760734)scale(0.125 -0.125)">
      <use xlink:href="#DejaVuSans-74"/>
      <use xlink:href="#DejaVuSans-6f" x="39.208984"/>
      <use xlink:href="#DejaVuSans-5f" x="100.390625"/>
      <use xlink:href="#DejaVuSans-69" x="150.390625"/>
      <use xlink:href="#DejaVuSans-73" x="178.173828"/>
      <use xlink:href="#DejaVuSans-5f" x="230.273438"/>
      <use xlink:href="#DejaVuSans-72" x="280.273438"/>
      <use xlink:href="#DejaVuSans-65" x="319.136719"/>
      <use xlink:href="#DejaVuSans-61" x="380.660156"/>
      <use xlink:href="#DejaVuSans-64" x="441.939453"/>
      <use xlink:href="#DejaVuSans-79" x="505.416016"/>
     </g>
    </g>
   </g>
   <g id="patch_26">
    <path d="M 386.40795 420.453 
C 387.016591 420.453 387.600386 420.211184 388.03076 419.78081 
C 388.461134 419.350436 388.70295 418.766641 388.70295 418.158 
C 388.70295 417.549359 388.461134 416.965564 388.03076 416.53519 
C 387.600386 416.104816 387.016591 415.863 386.40795 415.863 
C 385.799309 415.863 385.215514 416.104816 384.78514 416.53519 
C 384.354766 416.965564 384.11295 417.549359 384.11295 418.158 
C 384.11295 418.766641 384.354766 419.350436 384.78514 419.78081 
C 385.215514 420.211184 385.799309 420.453 386.40795 420.453 
z
" clip-path="url(#p5f7e79117f)" style="stroke: #000000; stroke-width: 2; stroke-linejoin: miter"/>
   </g>
   <g id="patch_27">
    <path d="M 906.60795 481.653 
C 907.216591 481.653 907.800386 481.411184 908.23076 480.98081 
C 908.661134 480.550436 908.90295 479.966641 908.90295 479.358 
C 908.90295 478.749359 908.661134 478.165564 908.23076 477.73519 
C 907.800386 477.304816 907.216591 477.063 906.60795 477.063 
C 905.999309 477.063 905.415514 477.304816 904.98514 477.73519 
C 904.554766 478.165564 904.31295 478.749359 904.31295 479.358 
C 904.31295 479.966641 904.554766 480.550436 904.98514 480.98081 
C 905.415514 481.411184 905.999309 481.653 906.60795 481.653 
z
" clip-path="url(#p5f7e79117f)" style="stroke: #000000; stroke-width: 2; stroke-linejoin: miter"/>
   </g>
   <g id="patch_28">
    <path d="M 1061.74995 411.885 
C 1062.358591 411.885 1062.942386 411.643184 1063.37276 411.21281 
C 1063.803134 410.782436 1064.04495 410.198641 1064.04495 409.59 
C 1064.04495 408.981359 1063.803134 408.397564 1063.37276 407.96719 
C 1062.942386 407.536816 1062.358591 407.295 1061.74995 407.295 
C 1061.141309 407.295 1060.557514 407.536816 1060.12714 407.96719 
C 1059.696766 408.397564 1059.45495 408.981359 1059.45495 409.59 
C 1059.45495 410.198641 1059.696766 410.782436 1060.12714 411.21281 
C 1060.557514 411.643184 1061.141309 411.885 1061.74995 411.885 
z
" clip-path="url(#p5f7e79117f)" style="stroke: #000000; stroke-width: 2; stroke-linejoin: miter"/>
   </g>
   <g id="text_34">
    <g clip-path="url(#p5f7e79117f)">
     <!-- idle -->
     <g transform="translate(1036.311317 399.340391)scale(0.125 -0.125)">
      <use xlink:href="#DejaVuSans-69"/>
      <use xlink:href="#DejaVuSans-64" x="27.783203"/>
      <use xlink:href="#DejaVuSans-6c" x="91.259766"/>
      <use xlink:href="#DejaVuSans-65" x="119.042969"/>
     </g>
    </g>
   </g>
   <g id="patch_29">
    <path d="M 149.10495 219.105 
C 149.713591 219.105 150.297386 218.863184 150.72776 218.43281 
C 151.158134 218.002436 151.39995 217.418641 151.39995 216.81 
C 151.39995 216.201359 151.158134 215.617564 150.72776 215.18719 
C 150.297386 214.756816 149.713591 214.515 149.10495 214.515 
C 148.496309 214.515 147.912514 214.756816 147.48214 215.18719 
C 147.051766 215.617564 146.80995 216.201359 146.80995 216.81 
C 146.80995 217.418641 147.051766 218.002436 147.48214 218.43281 
C 147.912514 218.863184 148.496309 219.105 149.10495 219.105 
z
" clip-path="url(#p5f7e79117f)" style="stroke: #000000; stroke-width: 2; stroke-linejoin: miter"/>
   </g>
   <g id="patch_30">
    <path d="M 455.25795 203.805 
C 455.866591 203.805 456.450386 203.563184 456.88076 203.13281 
C 457.311134 202.702436 457.55295 202.118641 457.55295 201.51 
C 457.55295 200.901359 457.311134 200.317564 456.88076 199.88719 
C 456.450386 199.456816 455.866591 199.215 455.25795 199.215 
C 454.649309 199.215 454.065514 199.456816 453.63514 199.88719 
C 453.204766 200.317564 452.96295 200.901359 452.96295 201.51 
C 452.96295 202.118641 453.204766 202.702436 453.63514 203.13281 
C 454.065514 203.563184 454.649309 203.805 455.25795 203.805 
z
" clip-path="url(#p5f7e79117f)" style="stroke: #000000; stroke-width: 2; stroke-linejoin: miter"/>
   </g>
   <g id="patch_31">
    <path d="M 603.66795 275.103 
C 604.276591 275.103 604.860386 274.861184 605.29076 274.43081 
C 605.721134 274.000436 605.96295 273.416641 605.96295 272.808 
C 605.96295 272.199359 605.721134 271.615564 605.29076 271.18519 
C 604.860386 270.754816 604.276591 270.513 603.66795 270.513 
C 603.059309 270.513 602.475514 270.754816 602.04514 271.18519 
C 601.614766 271.615564 601.37295 272.199359 601.37295 272.808 
C 601.37295 273.416641 601.614766 274.000436 602.04514 274.43081 
C 602.475514 274.861184 603.059309 275.103 603.66795 275.103 
z
" clip-path="url(#p5f7e79117f)" style="stroke: #000000; stroke-width: 2; stroke-linejoin: miter"/>
   </g>
  </g>
 </g>
 <defs>
  <clipPath id="p5f7e79117f">
   <rect x="7.2" y="7.2" width="1093.678" height="479.808"/>
  </clipPath>
 </defs>
</svg>
