<?xml version="1.0" encoding="UTF-8" standalone="no"?>
<svg
   version="1.1"
   viewBox="0.00 0.00 623.00 250.00"
   id="svg511"
   sodipodi:docname="xls.svg"
   inkscape:version="1.2 (dc2aeda, 2022-05-15)"
   xmlns:inkscape="http://www.inkscape.org/namespaces/inkscape"
   xmlns:sodipodi="http://sodipodi.sourceforge.net/DTD/sodipodi-0.dtd"
   xmlns="http://www.w3.org/2000/svg"
   xmlns:svg="http://www.w3.org/2000/svg">
  <defs
     id="defs515">
    <filter
       style="color-interpolation-filters:sRGB;"
       inkscape:label="Drop Shadow"
       id="filter5538"
       x="-0.030251253"
       y="-0.046557745"
       width="1.0661046"
       height="1.1013062">
      <feFlood
         flood-opacity="0.960784"
         flood-color="rgb(139,139,139)"
         result="flood"
         id="feFlood5528" />
      <feComposite
         in="flood"
         in2="SourceGraphic"
         operator="in"
         result="composite1"
         id="feComposite5530" />
      <feGaussianBlur
         in="composite1"
         stdDeviation="4.5"
         result="blur"
         id="feGaussianBlur5532" />
      <feOffset
         dx="2"
         dy="1.9"
         result="offset"
         id="feOffset5534" />
      <feComposite
         in="SourceGraphic"
         in2="offset"
         operator="over"
         result="composite2"
         id="feComposite5536" />
    </filter>
    <filter
       style="color-interpolation-filters:sRGB;"
       inkscape:label="Drop Shadow"
       id="filter5550"
       x="-0.017791107"
       y="-0.044117776"
       width="1.0388769"
       height="1.095997">
      <feFlood
         flood-opacity="0.960784"
         flood-color="rgb(139,139,139)"
         result="flood"
         id="feFlood5540" />
      <feComposite
         in="flood"
         in2="SourceGraphic"
         operator="in"
         result="composite1"
         id="feComposite5542" />
      <feGaussianBlur
         in="composite1"
         stdDeviation="4.5"
         result="blur"
         id="feGaussianBlur5544" />
      <feOffset
         dx="2"
         dy="1.9"
         result="offset"
         id="feOffset5546" />
      <feComposite
         in="SourceGraphic"
         in2="offset"
         operator="over"
         result="composite2"
         id="feComposite5548" />
    </filter>
    <filter
       style="color-interpolation-filters:sRGB;"
       inkscape:label="Drop Shadow"
       id="filter5562"
       x="-0.057167027"
       y="-0.057403747"
       width="1.1249205"
       height="1.1249063">
      <feFlood
         flood-opacity="0.960784"
         flood-color="rgb(139,139,139)"
         result="flood"
         id="feFlood5552" />
      <feComposite
         in="flood"
         in2="SourceGraphic"
         operator="in"
         result="composite1"
         id="feComposite5554" />
      <feGaussianBlur
         in="composite1"
         stdDeviation="4.5"
         result="blur"
         id="feGaussianBlur5556" />
      <feOffset
         dx="2"
         dy="1.9"
         result="offset"
         id="feOffset5558" />
      <feComposite
         in="SourceGraphic"
         in2="offset"
         operator="over"
         result="composite2"
         id="feComposite5560" />
    </filter>
    <filter
       style="color-interpolation-filters:sRGB;"
       inkscape:label="Drop Shadow"
       id="filter5574"
       x="-0.057365657"
       y="-0.057321485"
       width="1.1253546"
       height="1.1247273">
      <feFlood
         flood-opacity="0.960784"
         flood-color="rgb(139,139,139)"
         result="flood"
         id="feFlood5564" />
      <feComposite
         in="flood"
         in2="SourceGraphic"
         operator="in"
         result="composite1"
         id="feComposite5566" />
      <feGaussianBlur
         in="composite1"
         stdDeviation="4.5"
         result="blur"
         id="feGaussianBlur5568" />
      <feOffset
         dx="2"
         dy="1.9"
         result="offset"
         id="feOffset5570" />
      <feComposite
         in="SourceGraphic"
         in2="offset"
         operator="over"
         result="composite2"
         id="feComposite5572" />
    </filter>
    <filter
       style="color-interpolation-filters:sRGB;"
       inkscape:label="Drop Shadow"
       id="filter5586"
       x="-0.057242515"
       y="-0.057267087"
       width="1.1250855"
       height="1.1246089">
      <feFlood
         flood-opacity="0.960784"
         flood-color="rgb(139,139,139)"
         result="flood"
         id="feFlood5576" />
      <feComposite
         in="flood"
         in2="SourceGraphic"
         operator="in"
         result="composite1"
         id="feComposite5578" />
      <feGaussianBlur
         in="composite1"
         stdDeviation="4.5"
         result="blur"
         id="feGaussianBlur5580" />
      <feOffset
         dx="2"
         dy="1.9"
         result="offset"
         id="feOffset5582" />
      <feComposite
         in="SourceGraphic"
         in2="offset"
         operator="over"
         result="composite2"
         id="feComposite5584" />
    </filter>
    <filter
       style="color-interpolation-filters:sRGB;"
       inkscape:label="Drop Shadow"
       id="filter5598"
       x="-0.017973713"
       y="-0.056161058"
       width="1.0406545"
       height="1.121365">
      <feFlood
         flood-opacity="0.960784"
         flood-color="rgb(139,139,139)"
         result="flood"
         id="feFlood5588" />
      <feComposite
         in="flood"
         in2="SourceGraphic"
         operator="in"
         result="composite1"
         id="feComposite5590" />
      <feGaussianBlur
         in="composite1"
         stdDeviation="4.5"
         result="blur"
         id="feGaussianBlur5592" />
      <feOffset
         dx="2"
         dy="1.9"
         result="offset"
         id="feOffset5594" />
      <feComposite
         in="SourceGraphic"
         in2="offset"
         operator="over"
         result="composite2"
         id="feComposite5596" />
    </filter>
  </defs>
  <sodipodi:namedview
     id="namedview513"
     pagecolor="#000000"
     bordercolor="#000000"
     borderopacity="0.25"
     inkscape:showpageshadow="2"
     inkscape:pageopacity="0"
     inkscape:pagecheckerboard="true"
     inkscape:deskcolor="#d1d1d1"
     showgrid="false"
     inkscape:zoom="1.9277689"
     inkscape:cx="277.52289"
     inkscape:cy="119.82764"
     inkscape:window-width="1601"
     inkscape:window-height="872"
     inkscape:window-x="0"
     inkscape:window-y="25"
     inkscape:window-maximized="0"
     inkscape:current-layer="svg511" />
  <g
     stroke-width="2.00"
     fill="none"
     stroke-linecap="butt"
     id="g435"
     style="filter:url(#filter5598)">
    <path
       stroke="#b86e64"
       vector-effect="non-scaling-stroke"
       d="   M 186.10 25.73   L 183.49 25.74"
       id="path391" />
    <path
       stroke="#cacaca"
       vector-effect="non-scaling-stroke"
       d="   M 183.49 25.74   L 183.53 14.66   Q 183.53 13.90 182.77 13.90   L 83.25 13.89   A 0.94 0.93 18.7 0 0 82.51 14.25   Q 80.97 16.24 78.77 15.01   Q 78.32 14.76 78.12 15.23   C 75.10 22.01 66.16 23.92 59.53 23.59   Q 58.94 23.56 58.82 22.97   L 58.53 21.55   Q 58.40 20.96 57.80 20.97   L 7.29 21.24   Q 7.09 21.24 7.09 21.43   L 7.05 25.66"
       id="path393" />
    <path
       stroke="#b86e64"
       vector-effect="non-scaling-stroke"
       d="   M 7.05 25.66   Q 5.77 26.10 4.52 25.69"
       id="path395" />
    <path
       stroke="#eda399"
       vector-effect="non-scaling-stroke"
       d="   M 183.49 25.74   L 95.65 112.91   Q 95.25 113.31 94.85 112.91   Q 52.40 70.46 9.98 28.02   Q 8.64 26.68 7.05 25.66"
       id="path397" />
    <path
       stroke="#b86e64"
       vector-effect="non-scaling-stroke"
       d="   M 185.34 214.24   L 182.73 214.08"
       id="path399" />
    <path
       stroke="#eda399"
       vector-effect="non-scaling-stroke"
       d="   M 182.73 214.08   L 95.72 127.08   A 0.58 0.58 0.0 0 0 94.90 127.08   Q 52.40 169.55 9.88 212.14   Q 8.00 214.03 6.04 214.25"
       id="path401" />
    <path
       stroke="#b86e64"
       vector-effect="non-scaling-stroke"
       d="   M 6.04 214.25   L 3.67 213.99"
       id="path403" />
    <path
       stroke="#cacaca"
       vector-effect="non-scaling-stroke"
       d="   M 182.73 214.08   L 182.74 223.40   Q 182.74 223.92 182.22 223.92   L 82.28 224.00   A 1.11 1.11 0.0 0 1 81.46 223.64   Q 79.76 221.85 77.79 223.27   Q 77.30 223.62 77.03 223.08   C 73.88 216.74 65.07 214.28 58.74 214.49   Q 57.75 214.52 57.75 215.51   L 57.75 218.42   Q 57.75 219.08 57.08 219.08   L 6.75 219.08   A 0.53 0.53 0.0 0 1 6.23 218.47   Q 6.55 216.36 6.04 214.25"
       id="path405" />
    <path
       stroke="#6281c6"
       vector-effect="non-scaling-stroke"
       d="   M 221.21 70.90   Q 221.27 71.29 220.25 71.53"
       id="path407" />
    <path
       stroke="#6281c6"
       vector-effect="non-scaling-stroke"
       d="   M 216.23 35.43   L 216.22 33.34"
       id="path409" />
    <path
       stroke="#6281c6"
       vector-effect="non-scaling-stroke"
       d="   M 221.52 97.32   Q 221.20 96.56 219.86 97.37"
       id="path411" />
    <path
       stroke="#6281c6"
       vector-effect="non-scaling-stroke"
       d="   M 221.44 142.55   Q 220.01 142.94 220.08 142.41"
       id="path413" />
    <path
       stroke="#6281c6"
       vector-effect="non-scaling-stroke"
       d="   M 216.25 118.46   L 216.13 116.49"
       id="path415" />
    <path
       stroke="#6281c6"
       vector-effect="non-scaling-stroke"
       d="   M 221.27 168.45   Q 220.34 168.63 219.66 169.44"
       id="path417" />
    <path
       stroke="#6281c6"
       vector-effect="non-scaling-stroke"
       d="   M 296.93 208.08   Q 297.33 208.93 297.42 209.87"
       id="path419" />
    <path
       stroke="#6281c6"
       vector-effect="non-scaling-stroke"
       d="   M 221.32 214.36   L 219.99 214.25"
       id="path421" />
    <path
       stroke="#6281c6"
       vector-effect="non-scaling-stroke"
       d="   M 323.53 209.33   Q 323.72 210.64 324.31 211.80"
       id="path423" />
    <path
       stroke="#6281c6"
       vector-effect="non-scaling-stroke"
       d="   M 400.50 214.21   Q 399.97 214.54 399.18 214.27"
       id="path425" />
    <path
       stroke="#bfad6d"
       vector-effect="non-scaling-stroke"
       d="   M 431.05 49.22   Q 431.27 48.14 431.03 47.03"
       id="path427" />
    <path
       stroke="#bfad6d"
       vector-effect="non-scaling-stroke"
       d="   M 430.81 101.32   Q 431.51 102.26 431.03 102.94"
       id="path429" />
    <path
       stroke="#bfad6d"
       vector-effect="non-scaling-stroke"
       d="   M 610.39 138.95   Q 610.92 137.85 610.20 137.00"
       id="path431" />
    <path
       stroke="#bfad6d"
       vector-effect="non-scaling-stroke"
       d="   M 610.05 190.80   Q 610.74 191.75 610.20 192.66"
       id="path433" />
  </g>
  <path
     fill="#da4733"
     d="   M 4.52 25.69   Q 5.77 26.10 7.05 25.66   Q 8.64 26.68 9.98 28.02   Q 52.40 70.46 94.85 112.91   Q 95.25 113.31 95.65 112.91   L 183.49 25.74   L 186.10 25.73   C 188.23 26.61 190.21 29.01 189.44 31.47   Q 188.98 32.96 188.61 33.33   Q 145.41 76.54 102.24 119.73   A 0.39 0.39 0.0 0 0 102.24 120.29   Q 145.00 163.10 187.81 205.94   C 190.87 209.01 189.77 213.63 185.34 214.24   L 182.73 214.08   L 95.72 127.08   A 0.58 0.58 0.0 0 0 94.90 127.08   Q 52.40 169.55 9.88 212.14   Q 8.00 214.03 6.04 214.25   L 3.67 213.99   C -0.81 210.67 0.85 207.76 4.15 204.47   Q 46.12 162.51 88.01 120.62   A 0.88 0.88 0.0 0 0 88.01 119.38   Q 46.08 77.39 4.27 35.64   C 0.72 32.09 -1.02 28.65 4.52 25.69   Z"
     id="path443"
     style="filter:url(#filter5586)" />
  <g
     fill="#2f6df6"
     id="g453"
     style="filter:url(#filter5574)">
    <path
       d="   M 221.21 70.90   Q 221.27 71.29 220.25 71.53   Q 219.91 70.68 218.45 70.09   C 216.92 69.47 216.24 67.45 216.24 65.74   Q 216.25 50.62 216.23 35.43   L 216.22 33.34   Q 215.61 29.11 217.76 27.16   C 219.98 25.15 223.53 25.76 224.74 28.60   Q 225.20 29.67 225.19 31.97   Q 225.18 49.12 225.20 66.26   Q 225.21 69.70 221.21 70.90   Z"
       id="path445" />
    <path
       d="   M 221.52 97.32   Q 225.19 98.52 225.19 101.49   Q 225.20 118.89 225.18 136.25   Q 225.17 141.18 221.44 142.55   Q 220.01 142.94 220.08 142.41   Q 216.34 141.46 216.30 138.75   Q 216.19 128.63 216.25 118.46   L 216.13 116.49   Q 216.32 109.17 216.25 101.25   Q 216.23 98.51 219.86 97.37   Q 221.20 96.56 221.52 97.32   Z"
       id="path447" />
    <path
       d="   M 221.27 168.45   C 222.51 170.80 225.18 170.15 225.19 173.75   Q 225.20 189.25 225.18 204.67   Q 225.18 205.15 225.67 205.15   Q 259.63 205.13 293.51 205.15   Q 295.45 205.16 296.93 208.08   Q 297.33 208.93 297.42 209.87   Q 296.18 214.05 291.51 214.05   Q 256.74 214.03 222.00 214.06   Q 221.61 214.06 221.32 214.36   L 219.99 214.25   C 216.98 213.52 216.12 211.67 216.15 208.61   Q 216.41 184.44 216.22 174.75   Q 216.14 170.63 219.66 169.44   Q 220.34 168.63 221.27 168.45   Z"
       id="path449" />
    <path
       d="   M 400.50 214.21   Q 399.97 214.54 399.18 214.27   Q 399.20 214.18 399.09 214.10   Q 399.01 214.04 398.90 214.04   Q 363.32 214.05 327.75 214.04   Q 325.88 214.04 324.31 211.80   Q 323.72 210.64 323.53 209.33   Q 324.72 205.14 329.49 205.14   Q 364.38 205.15 399.25 205.14   C 405.35 205.14 406.24 212.25 400.50 214.21   Z"
       id="path451" />
  </g>
  <g
     fill="#e9c545"
     id="g461"
     style="filter:url(#filter5562)">
    <path
       d="   M 431.05 49.22   Q 431.27 48.14 431.03 47.03   L 431.06 30.21   Q 431.06 26.00 435.27 26.00   L 614.78 25.99   Q 619.28 25.99 619.17 30.49   L 619.15 31.43   A 3.65 3.65 0.0 0 1 615.50 34.99   L 440.74 34.97   A 0.39 0.39 0.0 0 0 440.35 35.37   Q 440.44 41.92 440.32 48.50   C 440.22 54.01 432.93 54.61 431.05 49.22   Z"
       id="path455" />
    <path
       d="   M 610.39 138.95   Q 610.92 137.85 610.20 137.00   L 610.18 125.29   Q 610.18 124.77 609.65 124.76   Q 524.91 124.74 440.20 124.77   C 435.96 124.77 433.03 125.56 431.48 121.97   Q 430.93 120.68 430.97 117.97   Q 431.08 110.46 431.03 102.94   Q 431.51 102.26 430.81 101.32   Q 432.05 99.11 432.80 98.54   C 436.42 95.77 440.57 98.62 440.43 102.89   Q 440.23 108.78 440.40 114.68   Q 440.42 115.25 440.98 115.25   L 614.78 115.25   A 4.95 4.95 0.0 0 1 619.73 120.22   Q 619.68 128.30 619.73 137.00   C 619.76 143.04 612.32 144.95 610.39 138.95   Z"
       id="path457" />
    <path
       d="   M 610.20 192.66   Q 610.74 191.75 610.05 190.80   C 611.69 188.37 612.99 186.18 616.50 187.28   Q 619.34 188.17 619.46 191.93   Q 619.71 200.13 619.68 208.33   C 619.67 212.26 618.64 214.12 614.50 214.11   Q 526.77 214.07 439.05 214.13   C 435.26 214.13 431.64 214.30 431.03 210.27   C 430.45 206.38 433.76 205.01 437.19 205.01   Q 523.35 205.00 609.76 205.00   A 0.43 0.43 0.0 0 0 610.19 204.57   L 610.20 192.66   Z"
       id="path459" />
  </g>
  <g
     fill="#959595"
     id="g497"
     style="filter:url(#filter5550)">
    <path
       d="   M 186.10 25.73   L 183.49 25.74   L 183.53 14.66   Q 183.53 13.90 182.77 13.90   L 83.25 13.89   A 0.94 0.93 18.7 0 0 82.51 14.25   Q 80.97 16.24 78.77 15.01   Q 78.32 14.76 78.12 15.23   C 75.10 22.01 66.16 23.92 59.53 23.59   Q 58.94 23.56 58.82 22.97   L 58.53 21.55   Q 58.40 20.96 57.80 20.97   L 7.29 21.24   Q 7.09 21.24 7.09 21.43   L 7.05 25.66   Q 5.77 26.10 4.52 25.69   L 4.34 19.92   Q 4.30 18.66 5.56 18.67   L 57.77 18.89   A 0.92 0.91 -0.0 0 0 58.69 17.98   L 58.74 9.22   A 0.52 0.52 0.0 0 0 58.22 8.70   L 5.72 8.83   Q 4.73 8.83 4.62 7.84   L 4.59 7.58   Q 4.46 6.37 5.67 6.38   L 57.89 6.55   A 0.71 0.71 0.0 0 0 58.60 5.87   L 58.74 2.50   A 0.81 0.80 0.7 0 1 59.54 1.73   C 66.27 1.69 74.36 4.00 77.90 10.34   Q 78.16 10.79 78.59 10.51   Q 80.54 9.21 82.24 10.80   Q 82.57 11.11 83.03 11.11   L 184.82 11.07   Q 186.23 11.07 186.22 12.48   L 186.10 25.73   Z"
       id="path463" />
    <path
       d="   M 216.22 33.34   L 216.23 35.43   L 208.09 40.74   Q 207.58 41.07 207.92 41.57   L 212.18 48.02   Q 212.64 48.71 211.88 49.05   L 211.46 49.23   A 0.62 0.62 0.0 0 1 210.68 49.00   L 200.95 34.19   A 0.86 0.85 -28.4 0 1 201.33 32.94   L 201.61 32.82   A 0.58 0.58 0.0 0 1 202.33 33.03   L 206.36 39.17   Q 206.60 39.54 206.96 39.30   L 216.22 33.34   Z"
       id="path465" />
    <path
       d="   M 197.97 43.79   L 194.50 38.51   A 0.92 0.91 -36.1 0 1 194.69 37.30   L 194.93 37.10   A 0.62 0.61 53.5 0 1 195.83 37.24   L 205.82 52.47   Q 206.30 53.19 205.52 53.57   L 205.25 53.70   A 0.75 0.74 60.2 0 1 204.31 53.44   L 200.14 47.10   Q 199.60 46.28 198.78 46.81   L 193.67 50.16   Q 192.83 50.71 193.39 51.55   L 195.23 54.30   A 0.94 0.94 0.0 0 1 194.46 55.76   L 184.71 55.77   A 0.78 0.78 0.0 0 1 183.99 54.69   L 187.65 45.61   A 1.05 1.04 -49.2 0 1 189.52 45.47   L 191.15 48.23   Q 191.77 49.28 192.78 48.61   L 197.63 45.43   Q 198.62 44.78 197.97 43.79   Z"
       id="path467" />
    <path
       d="   M 431.03 47.03   Q 431.27 48.14 431.05 49.22   L 426.94 49.27   Q 426.45 49.28 426.45 49.77   L 426.47 100.73   Q 426.47 101.21 426.95 101.22   L 430.81 101.32   Q 431.51 102.26 431.03 102.94   L 425.14 102.97   A 0.46 0.46 0.0 0 1 424.67 102.51   L 424.68 48.04   A 0.80 0.79 -86.2 0 1 425.58 47.25   Q 428.22 47.62 430.88 47.42   Q 431.00 47.41 431.02 47.29   Q 431.05 47.16 431.03 47.03   Z"
       id="path469" />
    <path
       d="   M 416.98 71.28   L 416.97 57.53   A 0.55 0.55 0.0 0 1 417.48 56.98   L 417.92 56.95   Q 418.69 56.90 418.69 57.67   L 418.71 93.29   Q 418.71 93.96 418.04 93.91   L 417.59 93.88   A 0.68 0.68 0.0 0 1 416.96 93.20   L 416.96 79.46   Q 416.96 78.67 416.34 79.15   L 415.92 79.47   Q 415.58 79.72 415.18 79.85   C 411.91 80.89 410.41 79.24 408.81 76.70   Q 408.56 76.30 408.07 76.29   L 399.47 76.21   Q 398.99 76.21 399.04 75.73   L 399.08 75.42   Q 399.15 74.80 399.78 74.79   L 408.24 74.69   A 0.73 0.71 10.6 0 0 408.89 74.26   Q 411.22 68.95 416.40 71.64   Q 416.98 71.94 416.98 71.28   Z"
       id="path471" />
    <path
       d="   M 221.52 97.32   Q 221.20 96.56 219.86 97.37   L 215.63 97.53   Q 215.05 97.55 215.00 96.97   Q 214.93 96.23 215.84 95.86   Q 217.78 95.08 222.33 92.61   Q 222.94 92.29 222.25 92.29   L 217.49 92.32   Q 212.66 92.34 217.00 90.22   L 222.50 87.53   Q 223.25 87.16 222.41 87.19   Q 218.93 87.33 217.17 87.22   Q 213.26 86.98 216.77 85.25   L 222.28 82.54   Q 223.34 82.02 222.16 82.09   Q 219.70 82.25 217.21 82.20   Q 212.76 82.13 216.76 80.17   L 222.26 77.48   Q 223.35 76.94 222.14 77.00   Q 218.80 77.18 217.19 77.04   Q 213.31 76.70 216.83 75.03   L 222.03 72.58   Q 222.85 72.19 221.95 72.08   Q 220.86 71.95 220.25 71.53   Q 221.27 71.29 221.21 70.90   Q 223.66 70.56 224.62 70.57   Q 228.95 70.59 225.01 72.50   L 219.24 75.29   Q 218.50 75.65 219.32 75.70   Q 222.57 75.89 225.80 75.71   Q 226.01 75.70 226.18 75.78   Q 226.46 75.90 226.52 75.99   A 0.68 0.67 -29.5 0 1 226.24 76.97   L 219.22 80.42   Q 218.42 80.82 219.31 80.81   L 225.78 80.78   A 0.71 0.71 0.0 0 1 226.10 82.12   L 219.56 85.33   Q 218.36 85.93 219.70 85.94   L 226.05 85.99   A 0.61 0.60 -57.4 0 1 226.30 87.14   L 219.20 90.56   Q 218.23 91.02 219.30 91.02   L 224.28 91.01   Q 228.91 91.00 224.72 92.99   L 220.10 95.17   Q 218.38 95.99 220.25 95.93   Q 221.59 95.89 221.52 97.32   Z"
       id="path473" />
    <path
       d="   M 216.13 116.49   L 216.25 118.46   L 208.05 123.81   A 0.55 0.55 0.0 0 0 207.89 124.58   L 212.15 131.06   A 0.67 0.67 0.0 0 1 212.01 131.94   L 211.76 132.15   A 0.78 0.78 0.0 0 1 210.61 131.97   L 200.87 117.12   Q 200.35 116.33 201.24 116.02   L 201.65 115.88   A 0.58 0.58 0.0 0 1 202.33 116.11   L 206.34 122.23   Q 206.58 122.60 206.95 122.36   L 216.13 116.49   Z"
       id="path475" />
    <path
       d="   M 197.92 126.79   L 194.35 121.35   A 0.62 0.61 51.2 0 1 194.43 120.58   L 194.68 120.32   A 0.80 0.80 0.0 0 1 195.92 120.45   L 205.91 135.67   A 0.59 0.58 61.1 0 1 205.67 136.52   L 205.37 136.66   Q 204.62 137.00 204.17 136.31   L 200.20 130.26   Q 199.60 129.35 198.69 129.95   L 193.75 133.18   Q 192.83 133.79 193.44 134.71   L 195.28 137.45   A 0.88 0.87 -16.9 0 1 194.55 138.81   L 184.74 138.85   A 0.81 0.80 11.2 0 1 183.99 137.74   L 187.67 128.64   A 1.03 1.02 -49.3 0 1 189.50 128.50   L 191.33 131.58   Q 191.78 132.33 192.51 131.85   L 197.55 128.56   Q 198.63 127.86 197.92 126.79   Z"
       id="path477" />
    <path
       d="   M 610.20 137.00   Q 610.92 137.85 610.39 138.95   L 606.21 138.84   Q 605.63 138.82 605.63 139.41   L 605.62 190.08   Q 605.62 190.71 606.25 190.73   L 610.05 190.80   Q 610.74 191.75 610.20 192.66   L 604.81 192.73   A 1.01 1.00 89.7 0 1 603.80 191.72   L 603.80 137.76   A 0.75 0.75 0.0 0 1 604.55 137.01   L 610.20 137.00   Z"
       id="path479" />
    <path
       d="   M 220.08 142.41   Q 220.01 142.94 221.44 142.55   Q 223.36 142.69 225.24 142.45   Q 226.15 142.33 226.54 142.98   Q 226.87 143.54 226.28 143.82   L 219.02 147.34   Q 218.35 147.66 219.09 147.69   Q 222.33 147.79 226.00 147.78   Q 226.38 147.78 226.55 147.99   Q 226.98 148.54 226.35 148.85   L 219.12 152.41   Q 218.44 152.75 219.19 152.75   Q 222.28 152.77 225.80 152.76   Q 226.01 152.76 226.18 152.83   Q 226.44 152.94 226.51 153.03   A 0.65 0.62 -32.4 0 1 226.27 154.00   L 219.19 157.44   A 0.23 0.23 0.0 0 0 219.29 157.87   L 225.60 157.85   A 0.90 0.89 72.0 0 1 226.33 158.23   Q 226.92 159.04 225.75 159.50   Q 222.39 160.82 219.23 162.56   Q 218.53 162.94 219.32 162.97   Q 221.95 163.08 224.48 162.85   Q 225.81 162.74 226.36 163.27   Q 227.00 163.89 226.20 164.27   L 219.51 167.37   Q 218.89 167.66 219.54 167.88   L 221.27 168.45   Q 220.34 168.63 219.66 169.44   L 215.71 169.47   Q 215.28 169.47 215.07 169.09   Q 214.68 168.40 215.34 168.08   Q 218.85 166.40 222.32 164.60   Q 222.98 164.26 222.24 164.26   L 217.03 164.27   Q 212.73 164.28 216.59 162.38   L 222.25 159.59   Q 223.48 158.99 222.11 159.09   Q 219.75 159.28 217.32 159.22   Q 212.76 159.13 216.87 157.14   L 222.29 154.52   Q 223.15 154.10 222.20 154.11   L 215.55 154.13   A 0.52 0.52 0.0 0 1 215.03 153.70   Q 214.89 152.97 215.61 152.64   Q 219.02 151.13 222.31 149.36   Q 222.93 149.02 222.22 149.02   L 215.66 149.01   Q 215.11 149.01 214.98 148.46   Q 214.93 148.22 215.07 147.96   Q 215.19 147.76 215.51 147.60   Q 218.84 146.03 221.49 144.81   Q 223.38 143.93 221.35 144.05   Q 219.76 144.14 220.08 142.41   Z"
       id="path481" />
    <path
       d="   M 596.08 163.69   L 596.13 146.75   A 0.35 0.35 0.0 0 1 596.55 146.40   L 597.65 146.62   A 0.35 0.35 0.0 0 1 597.93 146.97   L 597.92 183.24   A 0.35 0.35 0.0 0 1 597.51 183.59   L 596.42 183.39   A 0.35 0.35 0.0 0 1 596.13 183.05   L 596.10 166.28   A 0.35 0.35 0.0 0 0 595.75 165.93   L 578.60 165.91   A 0.35 0.35 0.0 0 1 578.25 165.53   L 578.34 164.36   A 0.35 0.35 0.0 0 1 578.69 164.04   L 595.73 164.04   A 0.35 0.35 0.0 0 0 596.08 163.69   Z"
       id="path483" />
    <path
       d="   M 323.53 209.33   Q 323.72 210.64 324.31 211.80   Q 323.75 213.44 323.74 213.66   Q 323.60 217.28 322.02 213.99   L 319.16 208.08   Q 318.72 207.16 318.74 208.18   L 318.85 214.73   Q 318.86 215.23 318.40 215.40   Q 318.04 215.54 317.68 215.33   Q 317.40 215.18 317.23 214.76   Q 315.71 211.14 313.97 207.90   Q 313.65 207.31 313.66 207.98   L 313.77 213.14   Q 313.87 218.07 311.71 213.64   L 308.96 207.99   Q 308.60 207.25 308.59 208.07   Q 308.54 211.19 308.71 214.24   Q 308.75 214.89 308.48 215.18   Q 308.19 215.50 307.74 215.39   A 0.79 0.78 83.9 0 1 307.23 214.97   L 303.91 208.01   Q 303.59 207.35 303.54 208.08   Q 303.32 211.18 303.64 214.24   Q 303.71 214.88 303.44 215.18   Q 303.22 215.42 302.91 215.45   Q 302.44 215.50 302.23 215.07   L 298.76 207.98   A 0.29 0.29 0.0 0 0 298.21 208.05   Q 298.07 208.70 298.70 209.02   A 0.45 0.45 0.0 0 1 298.70 209.83   Q 298.20 210.09 297.42 209.87   Q 297.33 208.93 296.93 208.08   L 297.07 204.47   A 0.67 0.67 0.0 0 1 297.61 203.84   Q 297.89 203.79 298.15 203.93   Q 298.37 204.05 298.53 204.39   Q 299.97 207.48 301.31 210.39   Q 301.97 211.83 302.00 210.25   L 302.11 204.55   Q 302.12 204.09 302.53 203.89   Q 303.30 203.51 303.66 204.34   Q 305.55 208.65 306.50 210.61   Q 307.02 211.70 307.04 210.49   L 307.15 204.62   Q 307.16 204.10 307.62 203.87   Q 308.36 203.51 308.71 204.28   Q 310.86 209.05 311.68 210.86   Q 312.19 212.01 312.19 210.75   L 312.19 204.70   Q 312.19 204.25 312.54 203.98   Q 313.37 203.32 313.74 204.24   Q 315.17 207.77 317.02 211.10   Q 317.38 211.75 317.37 211.00   L 317.27 204.58   Q 317.26 204.09 317.71 203.86   Q 318.01 203.71 318.36 203.88   Q 318.63 204.02 318.82 204.41   Q 320.03 206.86 321.09 209.38   Q 321.30 209.86 321.78 209.65   Q 322.68 209.24 323.53 209.33   Z"
       id="path485" />
    <path
       d="   M 3.67 213.99   L 6.04 214.25   Q 6.55 216.36 6.23 218.47   A 0.53 0.53 0.0 0 0 6.75 219.08   L 57.08 219.08   Q 57.75 219.08 57.75 218.42   L 57.75 215.51   Q 57.75 214.52 58.74 214.49   C 65.07 214.28 73.88 216.74 77.03 223.08   Q 77.30 223.62 77.79 223.27   Q 79.76 221.85 81.46 223.64   A 1.11 1.11 0.0 0 0 82.28 224.00   L 182.22 223.92   Q 182.74 223.92 182.74 223.40   L 182.73 214.08   L 185.34 214.24   L 185.56 225.34   A 1.25 1.25 0.0 0 1 184.31 226.61   L 82.79 226.47   A 1.36 1.33 19.0 0 0 81.74 226.97   Q 80.17 228.89 78.05 227.76   Q 77.63 227.54 77.42 227.96   C 73.71 234.98 65.54 236.54 58.38 236.41   Q 57.84 236.40 57.81 235.86   L 57.73 234.42   A 0.56 0.56 0.0 0 0 57.17 233.89   L 5.02 233.89   Q 3.93 233.89 3.88 232.81   L 3.86 232.40   Q 3.81 231.46 4.75 231.46   L 57.52 231.45   Q 57.75 231.45 57.75 231.23   L 57.75 222.01   Q 57.75 221.52 57.26 221.52   L 4.91 221.56   A 1.34 1.33 0.4 0 1 3.57 220.21   L 3.67 213.99   Z"
       id="path487" />
    <path
       d="   M 219.99 214.25   L 221.32 214.36   L 221.58 218.34   A 0.55 0.55 0.0 0 0 222.13 218.85   L 229.67 218.87   Q 230.44 218.87 230.59 219.63   L 230.67 220.06   A 0.50 0.50 0.0 0 1 230.18 220.66   L 212.20 220.69   A 0.85 0.85 0.0 0 1 211.38 219.62   L 211.44 219.38   A 0.68 0.67 -82.0 0 1 212.09 218.88   L 219.24 218.85   Q 219.76 218.85 219.79 218.33   L 219.99 214.25   Z"
       id="path489" />
    <path
       d="   M 399.18 214.27   Q 399.97 214.54 400.50 214.21   L 400.74 218.35   Q 400.77 218.85 401.27 218.85   L 409.23 218.90   A 0.51 0.50 90.0 0 1 409.73 219.41   L 409.73 219.78   Q 409.72 220.68 408.82 220.68   L 391.10 220.66   A 0.48 0.47 85.8 0 1 390.63 220.25   L 390.56 219.85   Q 390.41 218.86 391.40 218.87   L 398.52 218.89   Q 398.97 218.89 398.99 218.44   L 399.18 214.27   Z"
       id="path491" />
    <path
       d="   M 222.45 228.45   Q 221.60 228.45 221.60 229.30   L 221.57 235.57   Q 221.57 236.57 222.57 236.53   L 226.01 236.40   A 0.86 0.86 0.0 0 1 226.77 237.73   L 221.38 246.13   A 0.76 0.76 0.0 0 1 220.11 246.15   L 214.30 237.77   A 0.89 0.89 0.0 0 1 215.08 236.37   L 218.72 236.55   Q 219.79 236.60 219.79 235.53   L 219.77 229.50   Q 219.76 228.48 218.75 228.47   L 211.95 228.41   A 0.59 0.58 0.5 0 1 211.37 227.83   L 211.37 227.50   A 0.88 0.88 0.0 0 1 212.25 226.62   L 230.39 226.65   A 0.46 0.45 -6.2 0 1 230.84 227.00   L 230.93 227.40   Q 231.17 228.45 230.10 228.45   L 222.45 228.45   Z"
       id="path493" />
    <path
       d="   M 401.77 236.52   L 405.23 236.43   A 0.84 0.83 -74.3 0 1 405.95 237.72   L 400.51 246.21   A 0.69 0.69 0.0 0 1 399.36 246.23   L 393.55 237.88   A 0.97 0.96 -16.1 0 1 394.39 236.37   L 397.95 236.55   Q 399.01 236.60 399.01 235.54   L 399.01 229.50   Q 399.01 228.49 398.00 228.47   L 391.08 228.40   A 0.48 0.47 87.2 0 1 390.62 227.98   L 390.57 227.59   A 0.86 0.85 86.1 0 1 391.41 226.62   L 409.61 226.65   A 0.48 0.48 0.0 0 1 410.09 227.09   L 410.13 227.57   A 0.82 0.82 0.0 0 1 409.31 228.46   L 401.78 228.45   Q 400.75 228.45 400.75 229.47   L 400.75 235.52   Q 400.75 236.55 401.77 236.52   Z"
       id="path495" />
  </g>
  <g
     fill="#ffffff"
     id="g509"
     style="filter:url(#filter5538)">
    <path
       d="   M 60.32 3.40   A 0.21 0.21 0.0 0 1 60.53 3.19   L 60.75 3.19   A 16.33 9.54 0.4 0 1 77.01 12.85   L 77.01 12.99   A 16.33 9.54 0.4 0 1 60.61 22.41   L 60.39 22.41   A 0.21 0.21 0.0 0 1 60.18 22.20   L 60.32 3.40   Z"
       id="path499" />
    <circle
       cx="80.21"
       cy="12.69"
       r="1.39"
       id="circle501" />
    <circle
       cx="413.54"
       cy="75.41"
       r="2.98"
       id="circle503" />
    <path
       d="   M 59.51 216.18   A 0.22 0.22 0.0 0 1 59.73 215.96   L 59.96 215.96   A 16.25 9.53 -0.1 0 1 76.23 225.47   L 76.23 225.61   A 16.25 9.53 -0.1 0 1 60.00 235.16   L 59.77 235.16   A 0.22 0.22 0.0 0 1 59.55 234.94   L 59.51 216.18   Z"
       id="path505" />
    <circle
       cx="79.41"
       cy="225.39"
       r="1.43"
       id="circle507" />
  </g>
</svg>
